<?xml version="1.0" standalone="no"?>
 <!DOCTYPE svg PUBLIC "-//W3C//DTD SVG 1.1//EN" 
 "http://www.w3.org/Graphics/SVG/1.1/DTD/svg11.dtd"> 
<svg
  xmlns:svg="http://www.w3.org/2000/svg"
  xmlns="http://www.w3.org/2000/svg"
  xmlns:xlink="http://www.w3.org/1999/xlink"
  version="1.1"
  width="210.0072mm" height="148.0058mm" viewBox="0.0000 0.0000 210.0072 148.0058">
<title>SVG Image created as Resistors in parallel.svg date 2025/11/27 18:38:19 </title>
  <desc>Image generated by Eeschema-SVG </desc>
<g style="fill:#000000; fill-opacity:1.0000;stroke:#000000; stroke-opacity:1.0000;
stroke-linecap:round; stroke-linejoin:round;"
 transform="translate(0 0) scale(1 1)">
</g>
<g style="fill:#F5F4EF; fill-opacity:1.0000; 
stroke:#F5F4EF; stroke-width:0.0001; stroke-opacity:1; 
stroke-linecap:round; stroke-linejoin:round;">
<rect x="0.000000" y="0.000000" width="210.007200" height="148.005800" rx="0.000000" />
</g>
<g style="fill:none; 
stroke:#840000; stroke-width:0.1524; stroke-opacity:1; 
stroke-linecap:round; stroke-linejoin:round;">
<path d="M90.0072 104.0058
L198.0072 104.0058
L198.0072 136.0058
L90.0072 136.0058
L90.0072 104.0058
" />
<path d="M10.0000 10.0000
L200.0072 10.0000
L200.0072 138.0058
L10.0000 138.0058
L10.0000 10.0000
" />
<path d="M12.0000 12.0000
L198.0072 12.0000
L198.0072 136.0058
L12.0000 136.0058
L12.0000 12.0000
" />
<path d="M60.0000 12.0000
L60.0000 10.0000
" />
<path d="M110.0000 12.0000
L110.0000 10.0000
" />
<path d="M160.0000 12.0000
L160.0000 10.0000
" />
<text x="35.0000" y="11.6500"
textLength="1.4353" font-size="1.7333" lengthAdjust="spacingAndGlyphs"
text-anchor="start" opacity="0" stroke-opacity="0">1</text>
<g class="stroked-text"><desc>1</desc>
<path d="M36.0906 11.5935
L35.3478 11.5935
" />
<path d="M35.7192 11.5935
L35.7192 10.2935
" />
<path d="M35.7192 10.2935
L35.5954 10.4792
" />
<path d="M35.5954 10.4792
L35.4716 10.6030
" />
<path d="M35.4716 10.6030
L35.3478 10.6649
" />
</g><text x="85.0000" y="11.6500"
textLength="1.4353" font-size="1.7333" lengthAdjust="spacingAndGlyphs"
text-anchor="start" opacity="0" stroke-opacity="0">2</text>
<g class="stroked-text"><desc>2</desc>
<path d="M85.3478 10.4173
L85.4097 10.3554
" />
<path d="M85.4097 10.3554
L85.5335 10.2935
" />
<path d="M85.5335 10.2935
L85.8430 10.2935
" />
<path d="M85.8430 10.2935
L85.9668 10.3554
" />
<path d="M85.9668 10.3554
L86.0287 10.4173
" />
<path d="M86.0287 10.4173
L86.0906 10.5411
" />
<path d="M86.0906 10.5411
L86.0906 10.6649
" />
<path d="M86.0906 10.6649
L86.0287 10.8506
" />
<path d="M86.0287 10.8506
L85.2859 11.5935
" />
<path d="M85.2859 11.5935
L86.0906 11.5935
" />
</g><text x="135.0000" y="11.6500"
textLength="1.4353" font-size="1.7333" lengthAdjust="spacingAndGlyphs"
text-anchor="start" opacity="0" stroke-opacity="0">3</text>
<g class="stroked-text"><desc>3</desc>
<path d="M135.2859 10.2935
L136.0906 10.2935
" />
<path d="M136.0906 10.2935
L135.6573 10.7887
" />
<path d="M135.6573 10.7887
L135.8430 10.7887
" />
<path d="M135.8430 10.7887
L135.9668 10.8506
" />
<path d="M135.9668 10.8506
L136.0287 10.9125
" />
<path d="M136.0287 10.9125
L136.0906 11.0363
" />
<path d="M136.0906 11.0363
L136.0906 11.3458
" />
<path d="M136.0906 11.3458
L136.0287 11.4696
" />
<path d="M136.0287 11.4696
L135.9668 11.5316
" />
<path d="M135.9668 11.5316
L135.8430 11.5935
" />
<path d="M135.8430 11.5935
L135.4716 11.5935
" />
<path d="M135.4716 11.5935
L135.3478 11.5316
" />
<path d="M135.3478 11.5316
L135.2859 11.4696
" />
</g><text x="185.0000" y="11.6500"
textLength="1.4353" font-size="1.7333" lengthAdjust="spacingAndGlyphs"
text-anchor="start" opacity="0" stroke-opacity="0">4</text>
<g class="stroked-text"><desc>4</desc>
<path d="M185.9668 10.7268
L185.9668 11.5935
" />
<path d="M185.6573 10.2316
L185.3478 11.1601
" />
<path d="M185.3478 11.1601
L186.1525 11.1601
" />
</g><path d="M60.0000 136.0058
L60.0000 138.0058
" />
<path d="M110.0000 136.0058
L110.0000 138.0058
" />
<path d="M160.0000 136.0058
L160.0000 138.0058
" />
<text x="35.0000" y="137.6558"
textLength="1.4353" font-size="1.7333" lengthAdjust="spacingAndGlyphs"
text-anchor="start" opacity="0" stroke-opacity="0">1</text>
<g class="stroked-text"><desc>1</desc>
<path d="M36.0906 137.5993
L35.3478 137.5993
" />
<path d="M35.7192 137.5993
L35.7192 136.2993
" />
<path d="M35.7192 136.2993
L35.5954 136.4850
" />
<path d="M35.5954 136.4850
L35.4716 136.6088
" />
<path d="M35.4716 136.6088
L35.3478 136.6707
" />
</g><text x="85.0000" y="137.6558"
textLength="1.4353" font-size="1.7333" lengthAdjust="spacingAndGlyphs"
text-anchor="start" opacity="0" stroke-opacity="0">2</text>
<g class="stroked-text"><desc>2</desc>
<path d="M85.3478 136.4231
L85.4097 136.3612
" />
<path d="M85.4097 136.3612
L85.5335 136.2993
" />
<path d="M85.5335 136.2993
L85.8430 136.2993
" />
<path d="M85.8430 136.2993
L85.9668 136.3612
" />
<path d="M85.9668 136.3612
L86.0287 136.4231
" />
<path d="M86.0287 136.4231
L86.0906 136.5469
" />
<path d="M86.0906 136.5469
L86.0906 136.6707
" />
<path d="M86.0906 136.6707
L86.0287 136.8564
" />
<path d="M86.0287 136.8564
L85.2859 137.5993
" />
<path d="M85.2859 137.5993
L86.0906 137.5993
" />
</g><text x="135.0000" y="137.6558"
textLength="1.4353" font-size="1.7333" lengthAdjust="spacingAndGlyphs"
text-anchor="start" opacity="0" stroke-opacity="0">3</text>
<g class="stroked-text"><desc>3</desc>
<path d="M135.2859 136.2993
L136.0906 136.2993
" />
<path d="M136.0906 136.2993
L135.6573 136.7945
" />
<path d="M135.6573 136.7945
L135.8430 136.7945
" />
<path d="M135.8430 136.7945
L135.9668 136.8564
" />
<path d="M135.9668 136.8564
L136.0287 136.9183
" />
<path d="M136.0287 136.9183
L136.0906 137.0421
" />
<path d="M136.0906 137.0421
L136.0906 137.3516
" />
<path d="M136.0906 137.3516
L136.0287 137.4754
" />
<path d="M136.0287 137.4754
L135.9668 137.5374
" />
<path d="M135.9668 137.5374
L135.8430 137.5993
" />
<path d="M135.8430 137.5993
L135.4716 137.5993
" />
<path d="M135.4716 137.5993
L135.3478 137.5374
" />
<path d="M135.3478 137.5374
L135.2859 137.4754
" />
</g><text x="185.0000" y="137.6558"
textLength="1.4353" font-size="1.7333" lengthAdjust="spacingAndGlyphs"
text-anchor="start" opacity="0" stroke-opacity="0">4</text>
<g class="stroked-text"><desc>4</desc>
<path d="M185.9668 136.7326
L185.9668 137.5993
" />
<path d="M185.6573 136.2374
L185.3478 137.1659
" />
<path d="M185.3478 137.1659
L186.1525 137.1659
" />
</g><path d="M10.0000 60.0000
L12.0000 60.0000
" />
<path d="M10.0000 110.0000
L12.0000 110.0000
" />
<text x="11.0000" y="35.6500"
textLength="1.3115" font-size="1.7333" lengthAdjust="spacingAndGlyphs"
text-anchor="middle" opacity="0" stroke-opacity="0">A</text>
<g class="stroked-text"><desc>A</desc>
<path d="M10.6905 35.2220
L11.3095 35.2220
" />
<path d="M10.5667 35.5935
L11.0000 34.2935
" />
<path d="M11.0000 34.2935
L11.4333 35.5935
" />
</g><text x="11.0000" y="85.6500"
textLength="1.4972" font-size="1.7333" lengthAdjust="spacingAndGlyphs"
text-anchor="middle" opacity="0" stroke-opacity="0">B</text>
<g class="stroked-text"><desc>B</desc>
<path d="M11.0928 84.9125
L11.2785 84.9744
" />
<path d="M11.2785 84.9744
L11.3404 85.0363
" />
<path d="M11.3404 85.0363
L11.4023 85.1601
" />
<path d="M11.4023 85.1601
L11.4023 85.3458
" />
<path d="M11.4023 85.3458
L11.3404 85.4696
" />
<path d="M11.3404 85.4696
L11.2785 85.5316
" />
<path d="M11.2785 85.5316
L11.1547 85.5935
" />
<path d="M11.1547 85.5935
L10.6595 85.5935
" />
<path d="M10.6595 85.5935
L10.6595 84.2935
" />
<path d="M10.6595 84.2935
L11.0928 84.2935
" />
<path d="M11.0928 84.2935
L11.2166 84.3554
" />
<path d="M11.2166 84.3554
L11.2785 84.4173
" />
<path d="M11.2785 84.4173
L11.3404 84.5411
" />
<path d="M11.3404 84.5411
L11.3404 84.6649
" />
<path d="M11.3404 84.6649
L11.2785 84.7887
" />
<path d="M11.2785 84.7887
L11.2166 84.8506
" />
<path d="M11.2166 84.8506
L11.0928 84.9125
" />
<path d="M11.0928 84.9125
L10.6595 84.9125
" />
</g><text x="11.0000" y="135.6500"
textLength="1.4972" font-size="1.7333" lengthAdjust="spacingAndGlyphs"
text-anchor="middle" opacity="0" stroke-opacity="0">C</text>
<g class="stroked-text"><desc>C</desc>
<path d="M11.4023 135.4696
L11.3404 135.5316
" />
<path d="M11.3404 135.5316
L11.1547 135.5935
" />
<path d="M11.1547 135.5935
L11.0309 135.5935
" />
<path d="M11.0309 135.5935
L10.8452 135.5316
" />
<path d="M10.8452 135.5316
L10.7214 135.4077
" />
<path d="M10.7214 135.4077
L10.6595 135.2839
" />
<path d="M10.6595 135.2839
L10.5976 135.0363
" />
<path d="M10.5976 135.0363
L10.5976 134.8506
" />
<path d="M10.5976 134.8506
L10.6595 134.6030
" />
<path d="M10.6595 134.6030
L10.7214 134.4792
" />
<path d="M10.7214 134.4792
L10.8452 134.3554
" />
<path d="M10.8452 134.3554
L11.0309 134.2935
" />
<path d="M11.0309 134.2935
L11.1547 134.2935
" />
<path d="M11.1547 134.2935
L11.3404 134.3554
" />
<path d="M11.3404 134.3554
L11.4023 134.4173
" />
</g><path d="M200.0072 60.0000
L198.0072 60.0000
" />
<path d="M200.0072 110.0000
L198.0072 110.0000
" />
<text x="199.0072" y="35.6500"
textLength="1.3115" font-size="1.7333" lengthAdjust="spacingAndGlyphs"
text-anchor="middle" opacity="0" stroke-opacity="0">A</text>
<g class="stroked-text"><desc>A</desc>
<path d="M198.6977 35.2220
L199.3167 35.2220
" />
<path d="M198.5739 35.5935
L199.0072 34.2935
" />
<path d="M199.0072 34.2935
L199.4405 35.5935
" />
</g><text x="199.0072" y="85.6500"
textLength="1.4972" font-size="1.7333" lengthAdjust="spacingAndGlyphs"
text-anchor="middle" opacity="0" stroke-opacity="0">B</text>
<g class="stroked-text"><desc>B</desc>
<path d="M199.1000 84.9125
L199.2857 84.9744
" />
<path d="M199.2857 84.9744
L199.3476 85.0363
" />
<path d="M199.3476 85.0363
L199.4095 85.1601
" />
<path d="M199.4095 85.1601
L199.4095 85.3458
" />
<path d="M199.4095 85.3458
L199.3476 85.4696
" />
<path d="M199.3476 85.4696
L199.2857 85.5316
" />
<path d="M199.2857 85.5316
L199.1619 85.5935
" />
<path d="M199.1619 85.5935
L198.6667 85.5935
" />
<path d="M198.6667 85.5935
L198.6667 84.2935
" />
<path d="M198.6667 84.2935
L199.1000 84.2935
" />
<path d="M199.1000 84.2935
L199.2238 84.3554
" />
<path d="M199.2238 84.3554
L199.2857 84.4173
" />
<path d="M199.2857 84.4173
L199.3476 84.5411
" />
<path d="M199.3476 84.5411
L199.3476 84.6649
" />
<path d="M199.3476 84.6649
L199.2857 84.7887
" />
<path d="M199.2857 84.7887
L199.2238 84.8506
" />
<path d="M199.2238 84.8506
L199.1000 84.9125
" />
<path d="M199.1000 84.9125
L198.6667 84.9125
" />
</g><text x="199.0072" y="135.6500"
textLength="1.4972" font-size="1.7333" lengthAdjust="spacingAndGlyphs"
text-anchor="middle" opacity="0" stroke-opacity="0">C</text>
<g class="stroked-text"><desc>C</desc>
<path d="M199.4095 135.4696
L199.3476 135.5316
" />
<path d="M199.3476 135.5316
L199.1619 135.5935
" />
<path d="M199.1619 135.5935
L199.0381 135.5935
" />
<path d="M199.0381 135.5935
L198.8524 135.5316
" />
<path d="M198.8524 135.5316
L198.7286 135.4077
" />
<path d="M198.7286 135.4077
L198.6667 135.2839
" />
<path d="M198.6667 135.2839
L198.6048 135.0363
" />
<path d="M198.6048 135.0363
L198.6048 134.8506
" />
<path d="M198.6048 134.8506
L198.6667 134.6030
" />
<path d="M198.6667 134.6030
L198.7286 134.4792
" />
<path d="M198.7286 134.4792
L198.8524 134.3554
" />
<path d="M198.8524 134.3554
L199.0381 134.2935
" />
<path d="M199.0381 134.2935
L199.1619 134.2935
" />
<path d="M199.1619 134.2935
L199.3476 134.3554
" />
<path d="M199.3476 134.3554
L199.4095 134.4173
" />
</g><text x="113.0072" y="131.8558"
textLength="7.0143" font-size="2.0000" lengthAdjust="spacingAndGlyphs"
text-anchor="start" opacity="0" stroke-opacity="0">Date: </text>
<g class="stroked-text"><desc>Date: </desc>
<path d="M113.4645 131.7917
L113.4645 130.2917
" />
<path d="M113.4645 130.2917
L113.8216 130.2917
" />
<path d="M113.8216 130.2917
L114.0359 130.3631
" />
<path d="M114.0359 130.3631
L114.1788 130.5060
" />
<path d="M114.1788 130.5060
L114.2502 130.6488
" />
<path d="M114.2502 130.6488
L114.3216 130.9345
" />
<path d="M114.3216 130.9345
L114.3216 131.1488
" />
<path d="M114.3216 131.1488
L114.2502 131.4345
" />
<path d="M114.2502 131.4345
L114.1788 131.5774
" />
<path d="M114.1788 131.5774
L114.0359 131.7203
" />
<path d="M114.0359 131.7203
L113.8216 131.7917
" />
<path d="M113.8216 131.7917
L113.4645 131.7917
" />
<path d="M115.6074 131.7917
L115.6074 131.0060
" />
<path d="M115.6074 131.0060
L115.5359 130.8631
" />
<path d="M115.5359 130.8631
L115.3931 130.7917
" />
<path d="M115.3931 130.7917
L115.1074 130.7917
" />
<path d="M115.1074 130.7917
L114.9645 130.8631
" />
<path d="M115.6074 131.7203
L115.4645 131.7917
" />
<path d="M115.4645 131.7917
L115.1074 131.7917
" />
<path d="M115.1074 131.7917
L114.9645 131.7203
" />
<path d="M114.9645 131.7203
L114.8931 131.5774
" />
<path d="M114.8931 131.5774
L114.8931 131.4345
" />
<path d="M114.8931 131.4345
L114.9645 131.2917
" />
<path d="M114.9645 131.2917
L115.1074 131.2203
" />
<path d="M115.1074 131.2203
L115.4645 131.2203
" />
<path d="M115.4645 131.2203
L115.6074 131.1488
" />
<path d="M116.1073 130.7917
L116.6787 130.7917
" />
<path d="M116.3216 130.2917
L116.3216 131.5774
" />
<path d="M116.3216 131.5774
L116.3930 131.7203
" />
<path d="M116.3930 131.7203
L116.5359 131.7917
" />
<path d="M116.5359 131.7917
L116.6787 131.7917
" />
<path d="M117.7501 131.7203
L117.6073 131.7917
" />
<path d="M117.6073 131.7917
L117.3216 131.7917
" />
<path d="M117.3216 131.7917
L117.1787 131.7203
" />
<path d="M117.1787 131.7203
L117.1073 131.5774
" />
<path d="M117.1073 131.5774
L117.1073 131.0060
" />
<path d="M117.1073 131.0060
L117.1787 130.8631
" />
<path d="M117.1787 130.8631
L117.3216 130.7917
" />
<path d="M117.3216 130.7917
L117.6073 130.7917
" />
<path d="M117.6073 130.7917
L117.7501 130.8631
" />
<path d="M117.7501 130.8631
L117.8216 131.0060
" />
<path d="M117.8216 131.0060
L117.8216 131.1488
" />
<path d="M117.8216 131.1488
L117.1073 131.2917
" />
<path d="M118.4644 131.6488
L118.5358 131.7203
" />
<path d="M118.5358 131.7203
L118.4644 131.7917
" />
<path d="M118.4644 131.7917
L118.3930 131.7203
" />
<path d="M118.3930 131.7203
L118.4644 131.6488
" />
<path d="M118.4644 131.6488
L118.4644 131.7917
" />
<path d="M118.4644 130.8631
L118.5358 130.9345
" />
<path d="M118.5358 130.9345
L118.4644 131.0060
" />
<path d="M118.4644 131.0060
L118.3930 130.9345
" />
<path d="M118.3930 130.9345
L118.4644 130.8631
" />
<path d="M118.4644 130.8631
L118.4644 131.0060
" />
</g><path d="M90.0072 132.5058
L198.0072 132.5058
" />
<text x="91.0072" y="134.6558"
textLength="20.8716" font-size="2.0000" lengthAdjust="spacingAndGlyphs"
text-anchor="start" opacity="0" stroke-opacity="0">KiCad E.D.A. 9.0.6</text>
<g class="stroked-text"><desc>KiCad E.D.A. 9.0.6</desc>
<path d="M91.4645 134.5917
L91.4645 133.0917
" />
<path d="M92.3216 134.5917
L91.6788 133.7345
" />
<path d="M92.3216 133.0917
L91.4645 133.9488
" />
<path d="M92.9645 134.5917
L92.9645 133.5917
" />
<path d="M92.9645 133.0917
L92.8931 133.1631
" />
<path d="M92.8931 133.1631
L92.9645 133.2345
" />
<path d="M92.9645 133.2345
L93.0359 133.1631
" />
<path d="M93.0359 133.1631
L92.9645 133.0917
" />
<path d="M92.9645 133.0917
L92.9645 133.2345
" />
<path d="M94.5359 134.4488
L94.4645 134.5203
" />
<path d="M94.4645 134.5203
L94.2502 134.5917
" />
<path d="M94.2502 134.5917
L94.1074 134.5917
" />
<path d="M94.1074 134.5917
L93.8931 134.5203
" />
<path d="M93.8931 134.5203
L93.7502 134.3774
" />
<path d="M93.7502 134.3774
L93.6788 134.2345
" />
<path d="M93.6788 134.2345
L93.6074 133.9488
" />
<path d="M93.6074 133.9488
L93.6074 133.7345
" />
<path d="M93.6074 133.7345
L93.6788 133.4488
" />
<path d="M93.6788 133.4488
L93.7502 133.3060
" />
<path d="M93.7502 133.3060
L93.8931 133.1631
" />
<path d="M93.8931 133.1631
L94.1074 133.0917
" />
<path d="M94.1074 133.0917
L94.2502 133.0917
" />
<path d="M94.2502 133.0917
L94.4645 133.1631
" />
<path d="M94.4645 133.1631
L94.5359 133.2345
" />
<path d="M95.8217 134.5917
L95.8217 133.8060
" />
<path d="M95.8217 133.8060
L95.7502 133.6631
" />
<path d="M95.7502 133.6631
L95.6074 133.5917
" />
<path d="M95.6074 133.5917
L95.3217 133.5917
" />
<path d="M95.3217 133.5917
L95.1788 133.6631
" />
<path d="M95.8217 134.5203
L95.6788 134.5917
" />
<path d="M95.6788 134.5917
L95.3217 134.5917
" />
<path d="M95.3217 134.5917
L95.1788 134.5203
" />
<path d="M95.1788 134.5203
L95.1074 134.3774
" />
<path d="M95.1074 134.3774
L95.1074 134.2345
" />
<path d="M95.1074 134.2345
L95.1788 134.0917
" />
<path d="M95.1788 134.0917
L95.3217 134.0203
" />
<path d="M95.3217 134.0203
L95.6788 134.0203
" />
<path d="M95.6788 134.0203
L95.8217 133.9488
" />
<path d="M97.1788 134.5917
L97.1788 133.0917
" />
<path d="M97.1788 134.5203
L97.0359 134.5917
" />
<path d="M97.0359 134.5917
L96.7502 134.5917
" />
<path d="M96.7502 134.5917
L96.6073 134.5203
" />
<path d="M96.6073 134.5203
L96.5359 134.4488
" />
<path d="M96.5359 134.4488
L96.4645 134.3060
" />
<path d="M96.4645 134.3060
L96.4645 133.8774
" />
<path d="M96.4645 133.8774
L96.5359 133.7345
" />
<path d="M96.5359 133.7345
L96.6073 133.6631
" />
<path d="M96.6073 133.6631
L96.7502 133.5917
" />
<path d="M96.7502 133.5917
L97.0359 133.5917
" />
<path d="M97.0359 133.5917
L97.1788 133.6631
" />
<path d="M99.0359 133.8060
L99.5359 133.8060
" />
<path d="M99.7502 134.5917
L99.0359 134.5917
" />
<path d="M99.0359 134.5917
L99.0359 133.0917
" />
<path d="M99.0359 133.0917
L99.7502 133.0917
" />
<path d="M100.3930 134.4488
L100.4644 134.5203
" />
<path d="M100.4644 134.5203
L100.3930 134.5917
" />
<path d="M100.3930 134.5917
L100.3216 134.5203
" />
<path d="M100.3216 134.5203
L100.3930 134.4488
" />
<path d="M100.3930 134.4488
L100.3930 134.5917
" />
<path d="M101.1073 134.5917
L101.1073 133.0917
" />
<path d="M101.1073 133.0917
L101.4644 133.0917
" />
<path d="M101.4644 133.0917
L101.6787 133.1631
" />
<path d="M101.6787 133.1631
L101.8216 133.3060
" />
<path d="M101.8216 133.3060
L101.8930 133.4488
" />
<path d="M101.8930 133.4488
L101.9644 133.7345
" />
<path d="M101.9644 133.7345
L101.9644 133.9488
" />
<path d="M101.9644 133.9488
L101.8930 134.2345
" />
<path d="M101.8930 134.2345
L101.8216 134.3774
" />
<path d="M101.8216 134.3774
L101.6787 134.5203
" />
<path d="M101.6787 134.5203
L101.4644 134.5917
" />
<path d="M101.4644 134.5917
L101.1073 134.5917
" />
<path d="M102.6073 134.4488
L102.6787 134.5203
" />
<path d="M102.6787 134.5203
L102.6073 134.5917
" />
<path d="M102.6073 134.5917
L102.5359 134.5203
" />
<path d="M102.5359 134.5203
L102.6073 134.4488
" />
<path d="M102.6073 134.4488
L102.6073 134.5917
" />
<path d="M103.2502 134.1631
L103.9645 134.1631
" />
<path d="M103.1073 134.5917
L103.6073 133.0917
" />
<path d="M103.6073 133.0917
L104.1073 134.5917
" />
<path d="M104.6073 134.4488
L104.6787 134.5203
" />
<path d="M104.6787 134.5203
L104.6073 134.5917
" />
<path d="M104.6073 134.5917
L104.5359 134.5203
" />
<path d="M104.5359 134.5203
L104.6073 134.4488
" />
<path d="M104.6073 134.4488
L104.6073 134.5917
" />
<path d="M106.5359 134.5917
L106.8216 134.5917
" />
<path d="M106.8216 134.5917
L106.9645 134.5203
" />
<path d="M106.9645 134.5203
L107.0359 134.4488
" />
<path d="M107.0359 134.4488
L107.1788 134.2345
" />
<path d="M107.1788 134.2345
L107.2502 133.9488
" />
<path d="M107.2502 133.9488
L107.2502 133.3774
" />
<path d="M107.2502 133.3774
L107.1788 133.2345
" />
<path d="M107.1788 133.2345
L107.1074 133.1631
" />
<path d="M107.1074 133.1631
L106.9645 133.0917
" />
<path d="M106.9645 133.0917
L106.6788 133.0917
" />
<path d="M106.6788 133.0917
L106.5359 133.1631
" />
<path d="M106.5359 133.1631
L106.4645 133.2345
" />
<path d="M106.4645 133.2345
L106.3931 133.3774
" />
<path d="M106.3931 133.3774
L106.3931 133.7345
" />
<path d="M106.3931 133.7345
L106.4645 133.8774
" />
<path d="M106.4645 133.8774
L106.5359 133.9488
" />
<path d="M106.5359 133.9488
L106.6788 134.0203
" />
<path d="M106.6788 134.0203
L106.9645 134.0203
" />
<path d="M106.9645 134.0203
L107.1074 133.9488
" />
<path d="M107.1074 133.9488
L107.1788 133.8774
" />
<path d="M107.1788 133.8774
L107.2502 133.7345
" />
<path d="M107.8931 134.4488
L107.9645 134.5203
" />
<path d="M107.9645 134.5203
L107.8931 134.5917
" />
<path d="M107.8931 134.5917
L107.8217 134.5203
" />
<path d="M107.8217 134.5203
L107.8931 134.4488
" />
<path d="M107.8931 134.4488
L107.8931 134.5917
" />
<path d="M108.8931 133.0917
L109.0360 133.0917
" />
<path d="M109.0360 133.0917
L109.1788 133.1631
" />
<path d="M109.1788 133.1631
L109.2503 133.2345
" />
<path d="M109.2503 133.2345
L109.3217 133.3774
" />
<path d="M109.3217 133.3774
L109.3931 133.6631
" />
<path d="M109.3931 133.6631
L109.3931 134.0203
" />
<path d="M109.3931 134.0203
L109.3217 134.3060
" />
<path d="M109.3217 134.3060
L109.2503 134.4488
" />
<path d="M109.2503 134.4488
L109.1788 134.5203
" />
<path d="M109.1788 134.5203
L109.0360 134.5917
" />
<path d="M109.0360 134.5917
L108.8931 134.5917
" />
<path d="M108.8931 134.5917
L108.7503 134.5203
" />
<path d="M108.7503 134.5203
L108.6788 134.4488
" />
<path d="M108.6788 134.4488
L108.6074 134.3060
" />
<path d="M108.6074 134.3060
L108.5360 134.0203
" />
<path d="M108.5360 134.0203
L108.5360 133.6631
" />
<path d="M108.5360 133.6631
L108.6074 133.3774
" />
<path d="M108.6074 133.3774
L108.6788 133.2345
" />
<path d="M108.6788 133.2345
L108.7503 133.1631
" />
<path d="M108.7503 133.1631
L108.8931 133.0917
" />
<path d="M110.0360 134.4488
L110.1074 134.5203
" />
<path d="M110.1074 134.5203
L110.0360 134.5917
" />
<path d="M110.0360 134.5917
L109.9646 134.5203
" />
<path d="M109.9646 134.5203
L110.0360 134.4488
" />
<path d="M110.0360 134.4488
L110.0360 134.5917
" />
<path d="M111.3932 133.0917
L111.1074 133.0917
" />
<path d="M111.1074 133.0917
L110.9646 133.1631
" />
<path d="M110.9646 133.1631
L110.8932 133.2345
" />
<path d="M110.8932 133.2345
L110.7503 133.4488
" />
<path d="M110.7503 133.4488
L110.6789 133.7345
" />
<path d="M110.6789 133.7345
L110.6789 134.3060
" />
<path d="M110.6789 134.3060
L110.7503 134.4488
" />
<path d="M110.7503 134.4488
L110.8217 134.5203
" />
<path d="M110.8217 134.5203
L110.9646 134.5917
" />
<path d="M110.9646 134.5917
L111.2503 134.5917
" />
<path d="M111.2503 134.5917
L111.3932 134.5203
" />
<path d="M111.3932 134.5203
L111.4646 134.4488
" />
<path d="M111.4646 134.4488
L111.5360 134.3060
" />
<path d="M111.5360 134.3060
L111.5360 133.9488
" />
<path d="M111.5360 133.9488
L111.4646 133.8060
" />
<path d="M111.4646 133.8060
L111.3932 133.7345
" />
<path d="M111.3932 133.7345
L111.2503 133.6631
" />
<path d="M111.2503 133.6631
L110.9646 133.6631
" />
<path d="M110.9646 133.6631
L110.8217 133.7345
" />
<path d="M110.8217 133.7345
L110.7503 133.8060
" />
<path d="M110.7503 133.8060
L110.6789 133.9488
" />
</g><path d="M90.0072 129.5058
L198.0072 129.5058
" />
</g>
<g style="fill:none; 
stroke:#840000; stroke-width:0.3000; stroke-opacity:1; 
stroke-linecap:round; stroke-linejoin:round;">
<text x="176.0072" y="131.8558"
textLength="6.3858" font-size="2.0000" lengthAdjust="spacingAndGlyphs"
text-anchor="start" opacity="0" stroke-opacity="0">Rev: </text>
<g class="stroked-text"><desc>Rev: </desc>
<path d="M177.4187 131.7841
L176.9187 131.0698
" />
<path d="M176.5616 131.7841
L176.5616 130.2841
" />
<path d="M176.5616 130.2841
L177.1330 130.2841
" />
<path d="M177.1330 130.2841
L177.2759 130.3555
" />
<path d="M177.2759 130.3555
L177.3473 130.4269
" />
<path d="M177.3473 130.4269
L177.4187 130.5698
" />
<path d="M177.4187 130.5698
L177.4187 130.7841
" />
<path d="M177.4187 130.7841
L177.3473 130.9269
" />
<path d="M177.3473 130.9269
L177.2759 130.9984
" />
<path d="M177.2759 130.9984
L177.1330 131.0698
" />
<path d="M177.1330 131.0698
L176.5616 131.0698
" />
<path d="M178.6330 131.7127
L178.4902 131.7841
" />
<path d="M178.4902 131.7841
L178.2045 131.7841
" />
<path d="M178.2045 131.7841
L178.0616 131.7127
" />
<path d="M178.0616 131.7127
L177.9902 131.5698
" />
<path d="M177.9902 131.5698
L177.9902 130.9984
" />
<path d="M177.9902 130.9984
L178.0616 130.8555
" />
<path d="M178.0616 130.8555
L178.2045 130.7841
" />
<path d="M178.2045 130.7841
L178.4902 130.7841
" />
<path d="M178.4902 130.7841
L178.6330 130.8555
" />
<path d="M178.6330 130.8555
L178.7045 130.9984
" />
<path d="M178.7045 130.9984
L178.7045 131.1412
" />
<path d="M178.7045 131.1412
L177.9902 131.2841
" />
<path d="M179.2044 130.7841
L179.5616 131.7841
" />
<path d="M179.5616 131.7841
L179.9187 130.7841
" />
<path d="M180.4902 131.6412
L180.5616 131.7127
" />
<path d="M180.5616 131.7127
L180.4902 131.7841
" />
<path d="M180.4902 131.7841
L180.4188 131.7127
" />
<path d="M180.4188 131.7127
L180.4902 131.6412
" />
<path d="M180.4902 131.6412
L180.4902 131.7841
" />
<path d="M180.4902 130.8555
L180.5616 130.9269
" />
<path d="M180.5616 130.9269
L180.4902 130.9984
" />
<path d="M180.4902 130.9984
L180.4188 130.9269
" />
<path d="M180.4188 130.9269
L180.4902 130.8555
" />
<path d="M180.4902 130.8555
L180.4902 130.9984
" />
</g></g>
<g style="fill:none; 
stroke:#840000; stroke-width:0.1524; stroke-opacity:1; 
stroke-linecap:round; stroke-linejoin:round;">
<text x="91.0072" y="131.8558"
textLength="9.3716" font-size="2.0000" lengthAdjust="spacingAndGlyphs"
text-anchor="start" opacity="0" stroke-opacity="0">Size: A5</text>
<g class="stroked-text"><desc>Size: A5</desc>
<path d="M91.3931 131.7203
L91.6074 131.7917
" />
<path d="M91.6074 131.7917
L91.9645 131.7917
" />
<path d="M91.9645 131.7917
L92.1074 131.7203
" />
<path d="M92.1074 131.7203
L92.1788 131.6488
" />
<path d="M92.1788 131.6488
L92.2502 131.5060
" />
<path d="M92.2502 131.5060
L92.2502 131.3631
" />
<path d="M92.2502 131.3631
L92.1788 131.2203
" />
<path d="M92.1788 131.2203
L92.1074 131.1488
" />
<path d="M92.1074 131.1488
L91.9645 131.0774
" />
<path d="M91.9645 131.0774
L91.6788 131.0060
" />
<path d="M91.6788 131.0060
L91.5359 130.9345
" />
<path d="M91.5359 130.9345
L91.4645 130.8631
" />
<path d="M91.4645 130.8631
L91.3931 130.7203
" />
<path d="M91.3931 130.7203
L91.3931 130.5774
" />
<path d="M91.3931 130.5774
L91.4645 130.4345
" />
<path d="M91.4645 130.4345
L91.5359 130.3631
" />
<path d="M91.5359 130.3631
L91.6788 130.2917
" />
<path d="M91.6788 130.2917
L92.0359 130.2917
" />
<path d="M92.0359 130.2917
L92.2502 130.3631
" />
<path d="M92.8931 131.7917
L92.8931 130.7917
" />
<path d="M92.8931 130.2917
L92.8217 130.3631
" />
<path d="M92.8217 130.3631
L92.8931 130.4345
" />
<path d="M92.8931 130.4345
L92.9645 130.3631
" />
<path d="M92.9645 130.3631
L92.8931 130.2917
" />
<path d="M92.8931 130.2917
L92.8931 130.4345
" />
<path d="M93.4645 130.7917
L94.2503 130.7917
" />
<path d="M94.2503 130.7917
L93.4645 131.7917
" />
<path d="M93.4645 131.7917
L94.2503 131.7917
" />
<path d="M95.3931 131.7203
L95.2503 131.7917
" />
<path d="M95.2503 131.7917
L94.9646 131.7917
" />
<path d="M94.9646 131.7917
L94.8217 131.7203
" />
<path d="M94.8217 131.7203
L94.7503 131.5774
" />
<path d="M94.7503 131.5774
L94.7503 131.0060
" />
<path d="M94.7503 131.0060
L94.8217 130.8631
" />
<path d="M94.8217 130.8631
L94.9646 130.7917
" />
<path d="M94.9646 130.7917
L95.2503 130.7917
" />
<path d="M95.2503 130.7917
L95.3931 130.8631
" />
<path d="M95.3931 130.8631
L95.4646 131.0060
" />
<path d="M95.4646 131.0060
L95.4646 131.1488
" />
<path d="M95.4646 131.1488
L94.7503 131.2917
" />
<path d="M96.1074 131.6488
L96.1788 131.7203
" />
<path d="M96.1788 131.7203
L96.1074 131.7917
" />
<path d="M96.1074 131.7917
L96.0360 131.7203
" />
<path d="M96.0360 131.7203
L96.1074 131.6488
" />
<path d="M96.1074 131.6488
L96.1074 131.7917
" />
<path d="M96.1074 130.8631
L96.1788 130.9345
" />
<path d="M96.1788 130.9345
L96.1074 131.0060
" />
<path d="M96.1074 131.0060
L96.0360 130.9345
" />
<path d="M96.0360 130.9345
L96.1074 130.8631
" />
<path d="M96.1074 130.8631
L96.1074 131.0060
" />
<path d="M97.8932 131.3631
L98.6075 131.3631
" />
<path d="M97.7503 131.7917
L98.2503 130.2917
" />
<path d="M98.2503 130.2917
L98.7503 131.7917
" />
<path d="M99.9646 130.2917
L99.2503 130.2917
" />
<path d="M99.2503 130.2917
L99.1789 131.0060
" />
<path d="M99.1789 131.0060
L99.2503 130.9345
" />
<path d="M99.2503 130.9345
L99.3932 130.8631
" />
<path d="M99.3932 130.8631
L99.7503 130.8631
" />
<path d="M99.7503 130.8631
L99.8932 130.9345
" />
<path d="M99.8932 130.9345
L99.9646 131.0060
" />
<path d="M99.9646 131.0060
L100.0360 131.1488
" />
<path d="M100.0360 131.1488
L100.0360 131.5060
" />
<path d="M100.0360 131.5060
L99.9646 131.6488
" />
<path d="M99.9646 131.6488
L99.8932 131.7203
" />
<path d="M99.8932 131.7203
L99.7503 131.7917
" />
<path d="M99.7503 131.7917
L99.3932 131.7917
" />
<path d="M99.3932 131.7917
L99.2503 131.7203
" />
<path d="M99.2503 131.7203
L99.1789 131.6488
" />
</g><text x="176.0072" y="134.6558"
textLength="8.5144" font-size="2.0000" lengthAdjust="spacingAndGlyphs"
text-anchor="start" opacity="0" stroke-opacity="0">Id: 1/1</text>
<g class="stroked-text"><desc>Id: 1/1</desc>
<path d="M176.4645 134.5917
L176.4645 133.0917
" />
<path d="M177.8217 134.5917
L177.8217 133.0917
" />
<path d="M177.8217 134.5203
L177.6788 134.5917
" />
<path d="M177.6788 134.5917
L177.3931 134.5917
" />
<path d="M177.3931 134.5917
L177.2502 134.5203
" />
<path d="M177.2502 134.5203
L177.1788 134.4488
" />
<path d="M177.1788 134.4488
L177.1074 134.3060
" />
<path d="M177.1074 134.3060
L177.1074 133.8774
" />
<path d="M177.1074 133.8774
L177.1788 133.7345
" />
<path d="M177.1788 133.7345
L177.2502 133.6631
" />
<path d="M177.2502 133.6631
L177.3931 133.5917
" />
<path d="M177.3931 133.5917
L177.6788 133.5917
" />
<path d="M177.6788 133.5917
L177.8217 133.6631
" />
<path d="M178.5359 134.4488
L178.6073 134.5203
" />
<path d="M178.6073 134.5203
L178.5359 134.5917
" />
<path d="M178.5359 134.5917
L178.4645 134.5203
" />
<path d="M178.4645 134.5203
L178.5359 134.4488
" />
<path d="M178.5359 134.4488
L178.5359 134.5917
" />
<path d="M178.5359 133.6631
L178.6073 133.7345
" />
<path d="M178.6073 133.7345
L178.5359 133.8060
" />
<path d="M178.5359 133.8060
L178.4645 133.7345
" />
<path d="M178.4645 133.7345
L178.5359 133.6631
" />
<path d="M178.5359 133.6631
L178.5359 133.8060
" />
<path d="M181.1788 134.5917
L180.3217 134.5917
" />
<path d="M180.7502 134.5917
L180.7502 133.0917
" />
<path d="M180.7502 133.0917
L180.6074 133.3060
" />
<path d="M180.6074 133.3060
L180.4645 133.4488
" />
<path d="M180.4645 133.4488
L180.3217 133.5203
" />
<path d="M182.8931 133.0203
L181.6074 134.9488
" />
<path d="M184.1788 134.5917
L183.3217 134.5917
" />
<path d="M183.7502 134.5917
L183.7502 133.0917
" />
<path d="M183.7502 133.0917
L183.6074 133.3060
" />
<path d="M183.6074 133.3060
L183.4645 133.4488
" />
<path d="M183.4645 133.4488
L183.3217 133.5203
" />
</g><path d="M90.0072 125.5058
L198.0072 125.5058
" />
</g>
<g style="fill:none; 
stroke:#840000; stroke-width:0.4000; stroke-opacity:1; 
stroke-linecap:round; stroke-linejoin:round;">
<text x="91.0072" y="128.3058"
textLength="9.6572" font-size="2.6666" lengthAdjust="spacingAndGlyphs"
text-anchor="start" opacity="0" stroke-opacity="0">Title: </text>
<g class="stroked-text"><desc>Title: </desc>
<path d="M91.6988 126.2102
L92.8417 126.2102
" />
<path d="M92.0203 128.2102
L92.2703 126.2102
" />
<path d="M93.2583 128.2102
L93.4250 126.8769
" />
<path d="M93.5083 126.2102
L93.4012 126.3054
" />
<path d="M93.4012 126.3054
L93.4845 126.4007
" />
<path d="M93.4845 126.4007
L93.5917 126.3054
" />
<path d="M93.5917 126.3054
L93.5083 126.2102
" />
<path d="M93.5083 126.2102
L93.4845 126.4007
" />
<path d="M94.0917 126.8769
L94.8536 126.8769
" />
<path d="M94.4607 126.2102
L94.2465 127.9245
" />
<path d="M94.2465 127.9245
L94.3179 128.1150
" />
<path d="M94.3179 128.1150
L94.4965 128.2102
" />
<path d="M94.4965 128.2102
L94.6869 128.2102
" />
<path d="M95.6394 128.2102
L95.4608 128.1150
" />
<path d="M95.4608 128.1150
L95.3894 127.9245
" />
<path d="M95.3894 127.9245
L95.6036 126.2102
" />
<path d="M97.1750 128.1150
L96.9727 128.2102
" />
<path d="M96.9727 128.2102
L96.5917 128.2102
" />
<path d="M96.5917 128.2102
L96.4131 128.1150
" />
<path d="M96.4131 128.1150
L96.3417 127.9245
" />
<path d="M96.3417 127.9245
L96.4370 127.1626
" />
<path d="M96.4370 127.1626
L96.5560 126.9721
" />
<path d="M96.5560 126.9721
L96.7584 126.8769
" />
<path d="M96.7584 126.8769
L97.1393 126.8769
" />
<path d="M97.1393 126.8769
L97.3179 126.9721
" />
<path d="M97.3179 126.9721
L97.3893 127.1626
" />
<path d="M97.3893 127.1626
L97.3655 127.3530
" />
<path d="M97.3655 127.3530
L96.3893 127.5435
" />
<path d="M98.1393 128.0197
L98.2227 128.1150
" />
<path d="M98.2227 128.1150
L98.1155 128.2102
" />
<path d="M98.1155 128.2102
L98.0322 128.1150
" />
<path d="M98.0322 128.1150
L98.1393 128.0197
" />
<path d="M98.1393 128.0197
L98.1155 128.2102
" />
<path d="M98.2703 126.9721
L98.3536 127.0673
" />
<path d="M98.3536 127.0673
L98.2465 127.1626
" />
<path d="M98.2465 127.1626
L98.1632 127.0673
" />
<path d="M98.1632 127.0673
L98.2703 126.9721
" />
<path d="M98.2703 126.9721
L98.2465 127.1626
" />
</g></g>
<g style="fill:none; 
stroke:#840000; stroke-width:0.1524; stroke-opacity:1; 
stroke-linecap:round; stroke-linejoin:round;">
<text x="91.0072" y="124.4558"
textLength="41.0142" font-size="2.0000" lengthAdjust="spacingAndGlyphs"
text-anchor="start" opacity="0" stroke-opacity="0">File: Resistors in parallel.kicad_sch</text>
<g class="stroked-text"><desc>File: Resistors in parallel.kicad_sch</desc>
<path d="M91.9645 123.6060
L91.4645 123.6060
" />
<path d="M91.4645 124.3917
L91.4645 122.8917
" />
<path d="M91.4645 122.8917
L92.1788 122.8917
" />
<path d="M92.7502 124.3917
L92.7502 123.3917
" />
<path d="M92.7502 122.8917
L92.6788 122.9631
" />
<path d="M92.6788 122.9631
L92.7502 123.0345
" />
<path d="M92.7502 123.0345
L92.8216 122.9631
" />
<path d="M92.8216 122.9631
L92.7502 122.8917
" />
<path d="M92.7502 122.8917
L92.7502 123.0345
" />
<path d="M93.6788 124.3917
L93.5359 124.3203
" />
<path d="M93.5359 124.3203
L93.4645 124.1774
" />
<path d="M93.4645 124.1774
L93.4645 122.8917
" />
<path d="M94.8216 124.3203
L94.6788 124.3917
" />
<path d="M94.6788 124.3917
L94.3931 124.3917
" />
<path d="M94.3931 124.3917
L94.2502 124.3203
" />
<path d="M94.2502 124.3203
L94.1788 124.1774
" />
<path d="M94.1788 124.1774
L94.1788 123.6060
" />
<path d="M94.1788 123.6060
L94.2502 123.4631
" />
<path d="M94.2502 123.4631
L94.3931 123.3917
" />
<path d="M94.3931 123.3917
L94.6788 123.3917
" />
<path d="M94.6788 123.3917
L94.8216 123.4631
" />
<path d="M94.8216 123.4631
L94.8931 123.6060
" />
<path d="M94.8931 123.6060
L94.8931 123.7488
" />
<path d="M94.8931 123.7488
L94.1788 123.8917
" />
<path d="M95.5359 124.2488
L95.6073 124.3203
" />
<path d="M95.6073 124.3203
L95.5359 124.3917
" />
<path d="M95.5359 124.3917
L95.4645 124.3203
" />
<path d="M95.4645 124.3203
L95.5359 124.2488
" />
<path d="M95.5359 124.2488
L95.5359 124.3917
" />
<path d="M95.5359 123.4631
L95.6073 123.5345
" />
<path d="M95.6073 123.5345
L95.5359 123.6060
" />
<path d="M95.5359 123.6060
L95.4645 123.5345
" />
<path d="M95.4645 123.5345
L95.5359 123.4631
" />
<path d="M95.5359 123.4631
L95.5359 123.6060
" />
<path d="M98.2502 124.3917
L97.7502 123.6774
" />
<path d="M97.3931 124.3917
L97.3931 122.8917
" />
<path d="M97.3931 122.8917
L97.9645 122.8917
" />
<path d="M97.9645 122.8917
L98.1074 122.9631
" />
<path d="M98.1074 122.9631
L98.1788 123.0345
" />
<path d="M98.1788 123.0345
L98.2502 123.1774
" />
<path d="M98.2502 123.1774
L98.2502 123.3917
" />
<path d="M98.2502 123.3917
L98.1788 123.5345
" />
<path d="M98.1788 123.5345
L98.1074 123.6060
" />
<path d="M98.1074 123.6060
L97.9645 123.6774
" />
<path d="M97.9645 123.6774
L97.3931 123.6774
" />
<path d="M99.4645 124.3203
L99.3217 124.3917
" />
<path d="M99.3217 124.3917
L99.0360 124.3917
" />
<path d="M99.0360 124.3917
L98.8931 124.3203
" />
<path d="M98.8931 124.3203
L98.8217 124.1774
" />
<path d="M98.8217 124.1774
L98.8217 123.6060
" />
<path d="M98.8217 123.6060
L98.8931 123.4631
" />
<path d="M98.8931 123.4631
L99.0360 123.3917
" />
<path d="M99.0360 123.3917
L99.3217 123.3917
" />
<path d="M99.3217 123.3917
L99.4645 123.4631
" />
<path d="M99.4645 123.4631
L99.5360 123.6060
" />
<path d="M99.5360 123.6060
L99.5360 123.7488
" />
<path d="M99.5360 123.7488
L98.8217 123.8917
" />
<path d="M100.1074 124.3203
L100.2502 124.3917
" />
<path d="M100.2502 124.3917
L100.5359 124.3917
" />
<path d="M100.5359 124.3917
L100.6788 124.3203
" />
<path d="M100.6788 124.3203
L100.7502 124.1774
" />
<path d="M100.7502 124.1774
L100.7502 124.1060
" />
<path d="M100.7502 124.1060
L100.6788 123.9631
" />
<path d="M100.6788 123.9631
L100.5359 123.8917
" />
<path d="M100.5359 123.8917
L100.3217 123.8917
" />
<path d="M100.3217 123.8917
L100.1788 123.8203
" />
<path d="M100.1788 123.8203
L100.1074 123.6774
" />
<path d="M100.1074 123.6774
L100.1074 123.6060
" />
<path d="M100.1074 123.6060
L100.1788 123.4631
" />
<path d="M100.1788 123.4631
L100.3217 123.3917
" />
<path d="M100.3217 123.3917
L100.5359 123.3917
" />
<path d="M100.5359 123.3917
L100.6788 123.4631
" />
<path d="M101.3931 124.3917
L101.3931 123.3917
" />
<path d="M101.3931 122.8917
L101.3217 122.9631
" />
<path d="M101.3217 122.9631
L101.3931 123.0345
" />
<path d="M101.3931 123.0345
L101.4645 122.9631
" />
<path d="M101.4645 122.9631
L101.3931 122.8917
" />
<path d="M101.3931 122.8917
L101.3931 123.0345
" />
<path d="M102.0360 124.3203
L102.1788 124.3917
" />
<path d="M102.1788 124.3917
L102.4645 124.3917
" />
<path d="M102.4645 124.3917
L102.6074 124.3203
" />
<path d="M102.6074 124.3203
L102.6788 124.1774
" />
<path d="M102.6788 124.1774
L102.6788 124.1060
" />
<path d="M102.6788 124.1060
L102.6074 123.9631
" />
<path d="M102.6074 123.9631
L102.4645 123.8917
" />
<path d="M102.4645 123.8917
L102.2503 123.8917
" />
<path d="M102.2503 123.8917
L102.1074 123.8203
" />
<path d="M102.1074 123.8203
L102.0360 123.6774
" />
<path d="M102.0360 123.6774
L102.0360 123.6060
" />
<path d="M102.0360 123.6060
L102.1074 123.4631
" />
<path d="M102.1074 123.4631
L102.2503 123.3917
" />
<path d="M102.2503 123.3917
L102.4645 123.3917
" />
<path d="M102.4645 123.3917
L102.6074 123.4631
" />
<path d="M103.1074 123.3917
L103.6788 123.3917
" />
<path d="M103.3217 122.8917
L103.3217 124.1774
" />
<path d="M103.3217 124.1774
L103.3931 124.3203
" />
<path d="M103.3931 124.3203
L103.5360 124.3917
" />
<path d="M103.5360 124.3917
L103.6788 124.3917
" />
<path d="M104.3931 124.3917
L104.2502 124.3203
" />
<path d="M104.2502 124.3203
L104.1788 124.2488
" />
<path d="M104.1788 124.2488
L104.1074 124.1060
" />
<path d="M104.1074 124.1060
L104.1074 123.6774
" />
<path d="M104.1074 123.6774
L104.1788 123.5345
" />
<path d="M104.1788 123.5345
L104.2502 123.4631
" />
<path d="M104.2502 123.4631
L104.3931 123.3917
" />
<path d="M104.3931 123.3917
L104.6074 123.3917
" />
<path d="M104.6074 123.3917
L104.7502 123.4631
" />
<path d="M104.7502 123.4631
L104.8217 123.5345
" />
<path d="M104.8217 123.5345
L104.8931 123.6774
" />
<path d="M104.8931 123.6774
L104.8931 124.1060
" />
<path d="M104.8931 124.1060
L104.8217 124.2488
" />
<path d="M104.8217 124.2488
L104.7502 124.3203
" />
<path d="M104.7502 124.3203
L104.6074 124.3917
" />
<path d="M104.6074 124.3917
L104.3931 124.3917
" />
<path d="M105.5359 124.3917
L105.5359 123.3917
" />
<path d="M105.5359 123.6774
L105.6073 123.5345
" />
<path d="M105.6073 123.5345
L105.6788 123.4631
" />
<path d="M105.6788 123.4631
L105.8216 123.3917
" />
<path d="M105.8216 123.3917
L105.9645 123.3917
" />
<path d="M106.3931 124.3203
L106.5359 124.3917
" />
<path d="M106.5359 124.3917
L106.8216 124.3917
" />
<path d="M106.8216 124.3917
L106.9645 124.3203
" />
<path d="M106.9645 124.3203
L107.0359 124.1774
" />
<path d="M107.0359 124.1774
L107.0359 124.1060
" />
<path d="M107.0359 124.1060
L106.9645 123.9631
" />
<path d="M106.9645 123.9631
L106.8216 123.8917
" />
<path d="M106.8216 123.8917
L106.6074 123.8917
" />
<path d="M106.6074 123.8917
L106.4645 123.8203
" />
<path d="M106.4645 123.8203
L106.3931 123.6774
" />
<path d="M106.3931 123.6774
L106.3931 123.6060
" />
<path d="M106.3931 123.6060
L106.4645 123.4631
" />
<path d="M106.4645 123.4631
L106.6074 123.3917
" />
<path d="M106.6074 123.3917
L106.8216 123.3917
" />
<path d="M106.8216 123.3917
L106.9645 123.4631
" />
<path d="M108.8217 124.3917
L108.8217 123.3917
" />
<path d="M108.8217 122.8917
L108.7503 122.9631
" />
<path d="M108.7503 122.9631
L108.8217 123.0345
" />
<path d="M108.8217 123.0345
L108.8931 122.9631
" />
<path d="M108.8931 122.9631
L108.8217 122.8917
" />
<path d="M108.8217 122.8917
L108.8217 123.0345
" />
<path d="M109.5360 123.3917
L109.5360 124.3917
" />
<path d="M109.5360 123.5345
L109.6074 123.4631
" />
<path d="M109.6074 123.4631
L109.7503 123.3917
" />
<path d="M109.7503 123.3917
L109.9646 123.3917
" />
<path d="M109.9646 123.3917
L110.1074 123.4631
" />
<path d="M110.1074 123.4631
L110.1789 123.6060
" />
<path d="M110.1789 123.6060
L110.1789 124.3917
" />
<path d="M112.0360 123.3917
L112.0360 124.8917
" />
<path d="M112.0360 123.4631
L112.1789 123.3917
" />
<path d="M112.1789 123.3917
L112.4646 123.3917
" />
<path d="M112.4646 123.3917
L112.6074 123.4631
" />
<path d="M112.6074 123.4631
L112.6789 123.5345
" />
<path d="M112.6789 123.5345
L112.7503 123.6774
" />
<path d="M112.7503 123.6774
L112.7503 124.1060
" />
<path d="M112.7503 124.1060
L112.6789 124.2488
" />
<path d="M112.6789 124.2488
L112.6074 124.3203
" />
<path d="M112.6074 124.3203
L112.4646 124.3917
" />
<path d="M112.4646 124.3917
L112.1789 124.3917
" />
<path d="M112.1789 124.3917
L112.0360 124.3203
" />
<path d="M114.0360 124.3917
L114.0360 123.6060
" />
<path d="M114.0360 123.6060
L113.9645 123.4631
" />
<path d="M113.9645 123.4631
L113.8217 123.3917
" />
<path d="M113.8217 123.3917
L113.5360 123.3917
" />
<path d="M113.5360 123.3917
L113.3931 123.4631
" />
<path d="M114.0360 124.3203
L113.8931 124.3917
" />
<path d="M113.8931 124.3917
L113.5360 124.3917
" />
<path d="M113.5360 124.3917
L113.3931 124.3203
" />
<path d="M113.3931 124.3203
L113.3217 124.1774
" />
<path d="M113.3217 124.1774
L113.3217 124.0345
" />
<path d="M113.3217 124.0345
L113.3931 123.8917
" />
<path d="M113.3931 123.8917
L113.5360 123.8203
" />
<path d="M113.5360 123.8203
L113.8931 123.8203
" />
<path d="M113.8931 123.8203
L114.0360 123.7488
" />
<path d="M114.7502 124.3917
L114.7502 123.3917
" />
<path d="M114.7502 123.6774
L114.8216 123.5345
" />
<path d="M114.8216 123.5345
L114.8931 123.4631
" />
<path d="M114.8931 123.4631
L115.0359 123.3917
" />
<path d="M115.0359 123.3917
L115.1788 123.3917
" />
<path d="M116.3217 124.3917
L116.3217 123.6060
" />
<path d="M116.3217 123.6060
L116.2502 123.4631
" />
<path d="M116.2502 123.4631
L116.1074 123.3917
" />
<path d="M116.1074 123.3917
L115.8217 123.3917
" />
<path d="M115.8217 123.3917
L115.6788 123.4631
" />
<path d="M116.3217 124.3203
L116.1788 124.3917
" />
<path d="M116.1788 124.3917
L115.8217 124.3917
" />
<path d="M115.8217 124.3917
L115.6788 124.3203
" />
<path d="M115.6788 124.3203
L115.6074 124.1774
" />
<path d="M115.6074 124.1774
L115.6074 124.0345
" />
<path d="M115.6074 124.0345
L115.6788 123.8917
" />
<path d="M115.6788 123.8917
L115.8217 123.8203
" />
<path d="M115.8217 123.8203
L116.1788 123.8203
" />
<path d="M116.1788 123.8203
L116.3217 123.7488
" />
<path d="M117.2502 124.3917
L117.1073 124.3203
" />
<path d="M117.1073 124.3203
L117.0359 124.1774
" />
<path d="M117.0359 124.1774
L117.0359 122.8917
" />
<path d="M118.0359 124.3917
L117.8930 124.3203
" />
<path d="M117.8930 124.3203
L117.8216 124.1774
" />
<path d="M117.8216 124.1774
L117.8216 122.8917
" />
<path d="M119.1787 124.3203
L119.0359 124.3917
" />
<path d="M119.0359 124.3917
L118.7502 124.3917
" />
<path d="M118.7502 124.3917
L118.6073 124.3203
" />
<path d="M118.6073 124.3203
L118.5359 124.1774
" />
<path d="M118.5359 124.1774
L118.5359 123.6060
" />
<path d="M118.5359 123.6060
L118.6073 123.4631
" />
<path d="M118.6073 123.4631
L118.7502 123.3917
" />
<path d="M118.7502 123.3917
L119.0359 123.3917
" />
<path d="M119.0359 123.3917
L119.1787 123.4631
" />
<path d="M119.1787 123.4631
L119.2502 123.6060
" />
<path d="M119.2502 123.6060
L119.2502 123.7488
" />
<path d="M119.2502 123.7488
L118.5359 123.8917
" />
<path d="M120.1073 124.3917
L119.9644 124.3203
" />
<path d="M119.9644 124.3203
L119.8930 124.1774
" />
<path d="M119.8930 124.1774
L119.8930 122.8917
" />
<path d="M120.6787 124.2488
L120.7501 124.3203
" />
<path d="M120.7501 124.3203
L120.6787 124.3917
" />
<path d="M120.6787 124.3917
L120.6073 124.3203
" />
<path d="M120.6073 124.3203
L120.6787 124.2488
" />
<path d="M120.6787 124.2488
L120.6787 124.3917
" />
<path d="M121.3930 124.3917
L121.3930 122.8917
" />
<path d="M121.5359 123.8203
L121.9644 124.3917
" />
<path d="M121.9644 123.3917
L121.3930 123.9631
" />
<path d="M122.6073 124.3917
L122.6073 123.3917
" />
<path d="M122.6073 122.8917
L122.5359 122.9631
" />
<path d="M122.5359 122.9631
L122.6073 123.0345
" />
<path d="M122.6073 123.0345
L122.6787 122.9631
" />
<path d="M122.6787 122.9631
L122.6073 122.8917
" />
<path d="M122.6073 122.8917
L122.6073 123.0345
" />
<path d="M123.9645 124.3203
L123.8216 124.3917
" />
<path d="M123.8216 124.3917
L123.5359 124.3917
" />
<path d="M123.5359 124.3917
L123.3930 124.3203
" />
<path d="M123.3930 124.3203
L123.3216 124.2488
" />
<path d="M123.3216 124.2488
L123.2502 124.1060
" />
<path d="M123.2502 124.1060
L123.2502 123.6774
" />
<path d="M123.2502 123.6774
L123.3216 123.5345
" />
<path d="M123.3216 123.5345
L123.3930 123.4631
" />
<path d="M123.3930 123.4631
L123.5359 123.3917
" />
<path d="M123.5359 123.3917
L123.8216 123.3917
" />
<path d="M123.8216 123.3917
L123.9645 123.4631
" />
<path d="M125.2502 124.3917
L125.2502 123.6060
" />
<path d="M125.2502 123.6060
L125.1787 123.4631
" />
<path d="M125.1787 123.4631
L125.0359 123.3917
" />
<path d="M125.0359 123.3917
L124.7502 123.3917
" />
<path d="M124.7502 123.3917
L124.6073 123.4631
" />
<path d="M125.2502 124.3203
L125.1073 124.3917
" />
<path d="M125.1073 124.3917
L124.7502 124.3917
" />
<path d="M124.7502 124.3917
L124.6073 124.3203
" />
<path d="M124.6073 124.3203
L124.5359 124.1774
" />
<path d="M124.5359 124.1774
L124.5359 124.0345
" />
<path d="M124.5359 124.0345
L124.6073 123.8917
" />
<path d="M124.6073 123.8917
L124.7502 123.8203
" />
<path d="M124.7502 123.8203
L125.1073 123.8203
" />
<path d="M125.1073 123.8203
L125.2502 123.7488
" />
<path d="M126.6073 124.3917
L126.6073 122.8917
" />
<path d="M126.6073 124.3203
L126.4644 124.3917
" />
<path d="M126.4644 124.3917
L126.1787 124.3917
" />
<path d="M126.1787 124.3917
L126.0358 124.3203
" />
<path d="M126.0358 124.3203
L125.9644 124.2488
" />
<path d="M125.9644 124.2488
L125.8930 124.1060
" />
<path d="M125.8930 124.1060
L125.8930 123.6774
" />
<path d="M125.8930 123.6774
L125.9644 123.5345
" />
<path d="M125.9644 123.5345
L126.0358 123.4631
" />
<path d="M126.0358 123.4631
L126.1787 123.3917
" />
<path d="M126.1787 123.3917
L126.4644 123.3917
" />
<path d="M126.4644 123.3917
L126.6073 123.4631
" />
<path d="M126.9644 124.5345
L128.1072 124.5345
" />
<path d="M128.3930 124.3203
L128.5358 124.3917
" />
<path d="M128.5358 124.3917
L128.8215 124.3917
" />
<path d="M128.8215 124.3917
L128.9644 124.3203
" />
<path d="M128.9644 124.3203
L129.0358 124.1774
" />
<path d="M129.0358 124.1774
L129.0358 124.1060
" />
<path d="M129.0358 124.1060
L128.9644 123.9631
" />
<path d="M128.9644 123.9631
L128.8215 123.8917
" />
<path d="M128.8215 123.8917
L128.6073 123.8917
" />
<path d="M128.6073 123.8917
L128.4644 123.8203
" />
<path d="M128.4644 123.8203
L128.3930 123.6774
" />
<path d="M128.3930 123.6774
L128.3930 123.6060
" />
<path d="M128.3930 123.6060
L128.4644 123.4631
" />
<path d="M128.4644 123.4631
L128.6073 123.3917
" />
<path d="M128.6073 123.3917
L128.8215 123.3917
" />
<path d="M128.8215 123.3917
L128.9644 123.4631
" />
<path d="M130.3216 124.3203
L130.1787 124.3917
" />
<path d="M130.1787 124.3917
L129.8930 124.3917
" />
<path d="M129.8930 124.3917
L129.7501 124.3203
" />
<path d="M129.7501 124.3203
L129.6787 124.2488
" />
<path d="M129.6787 124.2488
L129.6073 124.1060
" />
<path d="M129.6073 124.1060
L129.6073 123.6774
" />
<path d="M129.6073 123.6774
L129.6787 123.5345
" />
<path d="M129.6787 123.5345
L129.7501 123.4631
" />
<path d="M129.7501 123.4631
L129.8930 123.3917
" />
<path d="M129.8930 123.3917
L130.1787 123.3917
" />
<path d="M130.1787 123.3917
L130.3216 123.4631
" />
<path d="M130.9644 124.3917
L130.9644 122.8917
" />
<path d="M131.6073 124.3917
L131.6073 123.6060
" />
<path d="M131.6073 123.6060
L131.5358 123.4631
" />
<path d="M131.5358 123.4631
L131.3930 123.3917
" />
<path d="M131.3930 123.3917
L131.1787 123.3917
" />
<path d="M131.1787 123.3917
L131.0358 123.4631
" />
<path d="M131.0358 123.4631
L130.9644 123.5345
" />
</g><path d="M90.0072 119.5058
L198.0072 119.5058
" />
<text x="91.0072" y="121.7558"
textLength="9.8000" font-size="2.0000" lengthAdjust="spacingAndGlyphs"
text-anchor="start" opacity="0" stroke-opacity="0">Sheet: /</text>
<g class="stroked-text"><desc>Sheet: /</desc>
<path d="M91.3931 121.6203
L91.6074 121.6917
" />
<path d="M91.6074 121.6917
L91.9645 121.6917
" />
<path d="M91.9645 121.6917
L92.1074 121.6203
" />
<path d="M92.1074 121.6203
L92.1788 121.5488
" />
<path d="M92.1788 121.5488
L92.2502 121.4060
" />
<path d="M92.2502 121.4060
L92.2502 121.2631
" />
<path d="M92.2502 121.2631
L92.1788 121.1203
" />
<path d="M92.1788 121.1203
L92.1074 121.0488
" />
<path d="M92.1074 121.0488
L91.9645 120.9774
" />
<path d="M91.9645 120.9774
L91.6788 120.9060
" />
<path d="M91.6788 120.9060
L91.5359 120.8345
" />
<path d="M91.5359 120.8345
L91.4645 120.7631
" />
<path d="M91.4645 120.7631
L91.3931 120.6203
" />
<path d="M91.3931 120.6203
L91.3931 120.4774
" />
<path d="M91.3931 120.4774
L91.4645 120.3345
" />
<path d="M91.4645 120.3345
L91.5359 120.2631
" />
<path d="M91.5359 120.2631
L91.6788 120.1917
" />
<path d="M91.6788 120.1917
L92.0359 120.1917
" />
<path d="M92.0359 120.1917
L92.2502 120.2631
" />
<path d="M92.8931 121.6917
L92.8931 120.1917
" />
<path d="M93.5360 121.6917
L93.5360 120.9060
" />
<path d="M93.5360 120.9060
L93.4645 120.7631
" />
<path d="M93.4645 120.7631
L93.3217 120.6917
" />
<path d="M93.3217 120.6917
L93.1074 120.6917
" />
<path d="M93.1074 120.6917
L92.9645 120.7631
" />
<path d="M92.9645 120.7631
L92.8931 120.8345
" />
<path d="M94.8216 121.6203
L94.6788 121.6917
" />
<path d="M94.6788 121.6917
L94.3931 121.6917
" />
<path d="M94.3931 121.6917
L94.2502 121.6203
" />
<path d="M94.2502 121.6203
L94.1788 121.4774
" />
<path d="M94.1788 121.4774
L94.1788 120.9060
" />
<path d="M94.1788 120.9060
L94.2502 120.7631
" />
<path d="M94.2502 120.7631
L94.3931 120.6917
" />
<path d="M94.3931 120.6917
L94.6788 120.6917
" />
<path d="M94.6788 120.6917
L94.8216 120.7631
" />
<path d="M94.8216 120.7631
L94.8931 120.9060
" />
<path d="M94.8931 120.9060
L94.8931 121.0488
" />
<path d="M94.8931 121.0488
L94.1788 121.1917
" />
<path d="M96.1073 121.6203
L95.9645 121.6917
" />
<path d="M95.9645 121.6917
L95.6788 121.6917
" />
<path d="M95.6788 121.6917
L95.5359 121.6203
" />
<path d="M95.5359 121.6203
L95.4645 121.4774
" />
<path d="M95.4645 121.4774
L95.4645 120.9060
" />
<path d="M95.4645 120.9060
L95.5359 120.7631
" />
<path d="M95.5359 120.7631
L95.6788 120.6917
" />
<path d="M95.6788 120.6917
L95.9645 120.6917
" />
<path d="M95.9645 120.6917
L96.1073 120.7631
" />
<path d="M96.1073 120.7631
L96.1788 120.9060
" />
<path d="M96.1788 120.9060
L96.1788 121.0488
" />
<path d="M96.1788 121.0488
L95.4645 121.1917
" />
<path d="M96.6073 120.6917
L97.1787 120.6917
" />
<path d="M96.8216 120.1917
L96.8216 121.4774
" />
<path d="M96.8216 121.4774
L96.8930 121.6203
" />
<path d="M96.8930 121.6203
L97.0359 121.6917
" />
<path d="M97.0359 121.6917
L97.1787 121.6917
" />
<path d="M97.6787 121.5488
L97.7501 121.6203
" />
<path d="M97.7501 121.6203
L97.6787 121.6917
" />
<path d="M97.6787 121.6917
L97.6073 121.6203
" />
<path d="M97.6073 121.6203
L97.6787 121.5488
" />
<path d="M97.6787 121.5488
L97.6787 121.6917
" />
<path d="M97.6787 120.7631
L97.7501 120.8345
" />
<path d="M97.7501 120.8345
L97.6787 120.9060
" />
<path d="M97.6787 120.9060
L97.6073 120.8345
" />
<path d="M97.6073 120.8345
L97.6787 120.7631
" />
<path d="M97.6787 120.7631
L97.6787 120.9060
" />
<path d="M100.6073 120.1203
L99.3216 122.0488
" />
</g></g>
<g style="fill:none; 
stroke:#840000; stroke-width:0.3000; stroke-opacity:1; 
stroke-linecap:round; stroke-linejoin:round;">
<text x="91.0072" y="118.7558"
textLength="0.9000" font-size="2.0000" lengthAdjust="spacingAndGlyphs"
text-anchor="start" opacity="0" stroke-opacity="0"></text>
<g class="stroked-text"><desc></desc>
</g></g>
<g style="fill:none; 
stroke:#840000; stroke-width:0.1524; stroke-opacity:1; 
stroke-linecap:round; stroke-linejoin:round;">
<text x="91.0072" y="115.7558"
textLength="0.4572" font-size="2.0000" lengthAdjust="spacingAndGlyphs"
text-anchor="start" opacity="0" stroke-opacity="0"></text>
<g class="stroked-text"><desc></desc>
</g><text x="91.0072" y="112.7558"
textLength="0.4572" font-size="2.0000" lengthAdjust="spacingAndGlyphs"
text-anchor="start" opacity="0" stroke-opacity="0"></text>
<g class="stroked-text"><desc></desc>
</g><text x="91.0072" y="109.7558"
textLength="0.4572" font-size="2.0000" lengthAdjust="spacingAndGlyphs"
text-anchor="start" opacity="0" stroke-opacity="0"></text>
<g class="stroked-text"><desc></desc>
</g><text x="91.0072" y="106.7558"
textLength="0.4572" font-size="2.0000" lengthAdjust="spacingAndGlyphs"
text-anchor="start" opacity="0" stroke-opacity="0"></text>
<g class="stroked-text"><desc></desc>
</g><path d="M110.0072 129.5058
L110.0072 132.5058
" />
<path d="M174.0072 129.5058
L174.0072 136.0058
" />
</g>
<g style="fill:none; 
stroke:#840000; stroke-width:0.2540; stroke-opacity:1; 
stroke-linecap:round; stroke-linejoin:round;">
<rect x="100.584000" y="54.610000" width="2.032000" height="5.080000" rx="0.000000" />
</g>
<g style="fill:none; 
stroke:#840000; stroke-width:0.1524; stroke-opacity:1; 
stroke-linecap:round; stroke-linejoin:round;">
<path d="M101.6000 54.6100
L101.6000 53.3400
" />
<path d="M101.6000 59.6900
L101.6000 60.9600
" />
</g>
<g style="fill:none; 
stroke:#006464; stroke-width:0.1524; stroke-opacity:1; 
stroke-linecap:round; stroke-linejoin:round;">
<text x="105.4909" y="56.5149"
textLength="2.6827" font-size="1.6933" lengthAdjust="spacingAndGlyphs"
text-anchor="middle" opacity="0" stroke-opacity="0">R3</text>
<g class="stroked-text"><desc>R3</desc>
<path d="M105.2792 56.4594
L104.8559 55.8547
" />
<path d="M104.5535 56.4594
L104.5535 55.1894
" />
<path d="M104.5535 55.1894
L105.0373 55.1894
" />
<path d="M105.0373 55.1894
L105.1583 55.2499
" />
<path d="M105.1583 55.2499
L105.2188 55.3104
" />
<path d="M105.2188 55.3104
L105.2792 55.4313
" />
<path d="M105.2792 55.4313
L105.2792 55.6128
" />
<path d="M105.2792 55.6128
L105.2188 55.7337
" />
<path d="M105.2188 55.7337
L105.1583 55.7942
" />
<path d="M105.1583 55.7942
L105.0373 55.8547
" />
<path d="M105.0373 55.8547
L104.5535 55.8547
" />
<path d="M105.7026 55.1894
L106.4888 55.1894
" />
<path d="M106.4888 55.1894
L106.0654 55.6732
" />
<path d="M106.0654 55.6732
L106.2469 55.6732
" />
<path d="M106.2469 55.6732
L106.3678 55.7337
" />
<path d="M106.3678 55.7337
L106.4283 55.7942
" />
<path d="M106.4283 55.7942
L106.4888 55.9151
" />
<path d="M106.4888 55.9151
L106.4888 56.2175
" />
<path d="M106.4888 56.2175
L106.4283 56.3385
" />
<path d="M106.4283 56.3385
L106.3678 56.3990
" />
<path d="M106.3678 56.3990
L106.2469 56.4594
" />
<path d="M106.2469 56.4594
L105.8840 56.4594
" />
<path d="M105.8840 56.4594
L105.7631 56.3990
" />
<path d="M105.7631 56.3990
L105.7026 56.3385
" />
</g><text x="106.0654" y="59.0549"
textLength="3.8317" font-size="1.6933" lengthAdjust="spacingAndGlyphs"
text-anchor="middle" opacity="0" stroke-opacity="0">300</text>
<g class="stroked-text"><desc>300</desc>
<path d="M104.4326 57.7294
L105.2188 57.7294
" />
<path d="M105.2188 57.7294
L104.7954 58.2132
" />
<path d="M104.7954 58.2132
L104.9769 58.2132
" />
<path d="M104.9769 58.2132
L105.0978 58.2737
" />
<path d="M105.0978 58.2737
L105.1583 58.3342
" />
<path d="M105.1583 58.3342
L105.2188 58.4551
" />
<path d="M105.2188 58.4551
L105.2188 58.7575
" />
<path d="M105.2188 58.7575
L105.1583 58.8785
" />
<path d="M105.1583 58.8785
L105.0978 58.9390
" />
<path d="M105.0978 58.9390
L104.9769 58.9994
" />
<path d="M104.9769 58.9994
L104.6140 58.9994
" />
<path d="M104.6140 58.9994
L104.4931 58.9390
" />
<path d="M104.4931 58.9390
L104.4326 58.8785
" />
<path d="M106.0049 57.7294
L106.1259 57.7294
" />
<path d="M106.1259 57.7294
L106.2468 57.7899
" />
<path d="M106.2468 57.7899
L106.3073 57.8504
" />
<path d="M106.3073 57.8504
L106.3678 57.9713
" />
<path d="M106.3678 57.9713
L106.4283 58.2132
" />
<path d="M106.4283 58.2132
L106.4283 58.5156
" />
<path d="M106.4283 58.5156
L106.3678 58.7575
" />
<path d="M106.3678 58.7575
L106.3073 58.8785
" />
<path d="M106.3073 58.8785
L106.2468 58.9390
" />
<path d="M106.2468 58.9390
L106.1259 58.9994
" />
<path d="M106.1259 58.9994
L106.0049 58.9994
" />
<path d="M106.0049 58.9994
L105.8840 58.9390
" />
<path d="M105.8840 58.9390
L105.8235 58.8785
" />
<path d="M105.8235 58.8785
L105.7630 58.7575
" />
<path d="M105.7630 58.7575
L105.7026 58.5156
" />
<path d="M105.7026 58.5156
L105.7026 58.2132
" />
<path d="M105.7026 58.2132
L105.7630 57.9713
" />
<path d="M105.7630 57.9713
L105.8235 57.8504
" />
<path d="M105.8235 57.8504
L105.8840 57.7899
" />
<path d="M105.8840 57.7899
L106.0049 57.7294
" />
<path d="M107.2144 57.7294
L107.3354 57.7294
" />
<path d="M107.3354 57.7294
L107.4563 57.7899
" />
<path d="M107.4563 57.7899
L107.5168 57.8504
" />
<path d="M107.5168 57.8504
L107.5773 57.9713
" />
<path d="M107.5773 57.9713
L107.6378 58.2132
" />
<path d="M107.6378 58.2132
L107.6378 58.5156
" />
<path d="M107.6378 58.5156
L107.5773 58.7575
" />
<path d="M107.5773 58.7575
L107.5168 58.8785
" />
<path d="M107.5168 58.8785
L107.4563 58.9390
" />
<path d="M107.4563 58.9390
L107.3354 58.9994
" />
<path d="M107.3354 58.9994
L107.2144 58.9994
" />
<path d="M107.2144 58.9994
L107.0935 58.9390
" />
<path d="M107.0935 58.9390
L107.0330 58.8785
" />
<path d="M107.0330 58.8785
L106.9725 58.7575
" />
<path d="M106.9725 58.7575
L106.9121 58.5156
" />
<path d="M106.9121 58.5156
L106.9121 58.2132
" />
<path d="M106.9121 58.2132
L106.9725 57.9713
" />
<path d="M106.9725 57.9713
L107.0330 57.8504
" />
<path d="M107.0330 57.8504
L107.0935 57.7899
" />
<path d="M107.0935 57.7899
L107.2144 57.7294
" />
</g></g>
<g style="fill:none; 
stroke:#840000; stroke-width:0.2540; stroke-opacity:1; 
stroke-linecap:round; stroke-linejoin:round;">
<rect x="75.184000" y="54.610000" width="2.032000" height="5.080000" rx="0.000000" />
</g>
<g style="fill:none; 
stroke:#840000; stroke-width:0.1524; stroke-opacity:1; 
stroke-linecap:round; stroke-linejoin:round;">
<path d="M76.2000 54.6100
L76.2000 53.3400
" />
<path d="M76.2000 59.6900
L76.2000 60.9600
" />
</g>
<g style="fill:none; 
stroke:#006464; stroke-width:0.1524; stroke-opacity:1; 
stroke-linecap:round; stroke-linejoin:round;">
<text x="80.0909" y="56.5149"
textLength="2.6827" font-size="1.6933" lengthAdjust="spacingAndGlyphs"
text-anchor="middle" opacity="0" stroke-opacity="0">R2</text>
<g class="stroked-text"><desc>R2</desc>
<path d="M79.8792 56.4594
L79.4559 55.8547
" />
<path d="M79.1535 56.4594
L79.1535 55.1894
" />
<path d="M79.1535 55.1894
L79.6373 55.1894
" />
<path d="M79.6373 55.1894
L79.7583 55.2499
" />
<path d="M79.7583 55.2499
L79.8188 55.3104
" />
<path d="M79.8188 55.3104
L79.8792 55.4313
" />
<path d="M79.8792 55.4313
L79.8792 55.6128
" />
<path d="M79.8792 55.6128
L79.8188 55.7337
" />
<path d="M79.8188 55.7337
L79.7583 55.7942
" />
<path d="M79.7583 55.7942
L79.6373 55.8547
" />
<path d="M79.6373 55.8547
L79.1535 55.8547
" />
<path d="M80.3631 55.3104
L80.4235 55.2499
" />
<path d="M80.4235 55.2499
L80.5445 55.1894
" />
<path d="M80.5445 55.1894
L80.8469 55.1894
" />
<path d="M80.8469 55.1894
L80.9678 55.2499
" />
<path d="M80.9678 55.2499
L81.0283 55.3104
" />
<path d="M81.0283 55.3104
L81.0888 55.4313
" />
<path d="M81.0888 55.4313
L81.0888 55.5523
" />
<path d="M81.0888 55.5523
L81.0283 55.7337
" />
<path d="M81.0283 55.7337
L80.3026 56.4594
" />
<path d="M80.3026 56.4594
L81.0888 56.4594
" />
</g><text x="80.6654" y="59.0549"
textLength="3.8317" font-size="1.6933" lengthAdjust="spacingAndGlyphs"
text-anchor="middle" opacity="0" stroke-opacity="0">200</text>
<g class="stroked-text"><desc>200</desc>
<path d="M79.0931 57.8504
L79.1535 57.7899
" />
<path d="M79.1535 57.7899
L79.2745 57.7294
" />
<path d="M79.2745 57.7294
L79.5769 57.7294
" />
<path d="M79.5769 57.7294
L79.6978 57.7899
" />
<path d="M79.6978 57.7899
L79.7583 57.8504
" />
<path d="M79.7583 57.8504
L79.8188 57.9713
" />
<path d="M79.8188 57.9713
L79.8188 58.0923
" />
<path d="M79.8188 58.0923
L79.7583 58.2737
" />
<path d="M79.7583 58.2737
L79.0326 58.9994
" />
<path d="M79.0326 58.9994
L79.8188 58.9994
" />
<path d="M80.6049 57.7294
L80.7259 57.7294
" />
<path d="M80.7259 57.7294
L80.8468 57.7899
" />
<path d="M80.8468 57.7899
L80.9073 57.8504
" />
<path d="M80.9073 57.8504
L80.9678 57.9713
" />
<path d="M80.9678 57.9713
L81.0283 58.2132
" />
<path d="M81.0283 58.2132
L81.0283 58.5156
" />
<path d="M81.0283 58.5156
L80.9678 58.7575
" />
<path d="M80.9678 58.7575
L80.9073 58.8785
" />
<path d="M80.9073 58.8785
L80.8468 58.9390
" />
<path d="M80.8468 58.9390
L80.7259 58.9994
" />
<path d="M80.7259 58.9994
L80.6049 58.9994
" />
<path d="M80.6049 58.9994
L80.4840 58.9390
" />
<path d="M80.4840 58.9390
L80.4235 58.8785
" />
<path d="M80.4235 58.8785
L80.3630 58.7575
" />
<path d="M80.3630 58.7575
L80.3026 58.5156
" />
<path d="M80.3026 58.5156
L80.3026 58.2132
" />
<path d="M80.3026 58.2132
L80.3630 57.9713
" />
<path d="M80.3630 57.9713
L80.4235 57.8504
" />
<path d="M80.4235 57.8504
L80.4840 57.7899
" />
<path d="M80.4840 57.7899
L80.6049 57.7294
" />
<path d="M81.8144 57.7294
L81.9354 57.7294
" />
<path d="M81.9354 57.7294
L82.0563 57.7899
" />
<path d="M82.0563 57.7899
L82.1168 57.8504
" />
<path d="M82.1168 57.8504
L82.1773 57.9713
" />
<path d="M82.1773 57.9713
L82.2378 58.2132
" />
<path d="M82.2378 58.2132
L82.2378 58.5156
" />
<path d="M82.2378 58.5156
L82.1773 58.7575
" />
<path d="M82.1773 58.7575
L82.1168 58.8785
" />
<path d="M82.1168 58.8785
L82.0563 58.9390
" />
<path d="M82.0563 58.9390
L81.9354 58.9994
" />
<path d="M81.9354 58.9994
L81.8144 58.9994
" />
<path d="M81.8144 58.9994
L81.6935 58.9390
" />
<path d="M81.6935 58.9390
L81.6330 58.8785
" />
<path d="M81.6330 58.8785
L81.5725 58.7575
" />
<path d="M81.5725 58.7575
L81.5121 58.5156
" />
<path d="M81.5121 58.5156
L81.5121 58.2132
" />
<path d="M81.5121 58.2132
L81.5725 57.9713
" />
<path d="M81.5725 57.9713
L81.6330 57.8504
" />
<path d="M81.6330 57.8504
L81.6935 57.7899
" />
<path d="M81.6935 57.7899
L81.8144 57.7294
" />
</g></g>
<g style="fill:#840000; fill-opacity:1.0000; 
stroke:#840000; stroke-width:0.1524; stroke-opacity:1; 
stroke-linecap:round; stroke-linejoin:round;">
<rect x="23.114000" y="56.642000" width="4.572000" height="0.254000" rx="0.000000" />
<rect x="23.876000" y="57.404000" width="3.048000" height="0.508000" rx="0.000000" />
<path style="fill:none; 
stroke:#840000; stroke-width:0.1524; stroke-opacity:1; 
stroke-linecap:round; stroke-linejoin:round;fill:none"
d="M 25.4000,56.6420
25.4000,55.8800
" /> 
<path style="fill:none; 
stroke:#840000; stroke-width:0.1524; stroke-opacity:1; 
stroke-linecap:round; stroke-linejoin:round;fill:none"
d="M 25.4000,57.6580
25.4000,58.4200
" /> 
<path style="fill:none; 
stroke:#840000; stroke-width:0.2540; stroke-opacity:1; 
stroke-linecap:round; stroke-linejoin:round;fill:none"
d="M 26.1620,55.3720
27.1780,55.3720
" /> 
<path style="fill:none; 
stroke:#840000; stroke-width:0.2540; stroke-opacity:1; 
stroke-linecap:round; stroke-linejoin:round;fill:none"
d="M 26.6700,54.8640
26.6700,55.8800
" /> 
</g>
<g style="fill:none; 
stroke:#840000; stroke-width:0.1524; stroke-opacity:1; 
stroke-linecap:round; stroke-linejoin:round;">
<path d="M25.4000 55.8800
L25.4000 53.3400
" />
<path d="M25.4000 58.4200
L25.4000 60.9600
" />
</g>
<g style="fill:none; 
stroke:#006464; stroke-width:0.1524; stroke-opacity:1; 
stroke-linecap:round; stroke-linejoin:round;">
<text x="31.0447" y="55.9434"
textLength="3.6503" font-size="1.6933" lengthAdjust="spacingAndGlyphs"
text-anchor="middle" opacity="0" stroke-opacity="0">BT1</text>
<g class="stroked-text"><desc>BT1</desc>
<path d="M30.0469 55.2227
L30.2283 55.2832
" />
<path d="M30.2283 55.2832
L30.2888 55.3436
" />
<path d="M30.2888 55.3436
L30.3492 55.4646
" />
<path d="M30.3492 55.4646
L30.3492 55.6460
" />
<path d="M30.3492 55.6460
L30.2888 55.7670
" />
<path d="M30.2888 55.7670
L30.2283 55.8275
" />
<path d="M30.2283 55.8275
L30.1073 55.8879
" />
<path d="M30.1073 55.8879
L29.6235 55.8879
" />
<path d="M29.6235 55.8879
L29.6235 54.6179
" />
<path d="M29.6235 54.6179
L30.0469 54.6179
" />
<path d="M30.0469 54.6179
L30.1678 54.6784
" />
<path d="M30.1678 54.6784
L30.2283 54.7389
" />
<path d="M30.2283 54.7389
L30.2888 54.8598
" />
<path d="M30.2888 54.8598
L30.2888 54.9808
" />
<path d="M30.2888 54.9808
L30.2283 55.1017
" />
<path d="M30.2283 55.1017
L30.1678 55.1622
" />
<path d="M30.1678 55.1622
L30.0469 55.2227
" />
<path d="M30.0469 55.2227
L29.6235 55.2227
" />
<path d="M30.7121 54.6179
L31.4378 54.6179
" />
<path d="M31.0750 55.8879
L31.0750 54.6179
" />
<path d="M32.5264 55.8879
L31.8007 55.8879
" />
<path d="M32.1635 55.8879
L32.1635 54.6179
" />
<path d="M32.1635 54.6179
L32.0426 54.7994
" />
<path d="M32.0426 54.7994
L31.9216 54.9203
" />
<path d="M31.9216 54.9203
L31.8007 54.9808
" />
</g><text x="30.4702" y="58.4834"
textLength="2.5013" font-size="1.6933" lengthAdjust="spacingAndGlyphs"
text-anchor="middle" opacity="0" stroke-opacity="0">9V</text>
<g class="stroked-text"><desc>9V</desc>
<path d="M29.6840 58.4279
L29.9259 58.4279
" />
<path d="M29.9259 58.4279
L30.0469 58.3675
" />
<path d="M30.0469 58.3675
L30.1073 58.3070
" />
<path d="M30.1073 58.3070
L30.2283 58.1255
" />
<path d="M30.2283 58.1255
L30.2888 57.8836
" />
<path d="M30.2888 57.8836
L30.2888 57.3998
" />
<path d="M30.2888 57.3998
L30.2283 57.2789
" />
<path d="M30.2283 57.2789
L30.1678 57.2184
" />
<path d="M30.1678 57.2184
L30.0469 57.1579
" />
<path d="M30.0469 57.1579
L29.8050 57.1579
" />
<path d="M29.8050 57.1579
L29.6840 57.2184
" />
<path d="M29.6840 57.2184
L29.6235 57.2789
" />
<path d="M29.6235 57.2789
L29.5631 57.3998
" />
<path d="M29.5631 57.3998
L29.5631 57.7022
" />
<path d="M29.5631 57.7022
L29.6235 57.8232
" />
<path d="M29.6235 57.8232
L29.6840 57.8836
" />
<path d="M29.6840 57.8836
L29.8050 57.9441
" />
<path d="M29.8050 57.9441
L30.0469 57.9441
" />
<path d="M30.0469 57.9441
L30.1678 57.8836
" />
<path d="M30.1678 57.8836
L30.2283 57.8232
" />
<path d="M30.2283 57.8232
L30.2888 57.7022
" />
<path d="M30.6516 57.1579
L31.0749 58.4279
" />
<path d="M31.0749 58.4279
L31.4983 57.1579
" />
</g></g>
<g style="fill:none; 
stroke:#840000; stroke-width:0.2540; stroke-opacity:1; 
stroke-linecap:round; stroke-linejoin:round;">
<rect x="49.784000" y="54.610000" width="2.032000" height="5.080000" rx="0.000000" />
</g>
<g style="fill:none; 
stroke:#840000; stroke-width:0.1524; stroke-opacity:1; 
stroke-linecap:round; stroke-linejoin:round;">
<path d="M50.8000 54.6100
L50.8000 53.3400
" />
<path d="M50.8000 59.6900
L50.8000 60.9600
" />
</g>
<g style="fill:none; 
stroke:#006464; stroke-width:0.1524; stroke-opacity:1; 
stroke-linecap:round; stroke-linejoin:round;">
<text x="54.6909" y="56.5149"
textLength="2.6827" font-size="1.6933" lengthAdjust="spacingAndGlyphs"
text-anchor="middle" opacity="0" stroke-opacity="0">R1</text>
<g class="stroked-text"><desc>R1</desc>
<path d="M54.4792 56.4594
L54.0559 55.8547
" />
<path d="M53.7535 56.4594
L53.7535 55.1894
" />
<path d="M53.7535 55.1894
L54.2373 55.1894
" />
<path d="M54.2373 55.1894
L54.3583 55.2499
" />
<path d="M54.3583 55.2499
L54.4188 55.3104
" />
<path d="M54.4188 55.3104
L54.4792 55.4313
" />
<path d="M54.4792 55.4313
L54.4792 55.6128
" />
<path d="M54.4792 55.6128
L54.4188 55.7337
" />
<path d="M54.4188 55.7337
L54.3583 55.7942
" />
<path d="M54.3583 55.7942
L54.2373 55.8547
" />
<path d="M54.2373 55.8547
L53.7535 55.8547
" />
<path d="M55.6888 56.4594
L54.9631 56.4594
" />
<path d="M55.3259 56.4594
L55.3259 55.1894
" />
<path d="M55.3259 55.1894
L55.2050 55.3709
" />
<path d="M55.2050 55.3709
L55.0840 55.4918
" />
<path d="M55.0840 55.4918
L54.9631 55.5523
" />
</g><text x="55.2654" y="59.0549"
textLength="3.8317" font-size="1.6933" lengthAdjust="spacingAndGlyphs"
text-anchor="middle" opacity="0" stroke-opacity="0">100</text>
<g class="stroked-text"><desc>100</desc>
<path d="M54.4188 58.9994
L53.6931 58.9994
" />
<path d="M54.0559 58.9994
L54.0559 57.7294
" />
<path d="M54.0559 57.7294
L53.9350 57.9109
" />
<path d="M53.9350 57.9109
L53.8140 58.0318
" />
<path d="M53.8140 58.0318
L53.6931 58.0923
" />
<path d="M55.2049 57.7294
L55.3259 57.7294
" />
<path d="M55.3259 57.7294
L55.4468 57.7899
" />
<path d="M55.4468 57.7899
L55.5073 57.8504
" />
<path d="M55.5073 57.8504
L55.5678 57.9713
" />
<path d="M55.5678 57.9713
L55.6283 58.2132
" />
<path d="M55.6283 58.2132
L55.6283 58.5156
" />
<path d="M55.6283 58.5156
L55.5678 58.7575
" />
<path d="M55.5678 58.7575
L55.5073 58.8785
" />
<path d="M55.5073 58.8785
L55.4468 58.9390
" />
<path d="M55.4468 58.9390
L55.3259 58.9994
" />
<path d="M55.3259 58.9994
L55.2049 58.9994
" />
<path d="M55.2049 58.9994
L55.0840 58.9390
" />
<path d="M55.0840 58.9390
L55.0235 58.8785
" />
<path d="M55.0235 58.8785
L54.9630 58.7575
" />
<path d="M54.9630 58.7575
L54.9026 58.5156
" />
<path d="M54.9026 58.5156
L54.9026 58.2132
" />
<path d="M54.9026 58.2132
L54.9630 57.9713
" />
<path d="M54.9630 57.9713
L55.0235 57.8504
" />
<path d="M55.0235 57.8504
L55.0840 57.7899
" />
<path d="M55.0840 57.7899
L55.2049 57.7294
" />
<path d="M56.4144 57.7294
L56.5354 57.7294
" />
<path d="M56.5354 57.7294
L56.6563 57.7899
" />
<path d="M56.6563 57.7899
L56.7168 57.8504
" />
<path d="M56.7168 57.8504
L56.7773 57.9713
" />
<path d="M56.7773 57.9713
L56.8378 58.2132
" />
<path d="M56.8378 58.2132
L56.8378 58.5156
" />
<path d="M56.8378 58.5156
L56.7773 58.7575
" />
<path d="M56.7773 58.7575
L56.7168 58.8785
" />
<path d="M56.7168 58.8785
L56.6563 58.9390
" />
<path d="M56.6563 58.9390
L56.5354 58.9994
" />
<path d="M56.5354 58.9994
L56.4144 58.9994
" />
<path d="M56.4144 58.9994
L56.2935 58.9390
" />
<path d="M56.2935 58.9390
L56.2330 58.8785
" />
<path d="M56.2330 58.8785
L56.1725 58.7575
" />
<path d="M56.1725 58.7575
L56.1121 58.5156
" />
<path d="M56.1121 58.5156
L56.1121 58.2132
" />
<path d="M56.1121 58.2132
L56.1725 57.9713
" />
<path d="M56.1725 57.9713
L56.2330 57.8504
" />
<path d="M56.2330 57.8504
L56.2935 57.7899
" />
<path d="M56.2935 57.7899
L56.4144 57.7294
" />
</g></g>
<g style="fill:none; 
stroke:#000084; stroke-width:0.3048; stroke-opacity:1; 
stroke-linecap:round; stroke-linejoin:round;">
<path d="M101.6000 38.1000
L101.6000 53.3400
" />
<path d="M76.2000 38.1000
L101.6000 38.1000
" />
<path d="M76.2000 76.2000
L101.6000 76.2000
" />
<path d="M76.2000 38.1000
L76.2000 53.3400
" />
<path d="M101.6000 60.9600
L101.6000 76.2000
" />
<path d="M50.8000 38.1000
L50.8000 53.3400
" />
<path d="M25.4000 53.3400
L25.4000 38.1000
" />
<path d="M25.4000 38.1000
L50.8000 38.1000
" />
<path d="M76.2000 60.9600
L76.2000 76.2000
" />
<path d="M50.8000 76.2000
L76.2000 76.2000
" />
<path d="M50.8000 38.1000
L76.2000 38.1000
" />
<path d="M25.4000 60.9600
L25.4000 76.2000
" />
<path d="M50.8000 76.2000
L25.4000 76.2000
" />
<path d="M50.8000 60.9600
L50.8000 76.2000
" />
</g>
<g style="fill:#000084; fill-opacity:1.0000; 
stroke:#000084; stroke-width:0.1524; stroke-opacity:1; 
stroke-linecap:round; stroke-linejoin:round;">
<circle cx="76.2000" cy="38.1000" r="0.4572" /> 
<circle cx="50.8000" cy="38.1000" r="0.4572" /> 
<circle cx="76.2000" cy="76.2000" r="0.4572" /> 
<circle cx="50.8000" cy="76.2000" r="0.4572" /> 
</g> 
</svg>
