<?xml version="1.0" standalone="no"?>
 <!DOCTYPE svg PUBLIC "-//W3C//DTD SVG 1.1//EN" 
 "http://www.w3.org/Graphics/SVG/1.1/DTD/svg11.dtd"> 
<svg
  xmlns:svg="http://www.w3.org/2000/svg"
  xmlns="http://www.w3.org/2000/svg"
  xmlns:xlink="http://www.w3.org/1999/xlink"
  xmlns:inkscape="http://www.inkscape.org/namespaces/inkscape"
  version="1.1"
  width="210.0072mm" height="148.0058mm" viewBox="0.0000 0.0000 210.0072 148.0058">
<title>SVG Image created as resistors_series_parallel_Rb1 - Copy.svg date 2026-07-16T19:06:47 </title>
  <desc>Image generated by Eeschema-SVG </desc>
<g style="fill:#000000; fill-opacity:1.0000;stroke:#000000; stroke-opacity:1.0000;
stroke-linecap:round; stroke-linejoin:round;"
 transform="translate(0 0) scale(1 1)">
</g>
<g style="fill:#F5F4EF; fill-opacity:1.0000; 
stroke:#F5F4EF; stroke-width:0.0001; stroke-opacity:1; 
stroke-linecap:round; stroke-linejoin:round;">
<rect x="0.000000" y="0.000000" width="210.007200" height="148.005800" rx="0.000000" />
</g>
<g style="fill:none; 
stroke:#840000; stroke-width:0.1524; stroke-opacity:1; 
stroke-linecap:round; stroke-linejoin:round;">
<path d="M90.0072 104.0058
L198.0072 104.0058
L198.0072 136.0058
L90.0072 136.0058
L90.0072 104.0058
" />
<path d="M10.0000 10.0000
L200.0072 10.0000
L200.0072 138.0058
L10.0000 138.0058
L10.0000 10.0000
" />
<path d="M12.0000 12.0000
L198.0072 12.0000
L198.0072 136.0058
L12.0000 136.0058
L12.0000 12.0000
" />
<path d="M60.0000 12.0000
L60.0000 10.0000
" />
<path d="M110.0000 12.0000
L110.0000 10.0000
" />
<path d="M160.0000 12.0000
L160.0000 10.0000
" />
<text x="35.0000" y="11.6500"
textLength="1.4353" font-size="1.7333" lengthAdjust="spacingAndGlyphs"
text-anchor="start" opacity="0" stroke-opacity="0">1</text>
<g class="stroked-text"><desc>1</desc>
<path d="M36.0906 11.5935
L35.3478 11.5935
" />
<path d="M35.7192 11.5935
L35.7192 10.2935
" />
<path d="M35.7192 10.2935
L35.5954 10.4792
" />
<path d="M35.5954 10.4792
L35.4716 10.6030
" />
<path d="M35.4716 10.6030
L35.3478 10.6649
" />
</g><text x="85.0000" y="11.6500"
textLength="1.4353" font-size="1.7333" lengthAdjust="spacingAndGlyphs"
text-anchor="start" opacity="0" stroke-opacity="0">2</text>
<g class="stroked-text"><desc>2</desc>
<path d="M85.3478 10.4173
L85.4097 10.3554
" />
<path d="M85.4097 10.3554
L85.5335 10.2935
" />
<path d="M85.5335 10.2935
L85.8430 10.2935
" />
<path d="M85.8430 10.2935
L85.9668 10.3554
" />
<path d="M85.9668 10.3554
L86.0287 10.4173
" />
<path d="M86.0287 10.4173
L86.0906 10.5411
" />
<path d="M86.0906 10.5411
L86.0906 10.6649
" />
<path d="M86.0906 10.6649
L86.0287 10.8506
" />
<path d="M86.0287 10.8506
L85.2859 11.5935
" />
<path d="M85.2859 11.5935
L86.0906 11.5935
" />
</g><text x="135.0000" y="11.6500"
textLength="1.4353" font-size="1.7333" lengthAdjust="spacingAndGlyphs"
text-anchor="start" opacity="0" stroke-opacity="0">3</text>
<g class="stroked-text"><desc>3</desc>
<path d="M135.2859 10.2935
L136.0906 10.2935
" />
<path d="M136.0906 10.2935
L135.6573 10.7887
" />
<path d="M135.6573 10.7887
L135.8430 10.7887
" />
<path d="M135.8430 10.7887
L135.9668 10.8506
" />
<path d="M135.9668 10.8506
L136.0287 10.9125
" />
<path d="M136.0287 10.9125
L136.0906 11.0363
" />
<path d="M136.0906 11.0363
L136.0906 11.3458
" />
<path d="M136.0906 11.3458
L136.0287 11.4696
" />
<path d="M136.0287 11.4696
L135.9668 11.5316
" />
<path d="M135.9668 11.5316
L135.8430 11.5935
" />
<path d="M135.8430 11.5935
L135.4716 11.5935
" />
<path d="M135.4716 11.5935
L135.3478 11.5316
" />
<path d="M135.3478 11.5316
L135.2859 11.4696
" />
</g><text x="185.0000" y="11.6500"
textLength="1.4353" font-size="1.7333" lengthAdjust="spacingAndGlyphs"
text-anchor="start" opacity="0" stroke-opacity="0">4</text>
<g class="stroked-text"><desc>4</desc>
<path d="M185.9668 10.7268
L185.9668 11.5935
" />
<path d="M185.6573 10.2316
L185.3478 11.1601
" />
<path d="M185.3478 11.1601
L186.1525 11.1601
" />
</g><path d="M60.0000 136.0058
L60.0000 138.0058
" />
<path d="M110.0000 136.0058
L110.0000 138.0058
" />
<path d="M160.0000 136.0058
L160.0000 138.0058
" />
<text x="35.0000" y="137.6558"
textLength="1.4353" font-size="1.7333" lengthAdjust="spacingAndGlyphs"
text-anchor="start" opacity="0" stroke-opacity="0">1</text>
<g class="stroked-text"><desc>1</desc>
<path d="M36.0906 137.5993
L35.3478 137.5993
" />
<path d="M35.7192 137.5993
L35.7192 136.2993
" />
<path d="M35.7192 136.2993
L35.5954 136.4850
" />
<path d="M35.5954 136.4850
L35.4716 136.6088
" />
<path d="M35.4716 136.6088
L35.3478 136.6707
" />
</g><text x="85.0000" y="137.6558"
textLength="1.4353" font-size="1.7333" lengthAdjust="spacingAndGlyphs"
text-anchor="start" opacity="0" stroke-opacity="0">2</text>
<g class="stroked-text"><desc>2</desc>
<path d="M85.3478 136.4231
L85.4097 136.3612
" />
<path d="M85.4097 136.3612
L85.5335 136.2993
" />
<path d="M85.5335 136.2993
L85.8430 136.2993
" />
<path d="M85.8430 136.2993
L85.9668 136.3612
" />
<path d="M85.9668 136.3612
L86.0287 136.4231
" />
<path d="M86.0287 136.4231
L86.0906 136.5469
" />
<path d="M86.0906 136.5469
L86.0906 136.6707
" />
<path d="M86.0906 136.6707
L86.0287 136.8564
" />
<path d="M86.0287 136.8564
L85.2859 137.5993
" />
<path d="M85.2859 137.5993
L86.0906 137.5993
" />
</g><text x="135.0000" y="137.6558"
textLength="1.4353" font-size="1.7333" lengthAdjust="spacingAndGlyphs"
text-anchor="start" opacity="0" stroke-opacity="0">3</text>
<g class="stroked-text"><desc>3</desc>
<path d="M135.2859 136.2993
L136.0906 136.2993
" />
<path d="M136.0906 136.2993
L135.6573 136.7945
" />
<path d="M135.6573 136.7945
L135.8430 136.7945
" />
<path d="M135.8430 136.7945
L135.9668 136.8564
" />
<path d="M135.9668 136.8564
L136.0287 136.9183
" />
<path d="M136.0287 136.9183
L136.0906 137.0421
" />
<path d="M136.0906 137.0421
L136.0906 137.3516
" />
<path d="M136.0906 137.3516
L136.0287 137.4754
" />
<path d="M136.0287 137.4754
L135.9668 137.5374
" />
<path d="M135.9668 137.5374
L135.8430 137.5993
" />
<path d="M135.8430 137.5993
L135.4716 137.5993
" />
<path d="M135.4716 137.5993
L135.3478 137.5374
" />
<path d="M135.3478 137.5374
L135.2859 137.4754
" />
</g><text x="185.0000" y="137.6558"
textLength="1.4353" font-size="1.7333" lengthAdjust="spacingAndGlyphs"
text-anchor="start" opacity="0" stroke-opacity="0">4</text>
<g class="stroked-text"><desc>4</desc>
<path d="M185.9668 136.7326
L185.9668 137.5993
" />
<path d="M185.6573 136.2374
L185.3478 137.1659
" />
<path d="M185.3478 137.1659
L186.1525 137.1659
" />
</g><path d="M10.0000 60.0000
L12.0000 60.0000
" />
<path d="M10.0000 110.0000
L12.0000 110.0000
" />
<text x="11.0000" y="35.6500"
textLength="1.3115" font-size="1.7333" lengthAdjust="spacingAndGlyphs"
text-anchor="middle" opacity="0" stroke-opacity="0">A</text>
<g class="stroked-text"><desc>A</desc>
<path d="M10.6905 35.2220
L11.3095 35.2220
" />
<path d="M10.5667 35.5935
L11.0000 34.2935
" />
<path d="M11.0000 34.2935
L11.4333 35.5935
" />
</g><text x="11.0000" y="85.6500"
textLength="1.4972" font-size="1.7333" lengthAdjust="spacingAndGlyphs"
text-anchor="middle" opacity="0" stroke-opacity="0">B</text>
<g class="stroked-text"><desc>B</desc>
<path d="M11.0928 84.9125
L11.2785 84.9744
" />
<path d="M11.2785 84.9744
L11.3404 85.0363
" />
<path d="M11.3404 85.0363
L11.4023 85.1601
" />
<path d="M11.4023 85.1601
L11.4023 85.3458
" />
<path d="M11.4023 85.3458
L11.3404 85.4696
" />
<path d="M11.3404 85.4696
L11.2785 85.5316
" />
<path d="M11.2785 85.5316
L11.1547 85.5935
" />
<path d="M11.1547 85.5935
L10.6595 85.5935
" />
<path d="M10.6595 85.5935
L10.6595 84.2935
" />
<path d="M10.6595 84.2935
L11.0928 84.2935
" />
<path d="M11.0928 84.2935
L11.2166 84.3554
" />
<path d="M11.2166 84.3554
L11.2785 84.4173
" />
<path d="M11.2785 84.4173
L11.3404 84.5411
" />
<path d="M11.3404 84.5411
L11.3404 84.6649
" />
<path d="M11.3404 84.6649
L11.2785 84.7887
" />
<path d="M11.2785 84.7887
L11.2166 84.8506
" />
<path d="M11.2166 84.8506
L11.0928 84.9125
" />
<path d="M11.0928 84.9125
L10.6595 84.9125
" />
</g><text x="11.0000" y="135.6500"
textLength="1.4972" font-size="1.7333" lengthAdjust="spacingAndGlyphs"
text-anchor="middle" opacity="0" stroke-opacity="0">C</text>
<g class="stroked-text"><desc>C</desc>
<path d="M11.4023 135.4696
L11.3404 135.5316
" />
<path d="M11.3404 135.5316
L11.1547 135.5935
" />
<path d="M11.1547 135.5935
L11.0309 135.5935
" />
<path d="M11.0309 135.5935
L10.8452 135.5316
" />
<path d="M10.8452 135.5316
L10.7214 135.4077
" />
<path d="M10.7214 135.4077
L10.6595 135.2839
" />
<path d="M10.6595 135.2839
L10.5976 135.0363
" />
<path d="M10.5976 135.0363
L10.5976 134.8506
" />
<path d="M10.5976 134.8506
L10.6595 134.6030
" />
<path d="M10.6595 134.6030
L10.7214 134.4792
" />
<path d="M10.7214 134.4792
L10.8452 134.3554
" />
<path d="M10.8452 134.3554
L11.0309 134.2935
" />
<path d="M11.0309 134.2935
L11.1547 134.2935
" />
<path d="M11.1547 134.2935
L11.3404 134.3554
" />
<path d="M11.3404 134.3554
L11.4023 134.4173
" />
</g><path d="M200.0072 60.0000
L198.0072 60.0000
" />
<path d="M200.0072 110.0000
L198.0072 110.0000
" />
<text x="199.0072" y="35.6500"
textLength="1.3115" font-size="1.7333" lengthAdjust="spacingAndGlyphs"
text-anchor="middle" opacity="0" stroke-opacity="0">A</text>
<g class="stroked-text"><desc>A</desc>
<path d="M198.6977 35.2220
L199.3167 35.2220
" />
<path d="M198.5739 35.5935
L199.0072 34.2935
" />
<path d="M199.0072 34.2935
L199.4405 35.5935
" />
</g><text x="199.0072" y="85.6500"
textLength="1.4972" font-size="1.7333" lengthAdjust="spacingAndGlyphs"
text-anchor="middle" opacity="0" stroke-opacity="0">B</text>
<g class="stroked-text"><desc>B</desc>
<path d="M199.1000 84.9125
L199.2857 84.9744
" />
<path d="M199.2857 84.9744
L199.3476 85.0363
" />
<path d="M199.3476 85.0363
L199.4095 85.1601
" />
<path d="M199.4095 85.1601
L199.4095 85.3458
" />
<path d="M199.4095 85.3458
L199.3476 85.4696
" />
<path d="M199.3476 85.4696
L199.2857 85.5316
" />
<path d="M199.2857 85.5316
L199.1619 85.5935
" />
<path d="M199.1619 85.5935
L198.6667 85.5935
" />
<path d="M198.6667 85.5935
L198.6667 84.2935
" />
<path d="M198.6667 84.2935
L199.1000 84.2935
" />
<path d="M199.1000 84.2935
L199.2238 84.3554
" />
<path d="M199.2238 84.3554
L199.2857 84.4173
" />
<path d="M199.2857 84.4173
L199.3476 84.5411
" />
<path d="M199.3476 84.5411
L199.3476 84.6649
" />
<path d="M199.3476 84.6649
L199.2857 84.7887
" />
<path d="M199.2857 84.7887
L199.2238 84.8506
" />
<path d="M199.2238 84.8506
L199.1000 84.9125
" />
<path d="M199.1000 84.9125
L198.6667 84.9125
" />
</g><text x="199.0072" y="135.6500"
textLength="1.4972" font-size="1.7333" lengthAdjust="spacingAndGlyphs"
text-anchor="middle" opacity="0" stroke-opacity="0">C</text>
<g class="stroked-text"><desc>C</desc>
<path d="M199.4095 135.4696
L199.3476 135.5316
" />
<path d="M199.3476 135.5316
L199.1619 135.5935
" />
<path d="M199.1619 135.5935
L199.0381 135.5935
" />
<path d="M199.0381 135.5935
L198.8524 135.5316
" />
<path d="M198.8524 135.5316
L198.7286 135.4077
" />
<path d="M198.7286 135.4077
L198.6667 135.2839
" />
<path d="M198.6667 135.2839
L198.6048 135.0363
" />
<path d="M198.6048 135.0363
L198.6048 134.8506
" />
<path d="M198.6048 134.8506
L198.6667 134.6030
" />
<path d="M198.6667 134.6030
L198.7286 134.4792
" />
<path d="M198.7286 134.4792
L198.8524 134.3554
" />
<path d="M198.8524 134.3554
L199.0381 134.2935
" />
<path d="M199.0381 134.2935
L199.1619 134.2935
" />
<path d="M199.1619 134.2935
L199.3476 134.3554
" />
<path d="M199.3476 134.3554
L199.4095 134.4173
" />
</g><text x="113.0072" y="131.8558"
textLength="7.0143" font-size="2.0000" lengthAdjust="spacingAndGlyphs"
text-anchor="start" opacity="0" stroke-opacity="0">Date: </text>
<g class="stroked-text"><desc>Date: </desc>
<path d="M113.4645 131.7917
L113.4645 130.2917
" />
<path d="M113.4645 130.2917
L113.8216 130.2917
" />
<path d="M113.8216 130.2917
L114.0359 130.3631
" />
<path d="M114.0359 130.3631
L114.1788 130.5060
" />
<path d="M114.1788 130.5060
L114.2502 130.6488
" />
<path d="M114.2502 130.6488
L114.3216 130.9345
" />
<path d="M114.3216 130.9345
L114.3216 131.1488
" />
<path d="M114.3216 131.1488
L114.2502 131.4345
" />
<path d="M114.2502 131.4345
L114.1788 131.5774
" />
<path d="M114.1788 131.5774
L114.0359 131.7203
" />
<path d="M114.0359 131.7203
L113.8216 131.7917
" />
<path d="M113.8216 131.7917
L113.4645 131.7917
" />
<path d="M115.6074 131.7917
L115.6074 131.0060
" />
<path d="M115.6074 131.0060
L115.5359 130.8631
" />
<path d="M115.5359 130.8631
L115.3931 130.7917
" />
<path d="M115.3931 130.7917
L115.1074 130.7917
" />
<path d="M115.1074 130.7917
L114.9645 130.8631
" />
<path d="M115.6074 131.7203
L115.4645 131.7917
" />
<path d="M115.4645 131.7917
L115.1074 131.7917
" />
<path d="M115.1074 131.7917
L114.9645 131.7203
" />
<path d="M114.9645 131.7203
L114.8931 131.5774
" />
<path d="M114.8931 131.5774
L114.8931 131.4345
" />
<path d="M114.8931 131.4345
L114.9645 131.2917
" />
<path d="M114.9645 131.2917
L115.1074 131.2203
" />
<path d="M115.1074 131.2203
L115.4645 131.2203
" />
<path d="M115.4645 131.2203
L115.6074 131.1488
" />
<path d="M116.1073 130.7917
L116.6787 130.7917
" />
<path d="M116.3216 130.2917
L116.3216 131.5774
" />
<path d="M116.3216 131.5774
L116.3930 131.7203
" />
<path d="M116.3930 131.7203
L116.5359 131.7917
" />
<path d="M116.5359 131.7917
L116.6787 131.7917
" />
<path d="M117.7501 131.7203
L117.6073 131.7917
" />
<path d="M117.6073 131.7917
L117.3216 131.7917
" />
<path d="M117.3216 131.7917
L117.1787 131.7203
" />
<path d="M117.1787 131.7203
L117.1073 131.5774
" />
<path d="M117.1073 131.5774
L117.1073 131.0060
" />
<path d="M117.1073 131.0060
L117.1787 130.8631
" />
<path d="M117.1787 130.8631
L117.3216 130.7917
" />
<path d="M117.3216 130.7917
L117.6073 130.7917
" />
<path d="M117.6073 130.7917
L117.7501 130.8631
" />
<path d="M117.7501 130.8631
L117.8216 131.0060
" />
<path d="M117.8216 131.0060
L117.8216 131.1488
" />
<path d="M117.8216 131.1488
L117.1073 131.2917
" />
<path d="M118.4644 131.6488
L118.5358 131.7203
" />
<path d="M118.5358 131.7203
L118.4644 131.7917
" />
<path d="M118.4644 131.7917
L118.3930 131.7203
" />
<path d="M118.3930 131.7203
L118.4644 131.6488
" />
<path d="M118.4644 131.6488
L118.4644 131.7917
" />
<path d="M118.4644 130.8631
L118.5358 130.9345
" />
<path d="M118.5358 130.9345
L118.4644 131.0060
" />
<path d="M118.4644 131.0060
L118.3930 130.9345
" />
<path d="M118.3930 130.9345
L118.4644 130.8631
" />
<path d="M118.4644 130.8631
L118.4644 131.0060
" />
</g><path d="M90.0072 132.5058
L198.0072 132.5058
" />
<text x="91.0072" y="134.6558"
textLength="22.3002" font-size="2.0000" lengthAdjust="spacingAndGlyphs"
text-anchor="start" opacity="0" stroke-opacity="0">KiCad E.D.A. 10.0.4</text>
<g class="stroked-text"><desc>KiCad E.D.A. 10.0.4</desc>
<path d="M91.4645 134.5917
L91.4645 133.0917
" />
<path d="M92.3216 134.5917
L91.6788 133.7345
" />
<path d="M92.3216 133.0917
L91.4645 133.9488
" />
<path d="M92.9645 134.5917
L92.9645 133.5917
" />
<path d="M92.9645 133.0917
L92.8931 133.1631
" />
<path d="M92.8931 133.1631
L92.9645 133.2345
" />
<path d="M92.9645 133.2345
L93.0359 133.1631
" />
<path d="M93.0359 133.1631
L92.9645 133.0917
" />
<path d="M92.9645 133.0917
L92.9645 133.2345
" />
<path d="M94.5359 134.4488
L94.4645 134.5203
" />
<path d="M94.4645 134.5203
L94.2502 134.5917
" />
<path d="M94.2502 134.5917
L94.1074 134.5917
" />
<path d="M94.1074 134.5917
L93.8931 134.5203
" />
<path d="M93.8931 134.5203
L93.7502 134.3774
" />
<path d="M93.7502 134.3774
L93.6788 134.2345
" />
<path d="M93.6788 134.2345
L93.6074 133.9488
" />
<path d="M93.6074 133.9488
L93.6074 133.7345
" />
<path d="M93.6074 133.7345
L93.6788 133.4488
" />
<path d="M93.6788 133.4488
L93.7502 133.3060
" />
<path d="M93.7502 133.3060
L93.8931 133.1631
" />
<path d="M93.8931 133.1631
L94.1074 133.0917
" />
<path d="M94.1074 133.0917
L94.2502 133.0917
" />
<path d="M94.2502 133.0917
L94.4645 133.1631
" />
<path d="M94.4645 133.1631
L94.5359 133.2345
" />
<path d="M95.8217 134.5917
L95.8217 133.8060
" />
<path d="M95.8217 133.8060
L95.7502 133.6631
" />
<path d="M95.7502 133.6631
L95.6074 133.5917
" />
<path d="M95.6074 133.5917
L95.3217 133.5917
" />
<path d="M95.3217 133.5917
L95.1788 133.6631
" />
<path d="M95.8217 134.5203
L95.6788 134.5917
" />
<path d="M95.6788 134.5917
L95.3217 134.5917
" />
<path d="M95.3217 134.5917
L95.1788 134.5203
" />
<path d="M95.1788 134.5203
L95.1074 134.3774
" />
<path d="M95.1074 134.3774
L95.1074 134.2345
" />
<path d="M95.1074 134.2345
L95.1788 134.0917
" />
<path d="M95.1788 134.0917
L95.3217 134.0203
" />
<path d="M95.3217 134.0203
L95.6788 134.0203
" />
<path d="M95.6788 134.0203
L95.8217 133.9488
" />
<path d="M97.1788 134.5917
L97.1788 133.0917
" />
<path d="M97.1788 134.5203
L97.0359 134.5917
" />
<path d="M97.0359 134.5917
L96.7502 134.5917
" />
<path d="M96.7502 134.5917
L96.6073 134.5203
" />
<path d="M96.6073 134.5203
L96.5359 134.4488
" />
<path d="M96.5359 134.4488
L96.4645 134.3060
" />
<path d="M96.4645 134.3060
L96.4645 133.8774
" />
<path d="M96.4645 133.8774
L96.5359 133.7345
" />
<path d="M96.5359 133.7345
L96.6073 133.6631
" />
<path d="M96.6073 133.6631
L96.7502 133.5917
" />
<path d="M96.7502 133.5917
L97.0359 133.5917
" />
<path d="M97.0359 133.5917
L97.1788 133.6631
" />
<path d="M99.0359 133.8060
L99.5359 133.8060
" />
<path d="M99.7502 134.5917
L99.0359 134.5917
" />
<path d="M99.0359 134.5917
L99.0359 133.0917
" />
<path d="M99.0359 133.0917
L99.7502 133.0917
" />
<path d="M100.3930 134.4488
L100.4644 134.5203
" />
<path d="M100.4644 134.5203
L100.3930 134.5917
" />
<path d="M100.3930 134.5917
L100.3216 134.5203
" />
<path d="M100.3216 134.5203
L100.3930 134.4488
" />
<path d="M100.3930 134.4488
L100.3930 134.5917
" />
<path d="M101.1073 134.5917
L101.1073 133.0917
" />
<path d="M101.1073 133.0917
L101.4644 133.0917
" />
<path d="M101.4644 133.0917
L101.6787 133.1631
" />
<path d="M101.6787 133.1631
L101.8216 133.3060
" />
<path d="M101.8216 133.3060
L101.8930 133.4488
" />
<path d="M101.8930 133.4488
L101.9644 133.7345
" />
<path d="M101.9644 133.7345
L101.9644 133.9488
" />
<path d="M101.9644 133.9488
L101.8930 134.2345
" />
<path d="M101.8930 134.2345
L101.8216 134.3774
" />
<path d="M101.8216 134.3774
L101.6787 134.5203
" />
<path d="M101.6787 134.5203
L101.4644 134.5917
" />
<path d="M101.4644 134.5917
L101.1073 134.5917
" />
<path d="M102.6073 134.4488
L102.6787 134.5203
" />
<path d="M102.6787 134.5203
L102.6073 134.5917
" />
<path d="M102.6073 134.5917
L102.5359 134.5203
" />
<path d="M102.5359 134.5203
L102.6073 134.4488
" />
<path d="M102.6073 134.4488
L102.6073 134.5917
" />
<path d="M103.2502 134.1631
L103.9645 134.1631
" />
<path d="M103.1073 134.5917
L103.6073 133.0917
" />
<path d="M103.6073 133.0917
L104.1073 134.5917
" />
<path d="M104.6073 134.4488
L104.6787 134.5203
" />
<path d="M104.6787 134.5203
L104.6073 134.5917
" />
<path d="M104.6073 134.5917
L104.5359 134.5203
" />
<path d="M104.5359 134.5203
L104.6073 134.4488
" />
<path d="M104.6073 134.4488
L104.6073 134.5917
" />
<path d="M107.2502 134.5917
L106.3931 134.5917
" />
<path d="M106.8216 134.5917
L106.8216 133.0917
" />
<path d="M106.8216 133.0917
L106.6788 133.3060
" />
<path d="M106.6788 133.3060
L106.5359 133.4488
" />
<path d="M106.5359 133.4488
L106.3931 133.5203
" />
<path d="M108.1788 133.0917
L108.3217 133.0917
" />
<path d="M108.3217 133.0917
L108.4645 133.1631
" />
<path d="M108.4645 133.1631
L108.5360 133.2345
" />
<path d="M108.5360 133.2345
L108.6074 133.3774
" />
<path d="M108.6074 133.3774
L108.6788 133.6631
" />
<path d="M108.6788 133.6631
L108.6788 134.0203
" />
<path d="M108.6788 134.0203
L108.6074 134.3060
" />
<path d="M108.6074 134.3060
L108.5360 134.4488
" />
<path d="M108.5360 134.4488
L108.4645 134.5203
" />
<path d="M108.4645 134.5203
L108.3217 134.5917
" />
<path d="M108.3217 134.5917
L108.1788 134.5917
" />
<path d="M108.1788 134.5917
L108.0360 134.5203
" />
<path d="M108.0360 134.5203
L107.9645 134.4488
" />
<path d="M107.9645 134.4488
L107.8931 134.3060
" />
<path d="M107.8931 134.3060
L107.8217 134.0203
" />
<path d="M107.8217 134.0203
L107.8217 133.6631
" />
<path d="M107.8217 133.6631
L107.8931 133.3774
" />
<path d="M107.8931 133.3774
L107.9645 133.2345
" />
<path d="M107.9645 133.2345
L108.0360 133.1631
" />
<path d="M108.0360 133.1631
L108.1788 133.0917
" />
<path d="M109.3217 134.4488
L109.3931 134.5203
" />
<path d="M109.3931 134.5203
L109.3217 134.5917
" />
<path d="M109.3217 134.5917
L109.2503 134.5203
" />
<path d="M109.2503 134.5203
L109.3217 134.4488
" />
<path d="M109.3217 134.4488
L109.3217 134.5917
" />
<path d="M110.3217 133.0917
L110.4646 133.0917
" />
<path d="M110.4646 133.0917
L110.6074 133.1631
" />
<path d="M110.6074 133.1631
L110.6789 133.2345
" />
<path d="M110.6789 133.2345
L110.7503 133.3774
" />
<path d="M110.7503 133.3774
L110.8217 133.6631
" />
<path d="M110.8217 133.6631
L110.8217 134.0203
" />
<path d="M110.8217 134.0203
L110.7503 134.3060
" />
<path d="M110.7503 134.3060
L110.6789 134.4488
" />
<path d="M110.6789 134.4488
L110.6074 134.5203
" />
<path d="M110.6074 134.5203
L110.4646 134.5917
" />
<path d="M110.4646 134.5917
L110.3217 134.5917
" />
<path d="M110.3217 134.5917
L110.1789 134.5203
" />
<path d="M110.1789 134.5203
L110.1074 134.4488
" />
<path d="M110.1074 134.4488
L110.0360 134.3060
" />
<path d="M110.0360 134.3060
L109.9646 134.0203
" />
<path d="M109.9646 134.0203
L109.9646 133.6631
" />
<path d="M109.9646 133.6631
L110.0360 133.3774
" />
<path d="M110.0360 133.3774
L110.1074 133.2345
" />
<path d="M110.1074 133.2345
L110.1789 133.1631
" />
<path d="M110.1789 133.1631
L110.3217 133.0917
" />
<path d="M111.4646 134.4488
L111.5360 134.5203
" />
<path d="M111.5360 134.5203
L111.4646 134.5917
" />
<path d="M111.4646 134.5917
L111.3932 134.5203
" />
<path d="M111.3932 134.5203
L111.4646 134.4488
" />
<path d="M111.4646 134.4488
L111.4646 134.5917
" />
<path d="M112.8218 133.5917
L112.8218 134.5917
" />
<path d="M112.4646 133.0203
L112.1075 134.0917
" />
<path d="M112.1075 134.0917
L113.0360 134.0917
" />
</g><path d="M90.0072 129.5058
L198.0072 129.5058
" />
</g>
<g style="fill:none; 
stroke:#840000; stroke-width:0.3000; stroke-opacity:1; 
stroke-linecap:round; stroke-linejoin:round;">
<text x="176.0072" y="131.8558"
textLength="6.3858" font-size="2.0000" lengthAdjust="spacingAndGlyphs"
text-anchor="start" opacity="0" stroke-opacity="0">Rev: </text>
<g class="stroked-text"><desc>Rev: </desc>
<path d="M177.4187 131.7841
L176.9187 131.0698
" />
<path d="M176.5616 131.7841
L176.5616 130.2841
" />
<path d="M176.5616 130.2841
L177.1330 130.2841
" />
<path d="M177.1330 130.2841
L177.2759 130.3555
" />
<path d="M177.2759 130.3555
L177.3473 130.4269
" />
<path d="M177.3473 130.4269
L177.4187 130.5698
" />
<path d="M177.4187 130.5698
L177.4187 130.7841
" />
<path d="M177.4187 130.7841
L177.3473 130.9269
" />
<path d="M177.3473 130.9269
L177.2759 130.9984
" />
<path d="M177.2759 130.9984
L177.1330 131.0698
" />
<path d="M177.1330 131.0698
L176.5616 131.0698
" />
<path d="M178.6330 131.7127
L178.4902 131.7841
" />
<path d="M178.4902 131.7841
L178.2045 131.7841
" />
<path d="M178.2045 131.7841
L178.0616 131.7127
" />
<path d="M178.0616 131.7127
L177.9902 131.5698
" />
<path d="M177.9902 131.5698
L177.9902 130.9984
" />
<path d="M177.9902 130.9984
L178.0616 130.8555
" />
<path d="M178.0616 130.8555
L178.2045 130.7841
" />
<path d="M178.2045 130.7841
L178.4902 130.7841
" />
<path d="M178.4902 130.7841
L178.6330 130.8555
" />
<path d="M178.6330 130.8555
L178.7045 130.9984
" />
<path d="M178.7045 130.9984
L178.7045 131.1412
" />
<path d="M178.7045 131.1412
L177.9902 131.2841
" />
<path d="M179.2044 130.7841
L179.5616 131.7841
" />
<path d="M179.5616 131.7841
L179.9187 130.7841
" />
<path d="M180.4902 131.6412
L180.5616 131.7127
" />
<path d="M180.5616 131.7127
L180.4902 131.7841
" />
<path d="M180.4902 131.7841
L180.4188 131.7127
" />
<path d="M180.4188 131.7127
L180.4902 131.6412
" />
<path d="M180.4902 131.6412
L180.4902 131.7841
" />
<path d="M180.4902 130.8555
L180.5616 130.9269
" />
<path d="M180.5616 130.9269
L180.4902 130.9984
" />
<path d="M180.4902 130.9984
L180.4188 130.9269
" />
<path d="M180.4188 130.9269
L180.4902 130.8555
" />
<path d="M180.4902 130.8555
L180.4902 130.9984
" />
</g></g>
<g style="fill:none; 
stroke:#840000; stroke-width:0.1524; stroke-opacity:1; 
stroke-linecap:round; stroke-linejoin:round;">
<text x="91.0072" y="131.8558"
textLength="9.3716" font-size="2.0000" lengthAdjust="spacingAndGlyphs"
text-anchor="start" opacity="0" stroke-opacity="0">Size: A5</text>
<g class="stroked-text"><desc>Size: A5</desc>
<path d="M91.3931 131.7203
L91.6074 131.7917
" />
<path d="M91.6074 131.7917
L91.9645 131.7917
" />
<path d="M91.9645 131.7917
L92.1074 131.7203
" />
<path d="M92.1074 131.7203
L92.1788 131.6488
" />
<path d="M92.1788 131.6488
L92.2502 131.5060
" />
<path d="M92.2502 131.5060
L92.2502 131.3631
" />
<path d="M92.2502 131.3631
L92.1788 131.2203
" />
<path d="M92.1788 131.2203
L92.1074 131.1488
" />
<path d="M92.1074 131.1488
L91.9645 131.0774
" />
<path d="M91.9645 131.0774
L91.6788 131.0060
" />
<path d="M91.6788 131.0060
L91.5359 130.9345
" />
<path d="M91.5359 130.9345
L91.4645 130.8631
" />
<path d="M91.4645 130.8631
L91.3931 130.7203
" />
<path d="M91.3931 130.7203
L91.3931 130.5774
" />
<path d="M91.3931 130.5774
L91.4645 130.4345
" />
<path d="M91.4645 130.4345
L91.5359 130.3631
" />
<path d="M91.5359 130.3631
L91.6788 130.2917
" />
<path d="M91.6788 130.2917
L92.0359 130.2917
" />
<path d="M92.0359 130.2917
L92.2502 130.3631
" />
<path d="M92.8931 131.7917
L92.8931 130.7917
" />
<path d="M92.8931 130.2917
L92.8217 130.3631
" />
<path d="M92.8217 130.3631
L92.8931 130.4345
" />
<path d="M92.8931 130.4345
L92.9645 130.3631
" />
<path d="M92.9645 130.3631
L92.8931 130.2917
" />
<path d="M92.8931 130.2917
L92.8931 130.4345
" />
<path d="M93.4645 130.7917
L94.2503 130.7917
" />
<path d="M94.2503 130.7917
L93.4645 131.7917
" />
<path d="M93.4645 131.7917
L94.2503 131.7917
" />
<path d="M95.3931 131.7203
L95.2503 131.7917
" />
<path d="M95.2503 131.7917
L94.9646 131.7917
" />
<path d="M94.9646 131.7917
L94.8217 131.7203
" />
<path d="M94.8217 131.7203
L94.7503 131.5774
" />
<path d="M94.7503 131.5774
L94.7503 131.0060
" />
<path d="M94.7503 131.0060
L94.8217 130.8631
" />
<path d="M94.8217 130.8631
L94.9646 130.7917
" />
<path d="M94.9646 130.7917
L95.2503 130.7917
" />
<path d="M95.2503 130.7917
L95.3931 130.8631
" />
<path d="M95.3931 130.8631
L95.4646 131.0060
" />
<path d="M95.4646 131.0060
L95.4646 131.1488
" />
<path d="M95.4646 131.1488
L94.7503 131.2917
" />
<path d="M96.1074 131.6488
L96.1788 131.7203
" />
<path d="M96.1788 131.7203
L96.1074 131.7917
" />
<path d="M96.1074 131.7917
L96.0360 131.7203
" />
<path d="M96.0360 131.7203
L96.1074 131.6488
" />
<path d="M96.1074 131.6488
L96.1074 131.7917
" />
<path d="M96.1074 130.8631
L96.1788 130.9345
" />
<path d="M96.1788 130.9345
L96.1074 131.0060
" />
<path d="M96.1074 131.0060
L96.0360 130.9345
" />
<path d="M96.0360 130.9345
L96.1074 130.8631
" />
<path d="M96.1074 130.8631
L96.1074 131.0060
" />
<path d="M97.8932 131.3631
L98.6075 131.3631
" />
<path d="M97.7503 131.7917
L98.2503 130.2917
" />
<path d="M98.2503 130.2917
L98.7503 131.7917
" />
<path d="M99.9646 130.2917
L99.2503 130.2917
" />
<path d="M99.2503 130.2917
L99.1789 131.0060
" />
<path d="M99.1789 131.0060
L99.2503 130.9345
" />
<path d="M99.2503 130.9345
L99.3932 130.8631
" />
<path d="M99.3932 130.8631
L99.7503 130.8631
" />
<path d="M99.7503 130.8631
L99.8932 130.9345
" />
<path d="M99.8932 130.9345
L99.9646 131.0060
" />
<path d="M99.9646 131.0060
L100.0360 131.1488
" />
<path d="M100.0360 131.1488
L100.0360 131.5060
" />
<path d="M100.0360 131.5060
L99.9646 131.6488
" />
<path d="M99.9646 131.6488
L99.8932 131.7203
" />
<path d="M99.8932 131.7203
L99.7503 131.7917
" />
<path d="M99.7503 131.7917
L99.3932 131.7917
" />
<path d="M99.3932 131.7917
L99.2503 131.7203
" />
<path d="M99.2503 131.7203
L99.1789 131.6488
" />
</g><text x="176.0072" y="134.6558"
textLength="8.5144" font-size="2.0000" lengthAdjust="spacingAndGlyphs"
text-anchor="start" opacity="0" stroke-opacity="0">Id: 1/1</text>
<g class="stroked-text"><desc>Id: 1/1</desc>
<path d="M176.4645 134.5917
L176.4645 133.0917
" />
<path d="M177.8217 134.5917
L177.8217 133.0917
" />
<path d="M177.8217 134.5203
L177.6788 134.5917
" />
<path d="M177.6788 134.5917
L177.3931 134.5917
" />
<path d="M177.3931 134.5917
L177.2502 134.5203
" />
<path d="M177.2502 134.5203
L177.1788 134.4488
" />
<path d="M177.1788 134.4488
L177.1074 134.3060
" />
<path d="M177.1074 134.3060
L177.1074 133.8774
" />
<path d="M177.1074 133.8774
L177.1788 133.7345
" />
<path d="M177.1788 133.7345
L177.2502 133.6631
" />
<path d="M177.2502 133.6631
L177.3931 133.5917
" />
<path d="M177.3931 133.5917
L177.6788 133.5917
" />
<path d="M177.6788 133.5917
L177.8217 133.6631
" />
<path d="M178.5359 134.4488
L178.6073 134.5203
" />
<path d="M178.6073 134.5203
L178.5359 134.5917
" />
<path d="M178.5359 134.5917
L178.4645 134.5203
" />
<path d="M178.4645 134.5203
L178.5359 134.4488
" />
<path d="M178.5359 134.4488
L178.5359 134.5917
" />
<path d="M178.5359 133.6631
L178.6073 133.7345
" />
<path d="M178.6073 133.7345
L178.5359 133.8060
" />
<path d="M178.5359 133.8060
L178.4645 133.7345
" />
<path d="M178.4645 133.7345
L178.5359 133.6631
" />
<path d="M178.5359 133.6631
L178.5359 133.8060
" />
<path d="M181.1788 134.5917
L180.3217 134.5917
" />
<path d="M180.7502 134.5917
L180.7502 133.0917
" />
<path d="M180.7502 133.0917
L180.6074 133.3060
" />
<path d="M180.6074 133.3060
L180.4645 133.4488
" />
<path d="M180.4645 133.4488
L180.3217 133.5203
" />
<path d="M182.8931 133.0203
L181.6074 134.9488
" />
<path d="M184.1788 134.5917
L183.3217 134.5917
" />
<path d="M183.7502 134.5917
L183.7502 133.0917
" />
<path d="M183.7502 133.0917
L183.6074 133.3060
" />
<path d="M183.6074 133.3060
L183.4645 133.4488
" />
<path d="M183.4645 133.4488
L183.3217 133.5203
" />
</g><path d="M90.0072 125.5058
L198.0072 125.5058
" />
</g>
<g style="fill:none; 
stroke:#840000; stroke-width:0.4000; stroke-opacity:1; 
stroke-linecap:round; stroke-linejoin:round;">
<text x="91.0072" y="128.3058"
textLength="9.6572" font-size="2.6666" lengthAdjust="spacingAndGlyphs"
text-anchor="start" opacity="0" stroke-opacity="0">Title: </text>
<g class="stroked-text"><desc>Title: </desc>
<path d="M91.6988 126.2102
L92.8417 126.2102
" />
<path d="M92.0203 128.2102
L92.2703 126.2102
" />
<path d="M93.2583 128.2102
L93.4250 126.8769
" />
<path d="M93.5083 126.2102
L93.4012 126.3054
" />
<path d="M93.4012 126.3054
L93.4845 126.4007
" />
<path d="M93.4845 126.4007
L93.5917 126.3054
" />
<path d="M93.5917 126.3054
L93.5083 126.2102
" />
<path d="M93.5083 126.2102
L93.4845 126.4007
" />
<path d="M94.0917 126.8769
L94.8536 126.8769
" />
<path d="M94.4607 126.2102
L94.2465 127.9245
" />
<path d="M94.2465 127.9245
L94.3179 128.1150
" />
<path d="M94.3179 128.1150
L94.4965 128.2102
" />
<path d="M94.4965 128.2102
L94.6869 128.2102
" />
<path d="M95.6394 128.2102
L95.4608 128.1150
" />
<path d="M95.4608 128.1150
L95.3894 127.9245
" />
<path d="M95.3894 127.9245
L95.6036 126.2102
" />
<path d="M97.1750 128.1150
L96.9727 128.2102
" />
<path d="M96.9727 128.2102
L96.5917 128.2102
" />
<path d="M96.5917 128.2102
L96.4131 128.1150
" />
<path d="M96.4131 128.1150
L96.3417 127.9245
" />
<path d="M96.3417 127.9245
L96.4370 127.1626
" />
<path d="M96.4370 127.1626
L96.5560 126.9721
" />
<path d="M96.5560 126.9721
L96.7584 126.8769
" />
<path d="M96.7584 126.8769
L97.1393 126.8769
" />
<path d="M97.1393 126.8769
L97.3179 126.9721
" />
<path d="M97.3179 126.9721
L97.3893 127.1626
" />
<path d="M97.3893 127.1626
L97.3655 127.3530
" />
<path d="M97.3655 127.3530
L96.3893 127.5435
" />
<path d="M98.1393 128.0197
L98.2227 128.1150
" />
<path d="M98.2227 128.1150
L98.1155 128.2102
" />
<path d="M98.1155 128.2102
L98.0322 128.1150
" />
<path d="M98.0322 128.1150
L98.1393 128.0197
" />
<path d="M98.1393 128.0197
L98.1155 128.2102
" />
<path d="M98.2703 126.9721
L98.3536 127.0673
" />
<path d="M98.3536 127.0673
L98.2465 127.1626
" />
<path d="M98.2465 127.1626
L98.1632 127.0673
" />
<path d="M98.1632 127.0673
L98.2703 126.9721
" />
<path d="M98.2703 126.9721
L98.2465 127.1626
" />
</g></g>
<g style="fill:none; 
stroke:#840000; stroke-width:0.1524; stroke-opacity:1; 
stroke-linecap:round; stroke-linejoin:round;">
<text x="91.0072" y="124.4558"
textLength="59.9429" font-size="2.0000" lengthAdjust="spacingAndGlyphs"
text-anchor="start" opacity="0" stroke-opacity="0">File: resistors_series_parallel_Rb1 - Copy.kicad_sch</text>
<g class="stroked-text"><desc>File: resistors_series_parallel_Rb1 - Copy.kicad_sch</desc>
<path d="M91.9645 123.6060
L91.4645 123.6060
" />
<path d="M91.4645 124.3917
L91.4645 122.8917
" />
<path d="M91.4645 122.8917
L92.1788 122.8917
" />
<path d="M92.7502 124.3917
L92.7502 123.3917
" />
<path d="M92.7502 122.8917
L92.6788 122.9631
" />
<path d="M92.6788 122.9631
L92.7502 123.0345
" />
<path d="M92.7502 123.0345
L92.8216 122.9631
" />
<path d="M92.8216 122.9631
L92.7502 122.8917
" />
<path d="M92.7502 122.8917
L92.7502 123.0345
" />
<path d="M93.6788 124.3917
L93.5359 124.3203
" />
<path d="M93.5359 124.3203
L93.4645 124.1774
" />
<path d="M93.4645 124.1774
L93.4645 122.8917
" />
<path d="M94.8216 124.3203
L94.6788 124.3917
" />
<path d="M94.6788 124.3917
L94.3931 124.3917
" />
<path d="M94.3931 124.3917
L94.2502 124.3203
" />
<path d="M94.2502 124.3203
L94.1788 124.1774
" />
<path d="M94.1788 124.1774
L94.1788 123.6060
" />
<path d="M94.1788 123.6060
L94.2502 123.4631
" />
<path d="M94.2502 123.4631
L94.3931 123.3917
" />
<path d="M94.3931 123.3917
L94.6788 123.3917
" />
<path d="M94.6788 123.3917
L94.8216 123.4631
" />
<path d="M94.8216 123.4631
L94.8931 123.6060
" />
<path d="M94.8931 123.6060
L94.8931 123.7488
" />
<path d="M94.8931 123.7488
L94.1788 123.8917
" />
<path d="M95.5359 124.2488
L95.6073 124.3203
" />
<path d="M95.6073 124.3203
L95.5359 124.3917
" />
<path d="M95.5359 124.3917
L95.4645 124.3203
" />
<path d="M95.4645 124.3203
L95.5359 124.2488
" />
<path d="M95.5359 124.2488
L95.5359 124.3917
" />
<path d="M95.5359 123.4631
L95.6073 123.5345
" />
<path d="M95.6073 123.5345
L95.5359 123.6060
" />
<path d="M95.5359 123.6060
L95.4645 123.5345
" />
<path d="M95.4645 123.5345
L95.5359 123.4631
" />
<path d="M95.5359 123.4631
L95.5359 123.6060
" />
<path d="M97.3931 124.3917
L97.3931 123.3917
" />
<path d="M97.3931 123.6774
L97.4645 123.5345
" />
<path d="M97.4645 123.5345
L97.5360 123.4631
" />
<path d="M97.5360 123.4631
L97.6788 123.3917
" />
<path d="M97.6788 123.3917
L97.8217 123.3917
" />
<path d="M98.8931 124.3203
L98.7503 124.3917
" />
<path d="M98.7503 124.3917
L98.4646 124.3917
" />
<path d="M98.4646 124.3917
L98.3217 124.3203
" />
<path d="M98.3217 124.3203
L98.2503 124.1774
" />
<path d="M98.2503 124.1774
L98.2503 123.6060
" />
<path d="M98.2503 123.6060
L98.3217 123.4631
" />
<path d="M98.3217 123.4631
L98.4646 123.3917
" />
<path d="M98.4646 123.3917
L98.7503 123.3917
" />
<path d="M98.7503 123.3917
L98.8931 123.4631
" />
<path d="M98.8931 123.4631
L98.9646 123.6060
" />
<path d="M98.9646 123.6060
L98.9646 123.7488
" />
<path d="M98.9646 123.7488
L98.2503 123.8917
" />
<path d="M99.5360 124.3203
L99.6788 124.3917
" />
<path d="M99.6788 124.3917
L99.9645 124.3917
" />
<path d="M99.9645 124.3917
L100.1074 124.3203
" />
<path d="M100.1074 124.3203
L100.1788 124.1774
" />
<path d="M100.1788 124.1774
L100.1788 124.1060
" />
<path d="M100.1788 124.1060
L100.1074 123.9631
" />
<path d="M100.1074 123.9631
L99.9645 123.8917
" />
<path d="M99.9645 123.8917
L99.7503 123.8917
" />
<path d="M99.7503 123.8917
L99.6074 123.8203
" />
<path d="M99.6074 123.8203
L99.5360 123.6774
" />
<path d="M99.5360 123.6774
L99.5360 123.6060
" />
<path d="M99.5360 123.6060
L99.6074 123.4631
" />
<path d="M99.6074 123.4631
L99.7503 123.3917
" />
<path d="M99.7503 123.3917
L99.9645 123.3917
" />
<path d="M99.9645 123.3917
L100.1074 123.4631
" />
<path d="M100.8217 124.3917
L100.8217 123.3917
" />
<path d="M100.8217 122.8917
L100.7503 122.9631
" />
<path d="M100.7503 122.9631
L100.8217 123.0345
" />
<path d="M100.8217 123.0345
L100.8931 122.9631
" />
<path d="M100.8931 122.9631
L100.8217 122.8917
" />
<path d="M100.8217 122.8917
L100.8217 123.0345
" />
<path d="M101.4646 124.3203
L101.6074 124.3917
" />
<path d="M101.6074 124.3917
L101.8931 124.3917
" />
<path d="M101.8931 124.3917
L102.0360 124.3203
" />
<path d="M102.0360 124.3203
L102.1074 124.1774
" />
<path d="M102.1074 124.1774
L102.1074 124.1060
" />
<path d="M102.1074 124.1060
L102.0360 123.9631
" />
<path d="M102.0360 123.9631
L101.8931 123.8917
" />
<path d="M101.8931 123.8917
L101.6789 123.8917
" />
<path d="M101.6789 123.8917
L101.5360 123.8203
" />
<path d="M101.5360 123.8203
L101.4646 123.6774
" />
<path d="M101.4646 123.6774
L101.4646 123.6060
" />
<path d="M101.4646 123.6060
L101.5360 123.4631
" />
<path d="M101.5360 123.4631
L101.6789 123.3917
" />
<path d="M101.6789 123.3917
L101.8931 123.3917
" />
<path d="M101.8931 123.3917
L102.0360 123.4631
" />
<path d="M102.5360 123.3917
L103.1074 123.3917
" />
<path d="M102.7503 122.8917
L102.7503 124.1774
" />
<path d="M102.7503 124.1774
L102.8217 124.3203
" />
<path d="M102.8217 124.3203
L102.9646 124.3917
" />
<path d="M102.9646 124.3917
L103.1074 124.3917
" />
<path d="M103.8217 124.3917
L103.6788 124.3203
" />
<path d="M103.6788 124.3203
L103.6074 124.2488
" />
<path d="M103.6074 124.2488
L103.5360 124.1060
" />
<path d="M103.5360 124.1060
L103.5360 123.6774
" />
<path d="M103.5360 123.6774
L103.6074 123.5345
" />
<path d="M103.6074 123.5345
L103.6788 123.4631
" />
<path d="M103.6788 123.4631
L103.8217 123.3917
" />
<path d="M103.8217 123.3917
L104.0360 123.3917
" />
<path d="M104.0360 123.3917
L104.1788 123.4631
" />
<path d="M104.1788 123.4631
L104.2503 123.5345
" />
<path d="M104.2503 123.5345
L104.3217 123.6774
" />
<path d="M104.3217 123.6774
L104.3217 124.1060
" />
<path d="M104.3217 124.1060
L104.2503 124.2488
" />
<path d="M104.2503 124.2488
L104.1788 124.3203
" />
<path d="M104.1788 124.3203
L104.0360 124.3917
" />
<path d="M104.0360 124.3917
L103.8217 124.3917
" />
<path d="M104.9645 124.3917
L104.9645 123.3917
" />
<path d="M104.9645 123.6774
L105.0359 123.5345
" />
<path d="M105.0359 123.5345
L105.1074 123.4631
" />
<path d="M105.1074 123.4631
L105.2502 123.3917
" />
<path d="M105.2502 123.3917
L105.3931 123.3917
" />
<path d="M105.8217 124.3203
L105.9645 124.3917
" />
<path d="M105.9645 124.3917
L106.2502 124.3917
" />
<path d="M106.2502 124.3917
L106.3931 124.3203
" />
<path d="M106.3931 124.3203
L106.4645 124.1774
" />
<path d="M106.4645 124.1774
L106.4645 124.1060
" />
<path d="M106.4645 124.1060
L106.3931 123.9631
" />
<path d="M106.3931 123.9631
L106.2502 123.8917
" />
<path d="M106.2502 123.8917
L106.0360 123.8917
" />
<path d="M106.0360 123.8917
L105.8931 123.8203
" />
<path d="M105.8931 123.8203
L105.8217 123.6774
" />
<path d="M105.8217 123.6774
L105.8217 123.6060
" />
<path d="M105.8217 123.6060
L105.8931 123.4631
" />
<path d="M105.8931 123.4631
L106.0360 123.3917
" />
<path d="M106.0360 123.3917
L106.2502 123.3917
" />
<path d="M106.2502 123.3917
L106.3931 123.4631
" />
<path d="M106.7503 124.5345
L107.8931 124.5345
" />
<path d="M108.1789 124.3203
L108.3217 124.3917
" />
<path d="M108.3217 124.3917
L108.6074 124.3917
" />
<path d="M108.6074 124.3917
L108.7503 124.3203
" />
<path d="M108.7503 124.3203
L108.8217 124.1774
" />
<path d="M108.8217 124.1774
L108.8217 124.1060
" />
<path d="M108.8217 124.1060
L108.7503 123.9631
" />
<path d="M108.7503 123.9631
L108.6074 123.8917
" />
<path d="M108.6074 123.8917
L108.3932 123.8917
" />
<path d="M108.3932 123.8917
L108.2503 123.8203
" />
<path d="M108.2503 123.8203
L108.1789 123.6774
" />
<path d="M108.1789 123.6774
L108.1789 123.6060
" />
<path d="M108.1789 123.6060
L108.2503 123.4631
" />
<path d="M108.2503 123.4631
L108.3932 123.3917
" />
<path d="M108.3932 123.3917
L108.6074 123.3917
" />
<path d="M108.6074 123.3917
L108.7503 123.4631
" />
<path d="M110.0360 124.3203
L109.8932 124.3917
" />
<path d="M109.8932 124.3917
L109.6075 124.3917
" />
<path d="M109.6075 124.3917
L109.4646 124.3203
" />
<path d="M109.4646 124.3203
L109.3932 124.1774
" />
<path d="M109.3932 124.1774
L109.3932 123.6060
" />
<path d="M109.3932 123.6060
L109.4646 123.4631
" />
<path d="M109.4646 123.4631
L109.6075 123.3917
" />
<path d="M109.6075 123.3917
L109.8932 123.3917
" />
<path d="M109.8932 123.3917
L110.0360 123.4631
" />
<path d="M110.0360 123.4631
L110.1075 123.6060
" />
<path d="M110.1075 123.6060
L110.1075 123.7488
" />
<path d="M110.1075 123.7488
L109.3932 123.8917
" />
<path d="M110.7503 124.3917
L110.7503 123.3917
" />
<path d="M110.7503 123.6774
L110.8217 123.5345
" />
<path d="M110.8217 123.5345
L110.8932 123.4631
" />
<path d="M110.8932 123.4631
L111.0360 123.3917
" />
<path d="M111.0360 123.3917
L111.1789 123.3917
" />
<path d="M111.6789 124.3917
L111.6789 123.3917
" />
<path d="M111.6789 122.8917
L111.6075 122.9631
" />
<path d="M111.6075 122.9631
L111.6789 123.0345
" />
<path d="M111.6789 123.0345
L111.7503 122.9631
" />
<path d="M111.7503 122.9631
L111.6789 122.8917
" />
<path d="M111.6789 122.8917
L111.6789 123.0345
" />
<path d="M112.9646 124.3203
L112.8218 124.3917
" />
<path d="M112.8218 124.3917
L112.5361 124.3917
" />
<path d="M112.5361 124.3917
L112.3932 124.3203
" />
<path d="M112.3932 124.3203
L112.3218 124.1774
" />
<path d="M112.3218 124.1774
L112.3218 123.6060
" />
<path d="M112.3218 123.6060
L112.3932 123.4631
" />
<path d="M112.3932 123.4631
L112.5361 123.3917
" />
<path d="M112.5361 123.3917
L112.8218 123.3917
" />
<path d="M112.8218 123.3917
L112.9646 123.4631
" />
<path d="M112.9646 123.4631
L113.0361 123.6060
" />
<path d="M113.0361 123.6060
L113.0361 123.7488
" />
<path d="M113.0361 123.7488
L112.3218 123.8917
" />
<path d="M113.6075 124.3203
L113.7503 124.3917
" />
<path d="M113.7503 124.3917
L114.0360 124.3917
" />
<path d="M114.0360 124.3917
L114.1789 124.3203
" />
<path d="M114.1789 124.3203
L114.2503 124.1774
" />
<path d="M114.2503 124.1774
L114.2503 124.1060
" />
<path d="M114.2503 124.1060
L114.1789 123.9631
" />
<path d="M114.1789 123.9631
L114.0360 123.8917
" />
<path d="M114.0360 123.8917
L113.8218 123.8917
" />
<path d="M113.8218 123.8917
L113.6789 123.8203
" />
<path d="M113.6789 123.8203
L113.6075 123.6774
" />
<path d="M113.6075 123.6774
L113.6075 123.6060
" />
<path d="M113.6075 123.6060
L113.6789 123.4631
" />
<path d="M113.6789 123.4631
L113.8218 123.3917
" />
<path d="M113.8218 123.3917
L114.0360 123.3917
" />
<path d="M114.0360 123.3917
L114.1789 123.4631
" />
<path d="M114.5361 124.5345
L115.6789 124.5345
" />
<path d="M116.0361 123.3917
L116.0361 124.8917
" />
<path d="M116.0361 123.4631
L116.1790 123.3917
" />
<path d="M116.1790 123.3917
L116.4647 123.3917
" />
<path d="M116.4647 123.3917
L116.6075 123.4631
" />
<path d="M116.6075 123.4631
L116.6790 123.5345
" />
<path d="M116.6790 123.5345
L116.7504 123.6774
" />
<path d="M116.7504 123.6774
L116.7504 124.1060
" />
<path d="M116.7504 124.1060
L116.6790 124.2488
" />
<path d="M116.6790 124.2488
L116.6075 124.3203
" />
<path d="M116.6075 124.3203
L116.4647 124.3917
" />
<path d="M116.4647 124.3917
L116.1790 124.3917
" />
<path d="M116.1790 124.3917
L116.0361 124.3203
" />
<path d="M118.0361 124.3917
L118.0361 123.6060
" />
<path d="M118.0361 123.6060
L117.9646 123.4631
" />
<path d="M117.9646 123.4631
L117.8218 123.3917
" />
<path d="M117.8218 123.3917
L117.5361 123.3917
" />
<path d="M117.5361 123.3917
L117.3932 123.4631
" />
<path d="M118.0361 124.3203
L117.8932 124.3917
" />
<path d="M117.8932 124.3917
L117.5361 124.3917
" />
<path d="M117.5361 124.3917
L117.3932 124.3203
" />
<path d="M117.3932 124.3203
L117.3218 124.1774
" />
<path d="M117.3218 124.1774
L117.3218 124.0345
" />
<path d="M117.3218 124.0345
L117.3932 123.8917
" />
<path d="M117.3932 123.8917
L117.5361 123.8203
" />
<path d="M117.5361 123.8203
L117.8932 123.8203
" />
<path d="M117.8932 123.8203
L118.0361 123.7488
" />
<path d="M118.7503 124.3917
L118.7503 123.3917
" />
<path d="M118.7503 123.6774
L118.8217 123.5345
" />
<path d="M118.8217 123.5345
L118.8932 123.4631
" />
<path d="M118.8932 123.4631
L119.0360 123.3917
" />
<path d="M119.0360 123.3917
L119.1789 123.3917
" />
<path d="M120.3218 124.3917
L120.3218 123.6060
" />
<path d="M120.3218 123.6060
L120.2503 123.4631
" />
<path d="M120.2503 123.4631
L120.1075 123.3917
" />
<path d="M120.1075 123.3917
L119.8218 123.3917
" />
<path d="M119.8218 123.3917
L119.6789 123.4631
" />
<path d="M120.3218 124.3203
L120.1789 124.3917
" />
<path d="M120.1789 124.3917
L119.8218 124.3917
" />
<path d="M119.8218 124.3917
L119.6789 124.3203
" />
<path d="M119.6789 124.3203
L119.6075 124.1774
" />
<path d="M119.6075 124.1774
L119.6075 124.0345
" />
<path d="M119.6075 124.0345
L119.6789 123.8917
" />
<path d="M119.6789 123.8917
L119.8218 123.8203
" />
<path d="M119.8218 123.8203
L120.1789 123.8203
" />
<path d="M120.1789 123.8203
L120.3218 123.7488
" />
<path d="M121.2503 124.3917
L121.1074 124.3203
" />
<path d="M121.1074 124.3203
L121.0360 124.1774
" />
<path d="M121.0360 124.1774
L121.0360 122.8917
" />
<path d="M122.0360 124.3917
L121.8931 124.3203
" />
<path d="M121.8931 124.3203
L121.8217 124.1774
" />
<path d="M121.8217 124.1774
L121.8217 122.8917
" />
<path d="M123.1788 124.3203
L123.0360 124.3917
" />
<path d="M123.0360 124.3917
L122.7503 124.3917
" />
<path d="M122.7503 124.3917
L122.6074 124.3203
" />
<path d="M122.6074 124.3203
L122.5360 124.1774
" />
<path d="M122.5360 124.1774
L122.5360 123.6060
" />
<path d="M122.5360 123.6060
L122.6074 123.4631
" />
<path d="M122.6074 123.4631
L122.7503 123.3917
" />
<path d="M122.7503 123.3917
L123.0360 123.3917
" />
<path d="M123.0360 123.3917
L123.1788 123.4631
" />
<path d="M123.1788 123.4631
L123.2503 123.6060
" />
<path d="M123.2503 123.6060
L123.2503 123.7488
" />
<path d="M123.2503 123.7488
L122.5360 123.8917
" />
<path d="M124.1074 124.3917
L123.9645 124.3203
" />
<path d="M123.9645 124.3203
L123.8931 124.1774
" />
<path d="M123.8931 124.1774
L123.8931 122.8917
" />
<path d="M124.3217 124.5345
L125.4645 124.5345
" />
<path d="M126.6788 124.3917
L126.1788 123.6774
" />
<path d="M125.8217 124.3917
L125.8217 122.8917
" />
<path d="M125.8217 122.8917
L126.3931 122.8917
" />
<path d="M126.3931 122.8917
L126.5360 122.9631
" />
<path d="M126.5360 122.9631
L126.6074 123.0345
" />
<path d="M126.6074 123.0345
L126.6788 123.1774
" />
<path d="M126.6788 123.1774
L126.6788 123.3917
" />
<path d="M126.6788 123.3917
L126.6074 123.5345
" />
<path d="M126.6074 123.5345
L126.5360 123.6060
" />
<path d="M126.5360 123.6060
L126.3931 123.6774
" />
<path d="M126.3931 123.6774
L125.8217 123.6774
" />
<path d="M127.3217 124.3917
L127.3217 122.8917
" />
<path d="M127.3217 123.4631
L127.4646 123.3917
" />
<path d="M127.4646 123.3917
L127.7503 123.3917
" />
<path d="M127.7503 123.3917
L127.8931 123.4631
" />
<path d="M127.8931 123.4631
L127.9646 123.5345
" />
<path d="M127.9646 123.5345
L128.0360 123.6774
" />
<path d="M128.0360 123.6774
L128.0360 124.1060
" />
<path d="M128.0360 124.1060
L127.9646 124.2488
" />
<path d="M127.9646 124.2488
L127.8931 124.3203
" />
<path d="M127.8931 124.3203
L127.7503 124.3917
" />
<path d="M127.7503 124.3917
L127.4646 124.3917
" />
<path d="M127.4646 124.3917
L127.3217 124.3203
" />
<path d="M129.4645 124.3917
L128.6074 124.3917
" />
<path d="M129.0359 124.3917
L129.0359 122.8917
" />
<path d="M129.0359 122.8917
L128.8931 123.1060
" />
<path d="M128.8931 123.1060
L128.7502 123.2488
" />
<path d="M128.7502 123.2488
L128.6074 123.3203
" />
<path d="M131.2503 123.8203
L132.3932 123.8203
" />
<path d="M135.1074 124.2488
L135.0360 124.3203
" />
<path d="M135.0360 124.3203
L134.8217 124.3917
" />
<path d="M134.8217 124.3917
L134.6789 124.3917
" />
<path d="M134.6789 124.3917
L134.4646 124.3203
" />
<path d="M134.4646 124.3203
L134.3217 124.1774
" />
<path d="M134.3217 124.1774
L134.2503 124.0345
" />
<path d="M134.2503 124.0345
L134.1789 123.7488
" />
<path d="M134.1789 123.7488
L134.1789 123.5345
" />
<path d="M134.1789 123.5345
L134.2503 123.2488
" />
<path d="M134.2503 123.2488
L134.3217 123.1060
" />
<path d="M134.3217 123.1060
L134.4646 122.9631
" />
<path d="M134.4646 122.9631
L134.6789 122.8917
" />
<path d="M134.6789 122.8917
L134.8217 122.8917
" />
<path d="M134.8217 122.8917
L135.0360 122.9631
" />
<path d="M135.0360 122.9631
L135.1074 123.0345
" />
<path d="M135.9646 124.3917
L135.8217 124.3203
" />
<path d="M135.8217 124.3203
L135.7503 124.2488
" />
<path d="M135.7503 124.2488
L135.6789 124.1060
" />
<path d="M135.6789 124.1060
L135.6789 123.6774
" />
<path d="M135.6789 123.6774
L135.7503 123.5345
" />
<path d="M135.7503 123.5345
L135.8217 123.4631
" />
<path d="M135.8217 123.4631
L135.9646 123.3917
" />
<path d="M135.9646 123.3917
L136.1789 123.3917
" />
<path d="M136.1789 123.3917
L136.3217 123.4631
" />
<path d="M136.3217 123.4631
L136.3932 123.5345
" />
<path d="M136.3932 123.5345
L136.4646 123.6774
" />
<path d="M136.4646 123.6774
L136.4646 124.1060
" />
<path d="M136.4646 124.1060
L136.3932 124.2488
" />
<path d="M136.3932 124.2488
L136.3217 124.3203
" />
<path d="M136.3217 124.3203
L136.1789 124.3917
" />
<path d="M136.1789 124.3917
L135.9646 124.3917
" />
<path d="M137.1074 123.3917
L137.1074 124.8917
" />
<path d="M137.1074 123.4631
L137.2503 123.3917
" />
<path d="M137.2503 123.3917
L137.5360 123.3917
" />
<path d="M137.5360 123.3917
L137.6788 123.4631
" />
<path d="M137.6788 123.4631
L137.7503 123.5345
" />
<path d="M137.7503 123.5345
L137.8217 123.6774
" />
<path d="M137.8217 123.6774
L137.8217 124.1060
" />
<path d="M137.8217 124.1060
L137.7503 124.2488
" />
<path d="M137.7503 124.2488
L137.6788 124.3203
" />
<path d="M137.6788 124.3203
L137.5360 124.3917
" />
<path d="M137.5360 124.3917
L137.2503 124.3917
" />
<path d="M137.2503 124.3917
L137.1074 124.3203
" />
<path d="M138.3216 123.3917
L138.6788 124.3917
" />
<path d="M139.0359 123.3917
L138.6788 124.3917
" />
<path d="M138.6788 124.3917
L138.5359 124.7488
" />
<path d="M138.5359 124.7488
L138.4645 124.8203
" />
<path d="M138.4645 124.8203
L138.3216 124.8917
" />
<path d="M139.6074 124.2488
L139.6788 124.3203
" />
<path d="M139.6788 124.3203
L139.6074 124.3917
" />
<path d="M139.6074 124.3917
L139.5360 124.3203
" />
<path d="M139.5360 124.3203
L139.6074 124.2488
" />
<path d="M139.6074 124.2488
L139.6074 124.3917
" />
<path d="M140.3217 124.3917
L140.3217 122.8917
" />
<path d="M140.4646 123.8203
L140.8931 124.3917
" />
<path d="M140.8931 123.3917
L140.3217 123.9631
" />
<path d="M141.5360 124.3917
L141.5360 123.3917
" />
<path d="M141.5360 122.8917
L141.4646 122.9631
" />
<path d="M141.4646 122.9631
L141.5360 123.0345
" />
<path d="M141.5360 123.0345
L141.6074 122.9631
" />
<path d="M141.6074 122.9631
L141.5360 122.8917
" />
<path d="M141.5360 122.8917
L141.5360 123.0345
" />
<path d="M142.8932 124.3203
L142.7503 124.3917
" />
<path d="M142.7503 124.3917
L142.4646 124.3917
" />
<path d="M142.4646 124.3917
L142.3217 124.3203
" />
<path d="M142.3217 124.3203
L142.2503 124.2488
" />
<path d="M142.2503 124.2488
L142.1789 124.1060
" />
<path d="M142.1789 124.1060
L142.1789 123.6774
" />
<path d="M142.1789 123.6774
L142.2503 123.5345
" />
<path d="M142.2503 123.5345
L142.3217 123.4631
" />
<path d="M142.3217 123.4631
L142.4646 123.3917
" />
<path d="M142.4646 123.3917
L142.7503 123.3917
" />
<path d="M142.7503 123.3917
L142.8932 123.4631
" />
<path d="M144.1789 124.3917
L144.1789 123.6060
" />
<path d="M144.1789 123.6060
L144.1074 123.4631
" />
<path d="M144.1074 123.4631
L143.9646 123.3917
" />
<path d="M143.9646 123.3917
L143.6789 123.3917
" />
<path d="M143.6789 123.3917
L143.5360 123.4631
" />
<path d="M144.1789 124.3203
L144.0360 124.3917
" />
<path d="M144.0360 124.3917
L143.6789 124.3917
" />
<path d="M143.6789 124.3917
L143.5360 124.3203
" />
<path d="M143.5360 124.3203
L143.4646 124.1774
" />
<path d="M143.4646 124.1774
L143.4646 124.0345
" />
<path d="M143.4646 124.0345
L143.5360 123.8917
" />
<path d="M143.5360 123.8917
L143.6789 123.8203
" />
<path d="M143.6789 123.8203
L144.0360 123.8203
" />
<path d="M144.0360 123.8203
L144.1789 123.7488
" />
<path d="M145.5360 124.3917
L145.5360 122.8917
" />
<path d="M145.5360 124.3203
L145.3931 124.3917
" />
<path d="M145.3931 124.3917
L145.1074 124.3917
" />
<path d="M145.1074 124.3917
L144.9645 124.3203
" />
<path d="M144.9645 124.3203
L144.8931 124.2488
" />
<path d="M144.8931 124.2488
L144.8217 124.1060
" />
<path d="M144.8217 124.1060
L144.8217 123.6774
" />
<path d="M144.8217 123.6774
L144.8931 123.5345
" />
<path d="M144.8931 123.5345
L144.9645 123.4631
" />
<path d="M144.9645 123.4631
L145.1074 123.3917
" />
<path d="M145.1074 123.3917
L145.3931 123.3917
" />
<path d="M145.3931 123.3917
L145.5360 123.4631
" />
<path d="M145.8931 124.5345
L147.0359 124.5345
" />
<path d="M147.3217 124.3203
L147.4645 124.3917
" />
<path d="M147.4645 124.3917
L147.7502 124.3917
" />
<path d="M147.7502 124.3917
L147.8931 124.3203
" />
<path d="M147.8931 124.3203
L147.9645 124.1774
" />
<path d="M147.9645 124.1774
L147.9645 124.1060
" />
<path d="M147.9645 124.1060
L147.8931 123.9631
" />
<path d="M147.8931 123.9631
L147.7502 123.8917
" />
<path d="M147.7502 123.8917
L147.5360 123.8917
" />
<path d="M147.5360 123.8917
L147.3931 123.8203
" />
<path d="M147.3931 123.8203
L147.3217 123.6774
" />
<path d="M147.3217 123.6774
L147.3217 123.6060
" />
<path d="M147.3217 123.6060
L147.3931 123.4631
" />
<path d="M147.3931 123.4631
L147.5360 123.3917
" />
<path d="M147.5360 123.3917
L147.7502 123.3917
" />
<path d="M147.7502 123.3917
L147.8931 123.4631
" />
<path d="M149.2503 124.3203
L149.1074 124.3917
" />
<path d="M149.1074 124.3917
L148.8217 124.3917
" />
<path d="M148.8217 124.3917
L148.6788 124.3203
" />
<path d="M148.6788 124.3203
L148.6074 124.2488
" />
<path d="M148.6074 124.2488
L148.5360 124.1060
" />
<path d="M148.5360 124.1060
L148.5360 123.6774
" />
<path d="M148.5360 123.6774
L148.6074 123.5345
" />
<path d="M148.6074 123.5345
L148.6788 123.4631
" />
<path d="M148.6788 123.4631
L148.8217 123.3917
" />
<path d="M148.8217 123.3917
L149.1074 123.3917
" />
<path d="M149.1074 123.3917
L149.2503 123.4631
" />
<path d="M149.8931 124.3917
L149.8931 122.8917
" />
<path d="M150.5360 124.3917
L150.5360 123.6060
" />
<path d="M150.5360 123.6060
L150.4645 123.4631
" />
<path d="M150.4645 123.4631
L150.3217 123.3917
" />
<path d="M150.3217 123.3917
L150.1074 123.3917
" />
<path d="M150.1074 123.3917
L149.9645 123.4631
" />
<path d="M149.9645 123.4631
L149.8931 123.5345
" />
</g><path d="M90.0072 119.5058
L198.0072 119.5058
" />
<text x="91.0072" y="121.7558"
textLength="9.8000" font-size="2.0000" lengthAdjust="spacingAndGlyphs"
text-anchor="start" opacity="0" stroke-opacity="0">Sheet: /</text>
<g class="stroked-text"><desc>Sheet: /</desc>
<path d="M91.3931 121.6203
L91.6074 121.6917
" />
<path d="M91.6074 121.6917
L91.9645 121.6917
" />
<path d="M91.9645 121.6917
L92.1074 121.6203
" />
<path d="M92.1074 121.6203
L92.1788 121.5488
" />
<path d="M92.1788 121.5488
L92.2502 121.4060
" />
<path d="M92.2502 121.4060
L92.2502 121.2631
" />
<path d="M92.2502 121.2631
L92.1788 121.1203
" />
<path d="M92.1788 121.1203
L92.1074 121.0488
" />
<path d="M92.1074 121.0488
L91.9645 120.9774
" />
<path d="M91.9645 120.9774
L91.6788 120.9060
" />
<path d="M91.6788 120.9060
L91.5359 120.8345
" />
<path d="M91.5359 120.8345
L91.4645 120.7631
" />
<path d="M91.4645 120.7631
L91.3931 120.6203
" />
<path d="M91.3931 120.6203
L91.3931 120.4774
" />
<path d="M91.3931 120.4774
L91.4645 120.3345
" />
<path d="M91.4645 120.3345
L91.5359 120.2631
" />
<path d="M91.5359 120.2631
L91.6788 120.1917
" />
<path d="M91.6788 120.1917
L92.0359 120.1917
" />
<path d="M92.0359 120.1917
L92.2502 120.2631
" />
<path d="M92.8931 121.6917
L92.8931 120.1917
" />
<path d="M93.5360 121.6917
L93.5360 120.9060
" />
<path d="M93.5360 120.9060
L93.4645 120.7631
" />
<path d="M93.4645 120.7631
L93.3217 120.6917
" />
<path d="M93.3217 120.6917
L93.1074 120.6917
" />
<path d="M93.1074 120.6917
L92.9645 120.7631
" />
<path d="M92.9645 120.7631
L92.8931 120.8345
" />
<path d="M94.8216 121.6203
L94.6788 121.6917
" />
<path d="M94.6788 121.6917
L94.3931 121.6917
" />
<path d="M94.3931 121.6917
L94.2502 121.6203
" />
<path d="M94.2502 121.6203
L94.1788 121.4774
" />
<path d="M94.1788 121.4774
L94.1788 120.9060
" />
<path d="M94.1788 120.9060
L94.2502 120.7631
" />
<path d="M94.2502 120.7631
L94.3931 120.6917
" />
<path d="M94.3931 120.6917
L94.6788 120.6917
" />
<path d="M94.6788 120.6917
L94.8216 120.7631
" />
<path d="M94.8216 120.7631
L94.8931 120.9060
" />
<path d="M94.8931 120.9060
L94.8931 121.0488
" />
<path d="M94.8931 121.0488
L94.1788 121.1917
" />
<path d="M96.1073 121.6203
L95.9645 121.6917
" />
<path d="M95.9645 121.6917
L95.6788 121.6917
" />
<path d="M95.6788 121.6917
L95.5359 121.6203
" />
<path d="M95.5359 121.6203
L95.4645 121.4774
" />
<path d="M95.4645 121.4774
L95.4645 120.9060
" />
<path d="M95.4645 120.9060
L95.5359 120.7631
" />
<path d="M95.5359 120.7631
L95.6788 120.6917
" />
<path d="M95.6788 120.6917
L95.9645 120.6917
" />
<path d="M95.9645 120.6917
L96.1073 120.7631
" />
<path d="M96.1073 120.7631
L96.1788 120.9060
" />
<path d="M96.1788 120.9060
L96.1788 121.0488
" />
<path d="M96.1788 121.0488
L95.4645 121.1917
" />
<path d="M96.6073 120.6917
L97.1787 120.6917
" />
<path d="M96.8216 120.1917
L96.8216 121.4774
" />
<path d="M96.8216 121.4774
L96.8930 121.6203
" />
<path d="M96.8930 121.6203
L97.0359 121.6917
" />
<path d="M97.0359 121.6917
L97.1787 121.6917
" />
<path d="M97.6787 121.5488
L97.7501 121.6203
" />
<path d="M97.7501 121.6203
L97.6787 121.6917
" />
<path d="M97.6787 121.6917
L97.6073 121.6203
" />
<path d="M97.6073 121.6203
L97.6787 121.5488
" />
<path d="M97.6787 121.5488
L97.6787 121.6917
" />
<path d="M97.6787 120.7631
L97.7501 120.8345
" />
<path d="M97.7501 120.8345
L97.6787 120.9060
" />
<path d="M97.6787 120.9060
L97.6073 120.8345
" />
<path d="M97.6073 120.8345
L97.6787 120.7631
" />
<path d="M97.6787 120.7631
L97.6787 120.9060
" />
<path d="M100.6073 120.1203
L99.3216 122.0488
" />
</g></g>
<g style="fill:none; 
stroke:#840000; stroke-width:0.3000; stroke-opacity:1; 
stroke-linecap:round; stroke-linejoin:round;">
<text x="91.0072" y="118.7558"
textLength="0.9000" font-size="2.0000" lengthAdjust="spacingAndGlyphs"
text-anchor="start" opacity="0" stroke-opacity="0"></text>
<g class="stroked-text"><desc></desc>
</g></g>
<g style="fill:none; 
stroke:#840000; stroke-width:0.1524; stroke-opacity:1; 
stroke-linecap:round; stroke-linejoin:round;">
<text x="91.0072" y="115.7558"
textLength="0.4572" font-size="2.0000" lengthAdjust="spacingAndGlyphs"
text-anchor="start" opacity="0" stroke-opacity="0"></text>
<g class="stroked-text"><desc></desc>
</g><text x="91.0072" y="112.7558"
textLength="0.4572" font-size="2.0000" lengthAdjust="spacingAndGlyphs"
text-anchor="start" opacity="0" stroke-opacity="0"></text>
<g class="stroked-text"><desc></desc>
</g><text x="91.0072" y="109.7558"
textLength="0.4572" font-size="2.0000" lengthAdjust="spacingAndGlyphs"
text-anchor="start" opacity="0" stroke-opacity="0"></text>
<g class="stroked-text"><desc></desc>
</g><text x="91.0072" y="106.7558"
textLength="0.4572" font-size="2.0000" lengthAdjust="spacingAndGlyphs"
text-anchor="start" opacity="0" stroke-opacity="0"></text>
<g class="stroked-text"><desc></desc>
</g><path d="M110.0072 129.5058
L110.0072 132.5058
" />
<path d="M174.0072 129.5058
L174.0072 136.0058
" />
</g>
<g style="fill:none; 
stroke:#840000; stroke-width:0.2540; stroke-opacity:1; 
stroke-linecap:round; stroke-linejoin:round;">
<rect x="45.720000" y="37.084000" width="5.080000" height="2.032000" rx="0.000000" />
</g>
<g style="fill:none; 
stroke:#840000; stroke-width:0.1524; stroke-opacity:1; 
stroke-linecap:round; stroke-linejoin:round;">
<path d="M45.7200 38.1000
L44.4500 38.1000
" />
<path d="M50.8000 38.1000
L52.0700 38.1000
" />
</g>
<g style="fill:none; 
stroke:#006464; stroke-width:0.1524; stroke-opacity:1; 
stroke-linecap:round; stroke-linejoin:round;">
<text x="48.2599" y="32.3849"
textLength="2.6827" font-size="1.6933" lengthAdjust="spacingAndGlyphs"
text-anchor="middle" opacity="0" stroke-opacity="0">R1</text>
<g class="stroked-text"><desc>R1</desc>
<path d="M48.0482 32.3294
L47.6249 31.7247
" />
<path d="M47.3225 32.3294
L47.3225 31.0594
" />
<path d="M47.3225 31.0594
L47.8063 31.0594
" />
<path d="M47.8063 31.0594
L47.9273 31.1199
" />
<path d="M47.9273 31.1199
L47.9878 31.1804
" />
<path d="M47.9878 31.1804
L48.0482 31.3013
" />
<path d="M48.0482 31.3013
L48.0482 31.4828
" />
<path d="M48.0482 31.4828
L47.9878 31.6037
" />
<path d="M47.9878 31.6037
L47.9273 31.6642
" />
<path d="M47.9273 31.6642
L47.8063 31.7247
" />
<path d="M47.8063 31.7247
L47.3225 31.7247
" />
<path d="M49.2578 32.3294
L48.5321 32.3294
" />
<path d="M48.8949 32.3294
L48.8949 31.0594
" />
<path d="M48.8949 31.0594
L48.7740 31.2409
" />
<path d="M48.7740 31.2409
L48.6530 31.3618
" />
<path d="M48.6530 31.3618
L48.5321 31.4223
" />
</g><text x="48.2599" y="34.9249"
textLength="3.8317" font-size="1.6933" lengthAdjust="spacingAndGlyphs"
text-anchor="middle" opacity="0" stroke-opacity="0">125</text>
<g class="stroked-text"><desc>125</desc>
<path d="M47.4133 34.8694
L46.6876 34.8694
" />
<path d="M47.0504 34.8694
L47.0504 33.5994
" />
<path d="M47.0504 33.5994
L46.9295 33.7809
" />
<path d="M46.9295 33.7809
L46.8085 33.9018
" />
<path d="M46.8085 33.9018
L46.6876 33.9623
" />
<path d="M47.8971 33.7204
L47.9575 33.6599
" />
<path d="M47.9575 33.6599
L48.0785 33.5994
" />
<path d="M48.0785 33.5994
L48.3809 33.5994
" />
<path d="M48.3809 33.5994
L48.5018 33.6599
" />
<path d="M48.5018 33.6599
L48.5623 33.7204
" />
<path d="M48.5623 33.7204
L48.6228 33.8413
" />
<path d="M48.6228 33.8413
L48.6228 33.9623
" />
<path d="M48.6228 33.9623
L48.5623 34.1437
" />
<path d="M48.5623 34.1437
L47.8366 34.8694
" />
<path d="M47.8366 34.8694
L48.6228 34.8694
" />
<path d="M49.7718 33.5994
L49.1670 33.5994
" />
<path d="M49.1670 33.5994
L49.1066 34.2042
" />
<path d="M49.1066 34.2042
L49.1670 34.1437
" />
<path d="M49.1670 34.1437
L49.2880 34.0832
" />
<path d="M49.2880 34.0832
L49.5904 34.0832
" />
<path d="M49.5904 34.0832
L49.7113 34.1437
" />
<path d="M49.7113 34.1437
L49.7718 34.2042
" />
<path d="M49.7718 34.2042
L49.8323 34.3251
" />
<path d="M49.8323 34.3251
L49.8323 34.6275
" />
<path d="M49.8323 34.6275
L49.7718 34.7485
" />
<path d="M49.7718 34.7485
L49.7113 34.8090
" />
<path d="M49.7113 34.8090
L49.5904 34.8694
" />
<path d="M49.5904 34.8694
L49.2880 34.8694
" />
<path d="M49.2880 34.8694
L49.1670 34.8090
" />
<path d="M49.1670 34.8090
L49.1066 34.7485
" />
</g></g>
<g style="fill:none; 
stroke:#840000; stroke-width:0.2540; stroke-opacity:1; 
stroke-linecap:round; stroke-linejoin:round;">
<rect x="67.564000" y="48.260000" width="2.032000" height="5.080000" rx="0.000000" />
</g>
<g style="fill:none; 
stroke:#840000; stroke-width:0.1524; stroke-opacity:1; 
stroke-linecap:round; stroke-linejoin:round;">
<path d="M68.5800 48.2600
L68.5800 46.9900
" />
<path d="M68.5800 53.3400
L68.5800 54.6100
" />
</g>
<g style="fill:none; 
stroke:#006464; stroke-width:0.1524; stroke-opacity:1; 
stroke-linecap:round; stroke-linejoin:round;">
<text x="72.4709" y="50.1649"
textLength="2.6827" font-size="1.6933" lengthAdjust="spacingAndGlyphs"
text-anchor="middle" opacity="0" stroke-opacity="0">R2</text>
<g class="stroked-text"><desc>R2</desc>
<path d="M72.2592 50.1094
L71.8359 49.5047
" />
<path d="M71.5335 50.1094
L71.5335 48.8394
" />
<path d="M71.5335 48.8394
L72.0173 48.8394
" />
<path d="M72.0173 48.8394
L72.1383 48.8999
" />
<path d="M72.1383 48.8999
L72.1988 48.9604
" />
<path d="M72.1988 48.9604
L72.2592 49.0813
" />
<path d="M72.2592 49.0813
L72.2592 49.2628
" />
<path d="M72.2592 49.2628
L72.1988 49.3837
" />
<path d="M72.1988 49.3837
L72.1383 49.4442
" />
<path d="M72.1383 49.4442
L72.0173 49.5047
" />
<path d="M72.0173 49.5047
L71.5335 49.5047
" />
<path d="M72.7431 48.9604
L72.8035 48.8999
" />
<path d="M72.8035 48.8999
L72.9245 48.8394
" />
<path d="M72.9245 48.8394
L73.2269 48.8394
" />
<path d="M73.2269 48.8394
L73.3478 48.8999
" />
<path d="M73.3478 48.8999
L73.4083 48.9604
" />
<path d="M73.4083 48.9604
L73.4688 49.0813
" />
<path d="M73.4688 49.0813
L73.4688 49.2023
" />
<path d="M73.4688 49.2023
L73.4083 49.3837
" />
<path d="M73.4083 49.3837
L72.6826 50.1094
" />
<path d="M72.6826 50.1094
L73.4688 50.1094
" />
</g><text x="73.0454" y="52.7049"
textLength="3.8317" font-size="1.6933" lengthAdjust="spacingAndGlyphs"
text-anchor="middle" opacity="0" stroke-opacity="0">150</text>
<g class="stroked-text"><desc>150</desc>
<path d="M72.1988 52.6494
L71.4731 52.6494
" />
<path d="M71.8359 52.6494
L71.8359 51.3794
" />
<path d="M71.8359 51.3794
L71.7150 51.5609
" />
<path d="M71.7150 51.5609
L71.5940 51.6818
" />
<path d="M71.5940 51.6818
L71.4731 51.7423
" />
<path d="M73.3478 51.3794
L72.7430 51.3794
" />
<path d="M72.7430 51.3794
L72.6826 51.9842
" />
<path d="M72.6826 51.9842
L72.7430 51.9237
" />
<path d="M72.7430 51.9237
L72.8640 51.8632
" />
<path d="M72.8640 51.8632
L73.1664 51.8632
" />
<path d="M73.1664 51.8632
L73.2873 51.9237
" />
<path d="M73.2873 51.9237
L73.3478 51.9842
" />
<path d="M73.3478 51.9842
L73.4083 52.1051
" />
<path d="M73.4083 52.1051
L73.4083 52.4075
" />
<path d="M73.4083 52.4075
L73.3478 52.5285
" />
<path d="M73.3478 52.5285
L73.2873 52.5890
" />
<path d="M73.2873 52.5890
L73.1664 52.6494
" />
<path d="M73.1664 52.6494
L72.8640 52.6494
" />
<path d="M72.8640 52.6494
L72.7430 52.5890
" />
<path d="M72.7430 52.5890
L72.6826 52.5285
" />
<path d="M74.1944 51.3794
L74.3154 51.3794
" />
<path d="M74.3154 51.3794
L74.4363 51.4399
" />
<path d="M74.4363 51.4399
L74.4968 51.5004
" />
<path d="M74.4968 51.5004
L74.5573 51.6213
" />
<path d="M74.5573 51.6213
L74.6178 51.8632
" />
<path d="M74.6178 51.8632
L74.6178 52.1656
" />
<path d="M74.6178 52.1656
L74.5573 52.4075
" />
<path d="M74.5573 52.4075
L74.4968 52.5285
" />
<path d="M74.4968 52.5285
L74.4363 52.5890
" />
<path d="M74.4363 52.5890
L74.3154 52.6494
" />
<path d="M74.3154 52.6494
L74.1944 52.6494
" />
<path d="M74.1944 52.6494
L74.0735 52.5890
" />
<path d="M74.0735 52.5890
L74.0130 52.5285
" />
<path d="M74.0130 52.5285
L73.9525 52.4075
" />
<path d="M73.9525 52.4075
L73.8921 52.1656
" />
<path d="M73.8921 52.1656
L73.8921 51.8632
" />
<path d="M73.8921 51.8632
L73.9525 51.6213
" />
<path d="M73.9525 51.6213
L74.0130 51.5004
" />
<path d="M74.0130 51.5004
L74.0735 51.4399
" />
<path d="M74.0735 51.4399
L74.1944 51.3794
" />
</g></g>
<g style="fill:#840000; fill-opacity:1.0000; 
stroke:#840000; stroke-width:0.1524; stroke-opacity:1; 
stroke-linecap:round; stroke-linejoin:round;">
<rect x="23.114000" y="61.722000" width="4.572000" height="0.254000" rx="0.000000" />
<rect x="23.876000" y="62.484000" width="3.048000" height="0.508000" rx="0.000000" />
<path style="fill:none; 
stroke:#840000; stroke-width:0.1524; stroke-opacity:1; 
stroke-linecap:round; stroke-linejoin:round;fill:none"
d="M 25.4000,61.7220
25.4000,60.9600
" /> 
<path style="fill:none; 
stroke:#840000; stroke-width:0.1524; stroke-opacity:1; 
stroke-linecap:round; stroke-linejoin:round;fill:none"
d="M 25.4000,62.7380
25.4000,63.5000
" /> 
<path style="fill:none; 
stroke:#840000; stroke-width:0.2540; stroke-opacity:1; 
stroke-linecap:round; stroke-linejoin:round;fill:none"
d="M 26.1620,60.4520
27.1780,60.4520
" /> 
<path style="fill:none; 
stroke:#840000; stroke-width:0.2540; stroke-opacity:1; 
stroke-linecap:round; stroke-linejoin:round;fill:none"
d="M 26.6700,59.9440
26.6700,60.9600
" /> 
</g>
<g style="fill:none; 
stroke:#840000; stroke-width:0.1524; stroke-opacity:1; 
stroke-linecap:round; stroke-linejoin:round;">
<path d="M25.4000 60.9600
L25.4000 58.4200
" />
<path d="M25.4000 63.5000
L25.4000 66.0400
" />
</g>
<g style="fill:none; 
stroke:#006464; stroke-width:0.1524; stroke-opacity:1; 
stroke-linecap:round; stroke-linejoin:round;">
<text x="31.0447" y="61.0234"
textLength="3.6503" font-size="1.6933" lengthAdjust="spacingAndGlyphs"
text-anchor="middle" opacity="0" stroke-opacity="0">BT1</text>
<g class="stroked-text"><desc>BT1</desc>
<path d="M30.0469 60.3027
L30.2283 60.3632
" />
<path d="M30.2283 60.3632
L30.2888 60.4236
" />
<path d="M30.2888 60.4236
L30.3492 60.5446
" />
<path d="M30.3492 60.5446
L30.3492 60.7260
" />
<path d="M30.3492 60.7260
L30.2888 60.8470
" />
<path d="M30.2888 60.8470
L30.2283 60.9075
" />
<path d="M30.2283 60.9075
L30.1073 60.9679
" />
<path d="M30.1073 60.9679
L29.6235 60.9679
" />
<path d="M29.6235 60.9679
L29.6235 59.6979
" />
<path d="M29.6235 59.6979
L30.0469 59.6979
" />
<path d="M30.0469 59.6979
L30.1678 59.7584
" />
<path d="M30.1678 59.7584
L30.2283 59.8189
" />
<path d="M30.2283 59.8189
L30.2888 59.9398
" />
<path d="M30.2888 59.9398
L30.2888 60.0608
" />
<path d="M30.2888 60.0608
L30.2283 60.1817
" />
<path d="M30.2283 60.1817
L30.1678 60.2422
" />
<path d="M30.1678 60.2422
L30.0469 60.3027
" />
<path d="M30.0469 60.3027
L29.6235 60.3027
" />
<path d="M30.7121 59.6979
L31.4378 59.6979
" />
<path d="M31.0750 60.9679
L31.0750 59.6979
" />
<path d="M32.5264 60.9679
L31.8007 60.9679
" />
<path d="M32.1635 60.9679
L32.1635 59.6979
" />
<path d="M32.1635 59.6979
L32.0426 59.8794
" />
<path d="M32.0426 59.8794
L31.9216 60.0003
" />
<path d="M31.9216 60.0003
L31.8007 60.0608
" />
</g><text x="31.7402" y="63.5634"
textLength="5.0413" font-size="1.6933" lengthAdjust="spacingAndGlyphs"
text-anchor="middle" opacity="0" stroke-opacity="0">9VDC</text>
<g class="stroked-text"><desc>9VDC</desc>
<path d="M29.6840 63.5079
L29.9259 63.5079
" />
<path d="M29.9259 63.5079
L30.0469 63.4475
" />
<path d="M30.0469 63.4475
L30.1073 63.3870
" />
<path d="M30.1073 63.3870
L30.2283 63.2055
" />
<path d="M30.2283 63.2055
L30.2888 62.9636
" />
<path d="M30.2888 62.9636
L30.2888 62.4798
" />
<path d="M30.2888 62.4798
L30.2283 62.3589
" />
<path d="M30.2283 62.3589
L30.1678 62.2984
" />
<path d="M30.1678 62.2984
L30.0469 62.2379
" />
<path d="M30.0469 62.2379
L29.8050 62.2379
" />
<path d="M29.8050 62.2379
L29.6840 62.2984
" />
<path d="M29.6840 62.2984
L29.6235 62.3589
" />
<path d="M29.6235 62.3589
L29.5631 62.4798
" />
<path d="M29.5631 62.4798
L29.5631 62.7822
" />
<path d="M29.5631 62.7822
L29.6235 62.9032
" />
<path d="M29.6235 62.9032
L29.6840 62.9636
" />
<path d="M29.6840 62.9636
L29.8050 63.0241
" />
<path d="M29.8050 63.0241
L30.0469 63.0241
" />
<path d="M30.0469 63.0241
L30.1678 62.9636
" />
<path d="M30.1678 62.9636
L30.2283 62.9032
" />
<path d="M30.2283 62.9032
L30.2888 62.7822
" />
<path d="M30.6516 62.2379
L31.0749 63.5079
" />
<path d="M31.0749 63.5079
L31.4983 62.2379
" />
<path d="M31.9216 63.5079
L31.9216 62.2379
" />
<path d="M31.9216 62.2379
L32.2240 62.2379
" />
<path d="M32.2240 62.2379
L32.4054 62.2984
" />
<path d="M32.4054 62.2984
L32.5264 62.4194
" />
<path d="M32.5264 62.4194
L32.5869 62.5403
" />
<path d="M32.5869 62.5403
L32.6473 62.7822
" />
<path d="M32.6473 62.7822
L32.6473 62.9636
" />
<path d="M32.6473 62.9636
L32.5869 63.2055
" />
<path d="M32.5869 63.2055
L32.5264 63.3265
" />
<path d="M32.5264 63.3265
L32.4054 63.4475
" />
<path d="M32.4054 63.4475
L32.2240 63.5079
" />
<path d="M32.2240 63.5079
L31.9216 63.5079
" />
<path d="M33.9173 63.3870
L33.8569 63.4475
" />
<path d="M33.8569 63.4475
L33.6754 63.5079
" />
<path d="M33.6754 63.5079
L33.5545 63.5079
" />
<path d="M33.5545 63.5079
L33.3731 63.4475
" />
<path d="M33.3731 63.4475
L33.2521 63.3265
" />
<path d="M33.2521 63.3265
L33.1916 63.2055
" />
<path d="M33.1916 63.2055
L33.1312 62.9636
" />
<path d="M33.1312 62.9636
L33.1312 62.7822
" />
<path d="M33.1312 62.7822
L33.1916 62.5403
" />
<path d="M33.1916 62.5403
L33.2521 62.4194
" />
<path d="M33.2521 62.4194
L33.3731 62.2984
" />
<path d="M33.3731 62.2984
L33.5545 62.2379
" />
<path d="M33.5545 62.2379
L33.6754 62.2379
" />
<path d="M33.6754 62.2379
L33.8569 62.2984
" />
<path d="M33.8569 62.2984
L33.9173 62.3589
" />
</g></g>
<g style="fill:none; 
stroke:#840000; stroke-width:0.2540; stroke-opacity:1; 
stroke-linecap:round; stroke-linejoin:round;">
<rect x="67.564000" y="73.660000" width="2.032000" height="5.080000" rx="0.000000" />
</g>
<g style="fill:none; 
stroke:#840000; stroke-width:0.1524; stroke-opacity:1; 
stroke-linecap:round; stroke-linejoin:round;">
<path d="M68.5800 73.6600
L68.5800 72.3900
" />
<path d="M68.5800 78.7400
L68.5800 80.0100
" />
</g>
<g style="fill:none; 
stroke:#006464; stroke-width:0.1524; stroke-opacity:1; 
stroke-linecap:round; stroke-linejoin:round;">
<text x="72.4709" y="75.5649"
textLength="2.6827" font-size="1.6933" lengthAdjust="spacingAndGlyphs"
text-anchor="middle" opacity="0" stroke-opacity="0">R3</text>
<g class="stroked-text"><desc>R3</desc>
<path d="M72.2592 75.5094
L71.8359 74.9047
" />
<path d="M71.5335 75.5094
L71.5335 74.2394
" />
<path d="M71.5335 74.2394
L72.0173 74.2394
" />
<path d="M72.0173 74.2394
L72.1383 74.2999
" />
<path d="M72.1383 74.2999
L72.1988 74.3604
" />
<path d="M72.1988 74.3604
L72.2592 74.4813
" />
<path d="M72.2592 74.4813
L72.2592 74.6628
" />
<path d="M72.2592 74.6628
L72.1988 74.7837
" />
<path d="M72.1988 74.7837
L72.1383 74.8442
" />
<path d="M72.1383 74.8442
L72.0173 74.9047
" />
<path d="M72.0173 74.9047
L71.5335 74.9047
" />
<path d="M72.6826 74.2394
L73.4688 74.2394
" />
<path d="M73.4688 74.2394
L73.0454 74.7232
" />
<path d="M73.0454 74.7232
L73.2269 74.7232
" />
<path d="M73.2269 74.7232
L73.3478 74.7837
" />
<path d="M73.3478 74.7837
L73.4083 74.8442
" />
<path d="M73.4083 74.8442
L73.4688 74.9651
" />
<path d="M73.4688 74.9651
L73.4688 75.2675
" />
<path d="M73.4688 75.2675
L73.4083 75.3885
" />
<path d="M73.4083 75.3885
L73.3478 75.4490
" />
<path d="M73.3478 75.4490
L73.2269 75.5094
" />
<path d="M73.2269 75.5094
L72.8640 75.5094
" />
<path d="M72.8640 75.5094
L72.7431 75.4490
" />
<path d="M72.7431 75.4490
L72.6826 75.3885
" />
</g><text x="73.0454" y="78.1049"
textLength="3.8317" font-size="1.6933" lengthAdjust="spacingAndGlyphs"
text-anchor="middle" opacity="0" stroke-opacity="0">150</text>
<g class="stroked-text"><desc>150</desc>
<path d="M72.1988 78.0494
L71.4731 78.0494
" />
<path d="M71.8359 78.0494
L71.8359 76.7794
" />
<path d="M71.8359 76.7794
L71.7150 76.9609
" />
<path d="M71.7150 76.9609
L71.5940 77.0818
" />
<path d="M71.5940 77.0818
L71.4731 77.1423
" />
<path d="M73.3478 76.7794
L72.7430 76.7794
" />
<path d="M72.7430 76.7794
L72.6826 77.3842
" />
<path d="M72.6826 77.3842
L72.7430 77.3237
" />
<path d="M72.7430 77.3237
L72.8640 77.2632
" />
<path d="M72.8640 77.2632
L73.1664 77.2632
" />
<path d="M73.1664 77.2632
L73.2873 77.3237
" />
<path d="M73.2873 77.3237
L73.3478 77.3842
" />
<path d="M73.3478 77.3842
L73.4083 77.5051
" />
<path d="M73.4083 77.5051
L73.4083 77.8075
" />
<path d="M73.4083 77.8075
L73.3478 77.9285
" />
<path d="M73.3478 77.9285
L73.2873 77.9890
" />
<path d="M73.2873 77.9890
L73.1664 78.0494
" />
<path d="M73.1664 78.0494
L72.8640 78.0494
" />
<path d="M72.8640 78.0494
L72.7430 77.9890
" />
<path d="M72.7430 77.9890
L72.6826 77.9285
" />
<path d="M74.1944 76.7794
L74.3154 76.7794
" />
<path d="M74.3154 76.7794
L74.4363 76.8399
" />
<path d="M74.4363 76.8399
L74.4968 76.9004
" />
<path d="M74.4968 76.9004
L74.5573 77.0213
" />
<path d="M74.5573 77.0213
L74.6178 77.2632
" />
<path d="M74.6178 77.2632
L74.6178 77.5656
" />
<path d="M74.6178 77.5656
L74.5573 77.8075
" />
<path d="M74.5573 77.8075
L74.4968 77.9285
" />
<path d="M74.4968 77.9285
L74.4363 77.9890
" />
<path d="M74.4363 77.9890
L74.3154 78.0494
" />
<path d="M74.3154 78.0494
L74.1944 78.0494
" />
<path d="M74.1944 78.0494
L74.0735 77.9890
" />
<path d="M74.0735 77.9890
L74.0130 77.9285
" />
<path d="M74.0130 77.9285
L73.9525 77.8075
" />
<path d="M73.9525 77.8075
L73.8921 77.5656
" />
<path d="M73.8921 77.5656
L73.8921 77.2632
" />
<path d="M73.8921 77.2632
L73.9525 77.0213
" />
<path d="M73.9525 77.0213
L74.0130 76.9004
" />
<path d="M74.0130 76.9004
L74.0735 76.8399
" />
<path d="M74.0735 76.8399
L74.1944 76.7794
" />
</g></g>
<g style="fill:none; 
stroke:#840000; stroke-width:0.2540; stroke-opacity:1; 
stroke-linecap:round; stroke-linejoin:round;">
<rect x="120.904000" y="60.960000" width="2.032000" height="5.080000" rx="0.000000" />
</g>
<g style="fill:none; 
stroke:#840000; stroke-width:0.1524; stroke-opacity:1; 
stroke-linecap:round; stroke-linejoin:round;">
<path d="M121.9200 60.9600
L121.9200 59.6900
" />
<path d="M121.9200 66.0400
L121.9200 67.3100
" />
</g>
<g style="fill:none; 
stroke:#006464; stroke-width:0.1524; stroke-opacity:1; 
stroke-linecap:round; stroke-linejoin:round;">
<text x="125.8109" y="62.8649"
textLength="2.6827" font-size="1.6933" lengthAdjust="spacingAndGlyphs"
text-anchor="middle" opacity="0" stroke-opacity="0">R7</text>
<g class="stroked-text"><desc>R7</desc>
<path d="M125.5992 62.8094
L125.1759 62.2047
" />
<path d="M124.8735 62.8094
L124.8735 61.5394
" />
<path d="M124.8735 61.5394
L125.3573 61.5394
" />
<path d="M125.3573 61.5394
L125.4783 61.5999
" />
<path d="M125.4783 61.5999
L125.5388 61.6604
" />
<path d="M125.5388 61.6604
L125.5992 61.7813
" />
<path d="M125.5992 61.7813
L125.5992 61.9628
" />
<path d="M125.5992 61.9628
L125.5388 62.0837
" />
<path d="M125.5388 62.0837
L125.4783 62.1442
" />
<path d="M125.4783 62.1442
L125.3573 62.2047
" />
<path d="M125.3573 62.2047
L124.8735 62.2047
" />
<path d="M126.0226 61.5394
L126.8692 61.5394
" />
<path d="M126.8692 61.5394
L126.3250 62.8094
" />
</g><text x="126.3854" y="65.4049"
textLength="3.8317" font-size="1.6933" lengthAdjust="spacingAndGlyphs"
text-anchor="middle" opacity="0" stroke-opacity="0">500</text>
<g class="stroked-text"><desc>500</desc>
<path d="M125.4783 64.0794
L124.8735 64.0794
" />
<path d="M124.8735 64.0794
L124.8131 64.6842
" />
<path d="M124.8131 64.6842
L124.8735 64.6237
" />
<path d="M124.8735 64.6237
L124.9945 64.5632
" />
<path d="M124.9945 64.5632
L125.2969 64.5632
" />
<path d="M125.2969 64.5632
L125.4178 64.6237
" />
<path d="M125.4178 64.6237
L125.4783 64.6842
" />
<path d="M125.4783 64.6842
L125.5388 64.8051
" />
<path d="M125.5388 64.8051
L125.5388 65.1075
" />
<path d="M125.5388 65.1075
L125.4783 65.2285
" />
<path d="M125.4783 65.2285
L125.4178 65.2890
" />
<path d="M125.4178 65.2890
L125.2969 65.3494
" />
<path d="M125.2969 65.3494
L124.9945 65.3494
" />
<path d="M124.9945 65.3494
L124.8735 65.2890
" />
<path d="M124.8735 65.2890
L124.8131 65.2285
" />
<path d="M126.3249 64.0794
L126.4459 64.0794
" />
<path d="M126.4459 64.0794
L126.5668 64.1399
" />
<path d="M126.5668 64.1399
L126.6273 64.2004
" />
<path d="M126.6273 64.2004
L126.6878 64.3213
" />
<path d="M126.6878 64.3213
L126.7483 64.5632
" />
<path d="M126.7483 64.5632
L126.7483 64.8656
" />
<path d="M126.7483 64.8656
L126.6878 65.1075
" />
<path d="M126.6878 65.1075
L126.6273 65.2285
" />
<path d="M126.6273 65.2285
L126.5668 65.2890
" />
<path d="M126.5668 65.2890
L126.4459 65.3494
" />
<path d="M126.4459 65.3494
L126.3249 65.3494
" />
<path d="M126.3249 65.3494
L126.2040 65.2890
" />
<path d="M126.2040 65.2890
L126.1435 65.2285
" />
<path d="M126.1435 65.2285
L126.0830 65.1075
" />
<path d="M126.0830 65.1075
L126.0226 64.8656
" />
<path d="M126.0226 64.8656
L126.0226 64.5632
" />
<path d="M126.0226 64.5632
L126.0830 64.3213
" />
<path d="M126.0830 64.3213
L126.1435 64.2004
" />
<path d="M126.1435 64.2004
L126.2040 64.1399
" />
<path d="M126.2040 64.1399
L126.3249 64.0794
" />
<path d="M127.5344 64.0794
L127.6554 64.0794
" />
<path d="M127.6554 64.0794
L127.7763 64.1399
" />
<path d="M127.7763 64.1399
L127.8368 64.2004
" />
<path d="M127.8368 64.2004
L127.8973 64.3213
" />
<path d="M127.8973 64.3213
L127.9578 64.5632
" />
<path d="M127.9578 64.5632
L127.9578 64.8656
" />
<path d="M127.9578 64.8656
L127.8973 65.1075
" />
<path d="M127.8973 65.1075
L127.8368 65.2285
" />
<path d="M127.8368 65.2285
L127.7763 65.2890
" />
<path d="M127.7763 65.2890
L127.6554 65.3494
" />
<path d="M127.6554 65.3494
L127.5344 65.3494
" />
<path d="M127.5344 65.3494
L127.4135 65.2890
" />
<path d="M127.4135 65.2890
L127.3530 65.2285
" />
<path d="M127.3530 65.2285
L127.2925 65.1075
" />
<path d="M127.2925 65.1075
L127.2321 64.8656
" />
<path d="M127.2321 64.8656
L127.2321 64.5632
" />
<path d="M127.2321 64.5632
L127.2925 64.3213
" />
<path d="M127.2925 64.3213
L127.3530 64.2004
" />
<path d="M127.3530 64.2004
L127.4135 64.1399
" />
<path d="M127.4135 64.1399
L127.5344 64.0794
" />
</g></g>
<g style="fill:none; 
stroke:#840000; stroke-width:0.2540; stroke-opacity:1; 
stroke-linecap:round; stroke-linejoin:round;">
<rect x="108.204000" y="60.960000" width="2.032000" height="5.080000" rx="0.000000" />
</g>
<g style="fill:none; 
stroke:#840000; stroke-width:0.1524; stroke-opacity:1; 
stroke-linecap:round; stroke-linejoin:round;">
<path d="M109.2200 60.9600
L109.2200 59.6900
" />
<path d="M109.2200 66.0400
L109.2200 67.3100
" />
</g>
<g style="fill:none; 
stroke:#006464; stroke-width:0.1524; stroke-opacity:1; 
stroke-linecap:round; stroke-linejoin:round;">
<text x="113.1109" y="62.8649"
textLength="2.6827" font-size="1.6933" lengthAdjust="spacingAndGlyphs"
text-anchor="middle" opacity="0" stroke-opacity="0">R6</text>
<g class="stroked-text"><desc>R6</desc>
<path d="M112.8992 62.8094
L112.4759 62.2047
" />
<path d="M112.1735 62.8094
L112.1735 61.5394
" />
<path d="M112.1735 61.5394
L112.6573 61.5394
" />
<path d="M112.6573 61.5394
L112.7783 61.5999
" />
<path d="M112.7783 61.5999
L112.8388 61.6604
" />
<path d="M112.8388 61.6604
L112.8992 61.7813
" />
<path d="M112.8992 61.7813
L112.8992 61.9628
" />
<path d="M112.8992 61.9628
L112.8388 62.0837
" />
<path d="M112.8388 62.0837
L112.7783 62.1442
" />
<path d="M112.7783 62.1442
L112.6573 62.2047
" />
<path d="M112.6573 62.2047
L112.1735 62.2047
" />
<path d="M113.9878 61.5394
L113.7459 61.5394
" />
<path d="M113.7459 61.5394
L113.6250 61.5999
" />
<path d="M113.6250 61.5999
L113.5645 61.6604
" />
<path d="M113.5645 61.6604
L113.4435 61.8418
" />
<path d="M113.4435 61.8418
L113.3831 62.0837
" />
<path d="M113.3831 62.0837
L113.3831 62.5675
" />
<path d="M113.3831 62.5675
L113.4435 62.6885
" />
<path d="M113.4435 62.6885
L113.5040 62.7490
" />
<path d="M113.5040 62.7490
L113.6250 62.8094
" />
<path d="M113.6250 62.8094
L113.8669 62.8094
" />
<path d="M113.8669 62.8094
L113.9878 62.7490
" />
<path d="M113.9878 62.7490
L114.0483 62.6885
" />
<path d="M114.0483 62.6885
L114.1088 62.5675
" />
<path d="M114.1088 62.5675
L114.1088 62.2651
" />
<path d="M114.1088 62.2651
L114.0483 62.1442
" />
<path d="M114.0483 62.1442
L113.9878 62.0837
" />
<path d="M113.9878 62.0837
L113.8669 62.0232
" />
<path d="M113.8669 62.0232
L113.6250 62.0232
" />
<path d="M113.6250 62.0232
L113.5040 62.0837
" />
<path d="M113.5040 62.0837
L113.4435 62.1442
" />
<path d="M113.4435 62.1442
L113.3831 62.2651
" />
</g><text x="113.1109" y="65.4049"
textLength="2.6827" font-size="1.6933" lengthAdjust="spacingAndGlyphs"
text-anchor="middle" opacity="0" stroke-opacity="0">2K</text>
<g class="stroked-text"><desc>2K</desc>
<path d="M112.1131 64.2004
L112.1735 64.1399
" />
<path d="M112.1735 64.1399
L112.2945 64.0794
" />
<path d="M112.2945 64.0794
L112.5969 64.0794
" />
<path d="M112.5969 64.0794
L112.7178 64.1399
" />
<path d="M112.7178 64.1399
L112.7783 64.2004
" />
<path d="M112.7783 64.2004
L112.8388 64.3213
" />
<path d="M112.8388 64.3213
L112.8388 64.4423
" />
<path d="M112.8388 64.4423
L112.7783 64.6237
" />
<path d="M112.7783 64.6237
L112.0526 65.3494
" />
<path d="M112.0526 65.3494
L112.8388 65.3494
" />
<path d="M113.3830 65.3494
L113.3830 64.0794
" />
<path d="M114.1087 65.3494
L113.5645 64.6237
" />
<path d="M114.1087 64.0794
L113.3830 64.8051
" />
</g></g>
<g style="fill:none; 
stroke:#840000; stroke-width:0.2540; stroke-opacity:1; 
stroke-linecap:round; stroke-linejoin:round;">
<rect x="86.360000" y="37.084000" width="5.080000" height="2.032000" rx="0.000000" />
</g>
<g style="fill:none; 
stroke:#840000; stroke-width:0.1524; stroke-opacity:1; 
stroke-linecap:round; stroke-linejoin:round;">
<path d="M86.3600 38.1000
L85.0900 38.1000
" />
<path d="M91.4400 38.1000
L92.7100 38.1000
" />
</g>
<g style="fill:none; 
stroke:#006464; stroke-width:0.1524; stroke-opacity:1; 
stroke-linecap:round; stroke-linejoin:round;">
<text x="88.8999" y="32.3849"
textLength="3.8317" font-size="1.6933" lengthAdjust="spacingAndGlyphs"
text-anchor="middle" opacity="0" stroke-opacity="0">Rb1</text>
<g class="stroked-text"><desc>Rb1</desc>
<path d="M88.1137 32.3294
L87.6904 31.7247
" />
<path d="M87.3880 32.3294
L87.3880 31.0594
" />
<path d="M87.3880 31.0594
L87.8718 31.0594
" />
<path d="M87.8718 31.0594
L87.9928 31.1199
" />
<path d="M87.9928 31.1199
L88.0533 31.1804
" />
<path d="M88.0533 31.1804
L88.1137 31.3013
" />
<path d="M88.1137 31.3013
L88.1137 31.4828
" />
<path d="M88.1137 31.4828
L88.0533 31.6037
" />
<path d="M88.0533 31.6037
L87.9928 31.6642
" />
<path d="M87.9928 31.6642
L87.8718 31.7247
" />
<path d="M87.8718 31.7247
L87.3880 31.7247
" />
<path d="M88.6580 32.3294
L88.6580 31.0594
" />
<path d="M88.6580 31.5432
L88.7790 31.4828
" />
<path d="M88.7790 31.4828
L89.0209 31.4828
" />
<path d="M89.0209 31.4828
L89.1418 31.5432
" />
<path d="M89.1418 31.5432
L89.2023 31.6037
" />
<path d="M89.2023 31.6037
L89.2628 31.7247
" />
<path d="M89.2628 31.7247
L89.2628 32.0875
" />
<path d="M89.2628 32.0875
L89.2023 32.2085
" />
<path d="M89.2023 32.2085
L89.1418 32.2690
" />
<path d="M89.1418 32.2690
L89.0209 32.3294
" />
<path d="M89.0209 32.3294
L88.7790 32.3294
" />
<path d="M88.7790 32.3294
L88.6580 32.2690
" />
<path d="M90.4723 32.3294
L89.7466 32.3294
" />
<path d="M90.1094 32.3294
L90.1094 31.0594
" />
<path d="M90.1094 31.0594
L89.9885 31.2409
" />
<path d="M89.9885 31.2409
L89.8675 31.3618
" />
<path d="M89.8675 31.3618
L89.7466 31.4223
" />
</g><text x="88.9000" y="34.9249"
textLength="8.0650" font-size="1.6933" lengthAdjust="spacingAndGlyphs"
text-anchor="middle" opacity="0" stroke-opacity="0">230.769</text>
<g class="stroked-text"><desc>230.769</desc>
<path d="M85.2110 33.7204
L85.2714 33.6599
" />
<path d="M85.2714 33.6599
L85.3924 33.5994
" />
<path d="M85.3924 33.5994
L85.6948 33.5994
" />
<path d="M85.6948 33.5994
L85.8157 33.6599
" />
<path d="M85.8157 33.6599
L85.8762 33.7204
" />
<path d="M85.8762 33.7204
L85.9367 33.8413
" />
<path d="M85.9367 33.8413
L85.9367 33.9623
" />
<path d="M85.9367 33.9623
L85.8762 34.1437
" />
<path d="M85.8762 34.1437
L85.1505 34.8694
" />
<path d="M85.1505 34.8694
L85.9367 34.8694
" />
<path d="M86.3600 33.5994
L87.1462 33.5994
" />
<path d="M87.1462 33.5994
L86.7228 34.0832
" />
<path d="M86.7228 34.0832
L86.9043 34.0832
" />
<path d="M86.9043 34.0832
L87.0252 34.1437
" />
<path d="M87.0252 34.1437
L87.0857 34.2042
" />
<path d="M87.0857 34.2042
L87.1462 34.3251
" />
<path d="M87.1462 34.3251
L87.1462 34.6275
" />
<path d="M87.1462 34.6275
L87.0857 34.7485
" />
<path d="M87.0857 34.7485
L87.0252 34.8090
" />
<path d="M87.0252 34.8090
L86.9043 34.8694
" />
<path d="M86.9043 34.8694
L86.5414 34.8694
" />
<path d="M86.5414 34.8694
L86.4205 34.8090
" />
<path d="M86.4205 34.8090
L86.3600 34.7485
" />
<path d="M87.9323 33.5994
L88.0533 33.5994
" />
<path d="M88.0533 33.5994
L88.1742 33.6599
" />
<path d="M88.1742 33.6599
L88.2347 33.7204
" />
<path d="M88.2347 33.7204
L88.2952 33.8413
" />
<path d="M88.2952 33.8413
L88.3557 34.0832
" />
<path d="M88.3557 34.0832
L88.3557 34.3856
" />
<path d="M88.3557 34.3856
L88.2952 34.6275
" />
<path d="M88.2952 34.6275
L88.2347 34.7485
" />
<path d="M88.2347 34.7485
L88.1742 34.8090
" />
<path d="M88.1742 34.8090
L88.0533 34.8694
" />
<path d="M88.0533 34.8694
L87.9323 34.8694
" />
<path d="M87.9323 34.8694
L87.8114 34.8090
" />
<path d="M87.8114 34.8090
L87.7509 34.7485
" />
<path d="M87.7509 34.7485
L87.6904 34.6275
" />
<path d="M87.6904 34.6275
L87.6300 34.3856
" />
<path d="M87.6300 34.3856
L87.6300 34.0832
" />
<path d="M87.6300 34.0832
L87.6904 33.8413
" />
<path d="M87.6904 33.8413
L87.7509 33.7204
" />
<path d="M87.7509 33.7204
L87.8114 33.6599
" />
<path d="M87.8114 33.6599
L87.9323 33.5994
" />
<path d="M88.8999 34.7485
L88.9604 34.8090
" />
<path d="M88.9604 34.8090
L88.8999 34.8694
" />
<path d="M88.8999 34.8694
L88.8395 34.8090
" />
<path d="M88.8395 34.8090
L88.8999 34.7485
" />
<path d="M88.8999 34.7485
L88.8999 34.8694
" />
<path d="M89.3838 33.5994
L90.2304 33.5994
" />
<path d="M90.2304 33.5994
L89.6862 34.8694
" />
<path d="M91.2585 33.5994
L91.0166 33.5994
" />
<path d="M91.0166 33.5994
L90.8957 33.6599
" />
<path d="M90.8957 33.6599
L90.8352 33.7204
" />
<path d="M90.8352 33.7204
L90.7142 33.9018
" />
<path d="M90.7142 33.9018
L90.6538 34.1437
" />
<path d="M90.6538 34.1437
L90.6538 34.6275
" />
<path d="M90.6538 34.6275
L90.7142 34.7485
" />
<path d="M90.7142 34.7485
L90.7747 34.8090
" />
<path d="M90.7747 34.8090
L90.8957 34.8694
" />
<path d="M90.8957 34.8694
L91.1376 34.8694
" />
<path d="M91.1376 34.8694
L91.2585 34.8090
" />
<path d="M91.2585 34.8090
L91.3190 34.7485
" />
<path d="M91.3190 34.7485
L91.3795 34.6275
" />
<path d="M91.3795 34.6275
L91.3795 34.3251
" />
<path d="M91.3795 34.3251
L91.3190 34.2042
" />
<path d="M91.3190 34.2042
L91.2585 34.1437
" />
<path d="M91.2585 34.1437
L91.1376 34.0832
" />
<path d="M91.1376 34.0832
L90.8957 34.0832
" />
<path d="M90.8957 34.0832
L90.7747 34.1437
" />
<path d="M90.7747 34.1437
L90.7142 34.2042
" />
<path d="M90.7142 34.2042
L90.6538 34.3251
" />
<path d="M91.9842 34.8694
L92.2261 34.8694
" />
<path d="M92.2261 34.8694
L92.3471 34.8090
" />
<path d="M92.3471 34.8090
L92.4075 34.7485
" />
<path d="M92.4075 34.7485
L92.5285 34.5670
" />
<path d="M92.5285 34.5670
L92.5890 34.3251
" />
<path d="M92.5890 34.3251
L92.5890 33.8413
" />
<path d="M92.5890 33.8413
L92.5285 33.7204
" />
<path d="M92.5285 33.7204
L92.4680 33.6599
" />
<path d="M92.4680 33.6599
L92.3471 33.5994
" />
<path d="M92.3471 33.5994
L92.1052 33.5994
" />
<path d="M92.1052 33.5994
L91.9842 33.6599
" />
<path d="M91.9842 33.6599
L91.9237 33.7204
" />
<path d="M91.9237 33.7204
L91.8633 33.8413
" />
<path d="M91.8633 33.8413
L91.8633 34.1437
" />
<path d="M91.8633 34.1437
L91.9237 34.2647
" />
<path d="M91.9237 34.2647
L91.9842 34.3251
" />
<path d="M91.9842 34.3251
L92.1052 34.3856
" />
<path d="M92.1052 34.3856
L92.3471 34.3856
" />
<path d="M92.3471 34.3856
L92.4680 34.3251
" />
<path d="M92.4680 34.3251
L92.5285 34.2647
" />
<path d="M92.5285 34.2647
L92.5890 34.1437
" />
</g></g>
<g style="fill:none; 
stroke:#009600; stroke-width:0.1524; stroke-opacity:1; 
stroke-linecap:round; stroke-linejoin:round;">
<path d="M68.5800 46.9900
L68.5800 48.2600
" />
<path d="M68.5800 54.6100
L68.5800 72.3900
" />
<path d="M68.5800 78.7400
L68.5800 80.0100
" />
<path d="M68.5800 72.3900
L68.5800 73.6600
" />
<path d="M25.4000 58.4200
L25.4000 38.1000
" />
<path d="M25.4000 38.1000
L44.4500 38.1000
" />
<path d="M25.4000 62.2300
L25.4000 58.4200
" />
<path d="M44.4500 38.1000
L45.7200 38.1000
" />
<path d="M68.5800 80.0100
L68.5800 88.9000
" />
<path d="M25.4000 88.9000
L68.5800 88.9000
" />
<path d="M25.4000 66.0400
L25.4000 88.9000
" />
<path d="M68.5800 38.1000
L68.5800 46.9900
" />
<path d="M68.5800 38.1000
L85.0900 38.1000
" />
<path d="M109.2200 66.0400
L109.2200 67.3100
" />
<path d="M109.2200 59.6900
L109.2200 60.9600
" />
<path d="M121.9200 59.6900
L121.9200 60.9600
" />
<path d="M52.0700 38.1000
L68.5800 38.1000
" />
<path d="M68.5800 53.3400
L68.5800 54.6100
" />
<path d="M121.9200 67.3100
L121.9200 88.9000
" />
<path d="M121.9200 66.0400
L121.9200 67.3100
" />
<path d="M109.2200 88.9000
L121.9200 88.9000
" />
<path d="M68.5800 88.9000
L109.2200 88.9000
" />
<path d="M109.2200 67.3100
L109.2200 88.9000
" />
<path d="M92.7100 38.1000
L109.2200 38.1000
" />
<path d="M91.4400 38.1000
L92.7100 38.1000
" />
<path d="M85.0900 38.1000
L86.3600 38.1000
" />
<path d="M50.8000 38.1000
L52.0700 38.1000
" />
<path d="M121.9200 38.1000
L121.9200 59.6900
" />
<path d="M109.2200 38.1000
L121.9200 38.1000
" />
<path d="M109.2200 38.1000
L109.2200 59.6900
" />
</g>
<g style="fill:#009600; fill-opacity:1.0000; stroke:none;">
<circle cx="52.0700" cy="38.1000" r="0.4572" /> 
</g>
<g style="fill:#009600; fill-opacity:1.0000; stroke:none;">
<circle cx="68.5800" cy="54.6100" r="0.4572" /> 
</g>
<g style="fill:#009600; fill-opacity:1.0000; stroke:none;">
<circle cx="68.5800" cy="80.0100" r="0.4572" /> 
</g>
<g style="fill:#009600; fill-opacity:1.0000; stroke:none;">
<circle cx="68.5800" cy="72.3900" r="0.4572" /> 
</g>
<g style="fill:#009600; fill-opacity:1.0000; stroke:none;">
<circle cx="44.4500" cy="38.1000" r="0.4572" /> 
</g>
<g style="fill:#009600; fill-opacity:1.0000; stroke:none;">
<circle cx="25.4000" cy="58.4200" r="0.4572" /> 
</g>
<g style="fill:#009600; fill-opacity:1.0000; stroke:none;">
<circle cx="68.5800" cy="88.9000" r="0.4572" /> 
</g>
<g style="fill:#009600; fill-opacity:1.0000; stroke:none;">
<circle cx="85.0900" cy="38.1000" r="0.4572" /> 
</g>
<g style="fill:#009600; fill-opacity:1.0000; stroke:none;">
<circle cx="68.5800" cy="38.1000" r="0.4572" /> 
</g>
<g style="fill:#009600; fill-opacity:1.0000; stroke:none;">
<circle cx="68.5800" cy="46.9900" r="0.4572" /> 
</g>
<g style="fill:#009600; fill-opacity:1.0000; stroke:none;">
<circle cx="109.2200" cy="59.6900" r="0.4572" /> 
</g>
<g style="fill:#009600; fill-opacity:1.0000; stroke:none;">
<circle cx="121.9200" cy="67.3100" r="0.4572" /> 
</g>
<g style="fill:#009600; fill-opacity:1.0000; stroke:none;">
<circle cx="109.2200" cy="88.9000" r="0.4572" /> 
</g>
<g style="fill:#009600; fill-opacity:1.0000; stroke:none;">
<circle cx="109.2200" cy="67.3100" r="0.4572" /> 
</g>
<g style="fill:#009600; fill-opacity:1.0000; stroke:none;">
<circle cx="92.7100" cy="38.1000" r="0.4572" /> 
</g>
<g style="fill:#009600; fill-opacity:1.0000; stroke:none;">
<circle cx="109.2200" cy="38.1000" r="0.4572" /> 
</g>
<g style="fill:#009600; fill-opacity:1.0000; stroke:none;">
<circle cx="121.9200" cy="59.6900" r="0.4572" /> 
</g> 
</svg>
